<?xml version="1.0" standalone="no"?>
<!DOCTYPE svg PUBLIC "-//W3C//DTD SVG 1.1//EN" "http://www.w3.org/Graphics/SVG/1.1/DTD/svg11.dtd" >
<svg xmlns="http://www.w3.org/2000/svg" xmlns:xlink="http://www.w3.org/1999/xlink" version="1.1">
<metadata>
Created by FontForge 20170731 at Sun Feb 18 09:55:51 2018
 By Aleksey,,,
Copyright 2018 The Inter UI project authors
</metadata>
<defs>
<font id="InterUI-Regular" horiz-adv-x="0" >
  <font-face 
    font-family="Inter UI"
    font-weight="400"
    font-stretch="normal"
    units-per-em="2816"
    panose-1="2 11 5 2 3 0 0 0 0 4"
    ascent="2252"
    descent="-564"
    x-height="1536"
    cap-height="2048"
    bbox="-2078 -1067 3872 3012"
    underline-thickness="170"
    underline-position="-847"
    unicode-range="U+0002-1F16B"
  />
<missing-glyph horiz-adv-x="2800" 
d="M248 2176v512h2304v-512h-2304zM248 1472v512h2304v-512h-2304zM248 768v512h2304v-512h-2304zM248 64v512h2304v-512h-2304zM248 -640v512h2304v-512h-2304z" />
    <glyph glyph-name=".notdef" horiz-adv-x="2800" 
d="M248 2176v512h2304v-512h-2304zM248 1472v512h2304v-512h-2304zM248 768v512h2304v-512h-2304zM248 64v512h2304v-512h-2304zM248 -640v512h2304v-512h-2304z" />
    <glyph glyph-name=".null" 
 />
    <glyph glyph-name="nonmarkingreturn" horiz-adv-x="938" 
 />
    <glyph glyph-name="controlSOT" 
 />
    <glyph glyph-name="controlHT" unicode="&#x9;" horiz-adv-x="768" 
 />
    <glyph glyph-name="CR" unicode="&#xd;" horiz-adv-x="768" 
 />
    <glyph glyph-name="space" unicode=" " horiz-adv-x="792" 
 />
    <glyph glyph-name="exclam" unicode="!" horiz-adv-x="784" 
d="M528 2048l-20 -1472h-232l-20 1472h272zM392 -32q-81 0 -136.5 55.5t-55.5 136.5t55.5 138.5t136.5 57.5q78 0 135 -57.5t57 -138.5t-57 -136.5t-135 -55.5z" />
    <glyph glyph-name="quotedbl" unicode="&#x22;" horiz-adv-x="1264" 
d="M452 2048v-704h-220v704h220zM964 2048v-704h-220v704h220z" />
    <glyph glyph-name="numbersign" unicode="#" horiz-adv-x="1808" 
d="M360 0l75 568h-303l28 200h302l68 512h-306l28 208h306l74 560h204l-74 -560h420l74 560h204l-75 -560h295l-28 -208h-296l-68 -512h300l-28 -200h-299l-77 -568h-200l75 568h-420l-75 -568h-204zM666 768h420l68 512h-420z" />
    <glyph glyph-name="dollar" unicode="$" horiz-adv-x="1812" 
d="M800 -256l3 223q-293 21 -463.5 173.5t-187.5 387.5h256q13 -154 127 -236.5t271 -99.5l9 755l-87 25q-240 69 -380 197t-140 335q0 160 81.5 283t222 197.5t317.5 88.5l3 231h204l-3 -236q246 -33 400 -182t167 -366h-240q-22 134 -109 216t-221 108l-9 -716l31 -8
q291 -78 433.5 -212.5t142.5 -347.5q0 -230 -161.5 -395t-459.5 -195l-3 -226h-204zM448 1512q0 -119 90 -197t280 -132l8 669q-172 -17 -275 -110.5t-103 -229.5zM1388 560q0 131 -91 201.5t-279 127.5l-8 -691q166 27 272 123t106 239z" />
    <glyph glyph-name="percent" unicode="%" horiz-adv-x="2288" 
d="M236 1556v108q0 112 46.5 205.5t136 150t217.5 56.5q130 0 218 -56.5t133 -150t45 -205.5v-108q0 -112 -45.5 -205.5t-134 -150t-216.5 -56.5q-130 0 -219 56.5t-135 150t-46 205.5zM1952 2048l-1408 -2048h-232l1408 2048h232zM440 1664v-108q0 -93 44 -166.5t152 -73.5
q105 0 148.5 73.5t43.5 166.5v108q0 93 -42 166.5t-150 73.5q-105 0 -150.5 -73.5t-45.5 -166.5zM1256 384v108q0 112 46.5 205.5t136 150t217.5 56.5q130 0 218 -56.5t133 -150t45 -205.5v-108q0 -112 -45.5 -205.5t-134 -150t-216.5 -56.5q-130 0 -219 56.5t-135 150
t-46 205.5zM1460 492v-108q0 -93 44 -166.5t152 -73.5q105 0 148.5 73.5t43.5 166.5v108q0 93 -42 166.5t-150 73.5q-105 0 -150.5 -73.5t-45.5 -166.5z" />
    <glyph glyph-name="ampersand" unicode="&#x26;" horiz-adv-x="1776" 
d="M1448 0l-143 172q-103 -101 -248 -150.5t-285 -49.5q-202 0 -348 74t-225 203t-79 295q0 186 112.5 314.5t291.5 252.5q-104 126 -172 238t-68 227q0 237 136.5 364.5t367.5 127.5q150 0 259.5 -59.5t169 -157t59.5 -211.5q0 -147 -73 -255t-199 -201l-150 -112l445 -543
q40 78 62.5 170t22.5 197h228q0 -331 -164 -549l284 -347h-284zM524 1584q0 -73 55 -158.5t130 -177.5l135 100q87 57 139.5 122t52.5 170q0 78 -68.5 151t-179.5 73q-117 0 -190.5 -84.5t-73.5 -195.5zM360 544q0 -96 49.5 -179t142 -134t220.5 -51q216 0 390 165l-490 591
v0l-76 -56q-144 -105 -190 -199.5t-46 -136.5z" />
    <glyph glyph-name="quotesingle" unicode="'" horiz-adv-x="624" 
d="M420 2048v-704h-220v704h220z" />
    <glyph glyph-name="parenleft" unicode="(" horiz-adv-x="928" 
d="M828 -384h-236q-100 148 -177.5 341.5t-122 416t-44.5 458.5q0 354 99.5 674t264.5 542h220q-180 -306 -260 -594.5t-80 -621.5q0 -321 79.5 -615.5t256.5 -600.5z" />
    <glyph glyph-name="parenright" unicode=")" horiz-adv-x="928" 
d="M84 -384q177 306 256.5 600.5t79.5 615.5q0 333 -80 621.5t-260 594.5h220q165 -222 264.5 -542t99.5 -674q0 -236 -44.5 -458.5t-122 -416t-177.5 -341.5h-236z" />
    <glyph glyph-name="asterisk" unicode="*" horiz-adv-x="1424" 
d="M272 1032l256 360l-420 136l68 212l424 -140v448h224v-448l424 140l68 -212l-420 -136l256 -360l-176 -128l-264 360l-264 -360z" />
    <glyph glyph-name="plus" unicode="+" horiz-adv-x="1808" 
d="M1016 1536v-528h528v-224h-528v-528h-224v528h-528v224h528v528h224z" />
    <glyph glyph-name="comma" unicode="," horiz-adv-x="776" 
d="M548 256v-188q-3 -132 -50.5 -255.5t-125.5 -240.5l-200 40q51 120 85.5 229t34.5 223v192h256z" />
    <glyph glyph-name="hyphen" unicode="-" horiz-adv-x="1296" 
d="M1096 988v-220h-896v220h896z" />
    <glyph glyph-name="period" unicode="." horiz-adv-x="776" 
d="M388 -16q-75 0 -127.5 52.5t-52.5 127.5t54 125.5t126 50.5q75 0 127.5 -52t52.5 -124q0 -75 -52.5 -127.5t-127.5 -52.5z" />
    <glyph glyph-name="slash" unicode="/" horiz-adv-x="1040" 
d="M932 2048l-596 -2356h-232l596 2356h232z" />
    <glyph glyph-name="zero" unicode="0" horiz-adv-x="1680" 
d="M1524 1140v-196q0 -453 -171.5 -712.5t-504.5 -259.5q-336 0 -514 259.5t-178 712.5v196q0 450 176 693t512 243q333 0 506.5 -243t173.5 -693zM1276 900v284q0 194 -47 346t-143 239t-242 87q-148 0 -245.5 -87t-146 -239t-48.5 -346v-284q0 -192 49.5 -353t148 -258
t246.5 -97q146 0 241 97t141 258t46 353z" />
    <glyph glyph-name="one" unicode="1" horiz-adv-x="1260" 
d="M868 2048v-2048h-236v1688h-16q-14 -28 -71.5 -63.5t-150 -62t-210.5 -26.5v208q120 0 206 42.5t143 100.5t87.5 105t39.5 56h208z" />
    <glyph glyph-name="two" unicode="2" horiz-adv-x="1680" 
d="M1516 220v-220h-1376v180l720 740q124 128 204.5 222.5t120 176t39.5 169.5q0 102 -48.5 189.5t-138 141t-213.5 53.5q-138 0 -217.5 -67t-113 -173t-33.5 -224h-244q0 166 62.5 319t198 251t355.5 98q188 0 330.5 -75t222 -206t79.5 -299q0 -118 -56 -238t-147 -237
t-197 -225l-552 -564v-12h1004z" />
    <glyph glyph-name="three" unicode="3" horiz-adv-x="1680" 
d="M680 924v228h116q192 0 296 106.5t104 253.5q0 171 -105.5 269.5t-270.5 98.5t-264.5 -97t-99.5 -247h-236q0 150 69.5 272.5t204 195t330.5 72.5q178 0 317 -64.5t219 -191t80 -312.5q0 -73 -30.5 -160t-97 -167.5t-174.5 -132.5q135 -46 210.5 -127.5t105.5 -177.5
t30 -187q0 -184 -91 -314.5t-243 -200t-334 -69.5q-180 0 -319 61.5t-218 182t-79 296.5h256q0 -153 92.5 -240.5t263.5 -87.5t291.5 93t120.5 279q0 183 -121 275.5t-307 92.5h-116z" />
    <glyph glyph-name="four" unicode="4" horiz-adv-x="1680" 
d="M1568 604v-220h-280v-384h-220v384h-964v156l924 1508h260v-1444h280zM412 604h656v1165l-40 -133z" />
    <glyph glyph-name="five" unicode="5" horiz-adv-x="1680" 
d="M440 948l-236 52l120 1048h1080v-236h-856l-84 -632h12q57 45 154 82.5t202 37.5q200 0 349.5 -81.5t232 -230t82.5 -348.5q0 -196 -82.5 -346.5t-238 -236t-375.5 -85.5q-162 0 -295 56.5t-218 176t-103 307.5h240q30 -165 133 -246.5t259 -81.5q116 0 217.5 54.5
t164 156t62.5 241.5q0 156 -63 253t-161 142t-204 45q-141 0 -232 -35.5t-160 -92.5z" />
    <glyph glyph-name="six" unicode="6" horiz-adv-x="1680" 
d="M1212 1536q-24 72 -61 146t-106 124t-189 50q-80 0 -157 -32t-141 -114t-104 -229.5t-45 -378.5q91 99 213 142.5t242 43.5q196 0 333.5 -93t210 -243t72.5 -320q0 -172 -73.5 -322.5t-218 -244t-356.5 -93.5q-336 0 -502 258t-166 750v68q0 316 74.5 547.5t227 358
t386.5 126.5q243 0 392.5 -140t203.5 -404h-236zM860 1068q-190 0 -309.5 -116.5t-122.5 -308.5q2 -153 61.5 -254t155.5 -151t207 -50q177 0 284.5 118.5t107.5 325.5q0 114 -37.5 213.5t-122 161t-224.5 61.5z" />
    <glyph glyph-name="seven" unicode="7" horiz-adv-x="1552" 
d="M1416 2048v-256l-816 -1792h-272l848 1816h-1040v232h1280z" />
    <glyph glyph-name="eight" unicode="8" horiz-adv-x="1680" 
d="M1487 580q0 -184 -86 -320.5t-232 -212t-326 -75.5q-182 0 -330 74.5t-235 211t-87 322.5q0 180 82.5 310t222.5 200q-118 62 -187.5 175t-69.5 279q0 174 79.5 292.5t216 179t308.5 60.5q170 0 305 -60.5t213 -179t78 -292.5q0 -167 -70.5 -280.5t-190.5 -174.5
q141 -70 225 -200t84 -309zM1207 1536q0 98 -52 172t-137 115t-183 41q-92 0 -175.5 -38.5t-136 -111t-52.5 -174.5t53 -180.5t138 -123t181 -44.5q94 0 177 44.5t135 122t52 177.5zM1243 580q0 112 -56 205.5t-149 150t-203 56.5t-202 -56t-147 -149t-55 -203t55.5 -202
t149 -147t207.5 -55t204.5 55t143 146t52.5 199z" />
    <glyph glyph-name="nine" unicode="9" horiz-adv-x="1680" 
d="M452 512q24 -72 61 -146t106 -124t189 -50q80 0 157 32t141 114t104 229.5t45 378.5q-91 -99 -213 -142.5t-242 -43.5q-196 0 -333.5 93t-210 243t-72.5 320q0 172 73.5 322.5t218 244t356.5 93.5q336 0 502 -258t166 -750v-68q0 -316 -74.5 -547.5t-227 -358
t-386.5 -126.5q-243 0 -392.5 140t-203.5 404h236zM420 1416q0 -114 37.5 -213.5t122 -161t224.5 -61.5q190 0 309.5 116.5t122.5 308.5q-2 153 -61.5 254t-155.5 151t-207 50q-177 0 -284.5 -118.5t-107.5 -325.5z" />
    <glyph glyph-name="colon" unicode=":" horiz-adv-x="776" 
d="M388 1124q-75 0 -127.5 52.5t-52.5 127.5t54 125.5t126 50.5q75 0 127.5 -52t52.5 -124q0 -75 -52.5 -127.5t-127.5 -52.5zM388 -16q-75 0 -127.5 52.5t-52.5 127.5t54 125.5t126 50.5q75 0 127.5 -52t52.5 -124q0 -75 -52.5 -127.5t-127.5 -52.5z" />
    <glyph glyph-name="semicolon" unicode=";" horiz-adv-x="776" 
d="M388 1124q-75 0 -127.5 52.5t-52.5 127.5t54 125.5t126 50.5q75 0 127.5 -52t52.5 -124q0 -75 -52.5 -127.5t-127.5 -52.5zM548 256v-188q-3 -132 -50.5 -255.5t-125.5 -240.5l-200 40q51 120 85.5 229t34.5 223v192h256z" />
    <glyph glyph-name="less" unicode="&#x3c;" horiz-adv-x="1296" 
d="M1088 328l-156 -152l-800 720l800 720l156 -152l-632 -564v-8z" />
    <glyph glyph-name="equal" unicode="=" horiz-adv-x="1808" 
d="M328 1280h1152v-220h-1152v220zM328 732h1152v-220h-1152v220z" />
    <glyph glyph-name="greater" unicode="&#x3e;" horiz-adv-x="1296" 
d="M192 328l632 564v8l-632 564l156 152l800 -720l-800 -720z" />
    <glyph glyph-name="question" unicode="?" horiz-adv-x="1520" 
d="M880 576h-240q0 163 36 272t93 182.5t121 127.5t121 106t93 118.5t36 165.5q0 147 -87.5 233.5t-228.5 86.5q-82 0 -156 -34t-121 -107t-47 -191h-252q0 170 76.5 291t207 185t292.5 64q176 0 300.5 -70t190 -192t65.5 -278q0 -125 -36 -208.5t-93 -144t-121 -114
t-121 -117t-93 -153t-36 -223.5zM760 -32q-81 0 -136.5 55.5t-55.5 136.5t55.5 138.5t136.5 57.5q78 0 135 -57.5t57 -138.5t-57 -136.5t-135 -55.5z" />
    <glyph glyph-name="at" unicode="@" horiz-adv-x="2636" 
d="M1368 1972q280 0 492 -91.5t354.5 -247t214 -349.5t71.5 -400q0 -146 -14 -294.5t-59 -273t-138.5 -200.5t-252.5 -76q-70 0 -154 22t-149 73t-77 137h-12q-36 -87 -130.5 -156.5t-265.5 -63.5q-174 6 -291.5 97.5t-177 244t-59.5 342.5q0 180 69.5 318.5t189 222
t269.5 99.5q150 15 256.5 -31.5t127.5 -112.5h12v112h212v-904q0 -84 47 -148t137 -64q153 0 202.5 159t49.5 501q0 168 -57 328t-172.5 288t-292 204t-414.5 76q-314 0 -538 -128t-343 -367t-119 -573q0 -510 267.5 -787t780.5 -277q110 0 217 21t189 46t118 37l56 -184
q-62 -26 -161.5 -52t-212 -43t-214.5 -17q-612 0 -936 329t-324 935q0 390 147 669.5t423 429t662 149.5zM1288 1180q-114 0 -194.5 -59.5t-123 -158t-42.5 -214.5q0 -128 34 -240.5t111 -182t207 -69.5q201 0 288.5 121.5t87.5 370.5q0 252 -94 342t-274 90z" />
    <glyph glyph-name="A" unicode="A" horiz-adv-x="1904" 
d="M332 0h-260l752 2048h256l752 -2048h-260l-193 548h-854zM940 1724l-337 -956h698l-337 956h-24z" />
    <glyph glyph-name="B" unicode="B" horiz-adv-x="1832" 
d="M988 0h-740v2048h716q214 0 353 -73.5t207 -197t68 -273.5q0 -133 -46.5 -219t-122.5 -136t-163 -74v-19q94 -6 189 -66t159 -172t64 -274q0 -154 -70 -277t-221 -195t-393 -72zM496 1828v-680h460q168 0 284 97t116 259q0 135 -94 229.5t-298 94.5h-468zM1436 544
q0 104 -53 192.5t-151 142t-232 53.5h-504v-712h492q243 0 345.5 94.5t102.5 229.5z" />
    <glyph glyph-name="C" unicode="C" horiz-adv-x="2048" 
d="M1896 1408h-248q-30 142 -115 239t-205 147t-256 50q-186 0 -336.5 -94t-239 -277t-88.5 -449t88.5 -449t239 -277t336.5 -94q136 0 256 50t205 147t115 239h248q-38 -210 -155 -359.5t-290 -229t-379 -79.5q-262 0 -466 128t-321 364t-117 560t117 560t321 364t466 128
q206 0 379 -79.5t290 -229t155 -359.5z" />
    <glyph glyph-name="D" unicode="D" horiz-adv-x="2024" 
d="M880 0h-632v2048h660q298 0 510 -122.5t325 -351t113 -546.5q0 -320 -114 -550.5t-332 -354t-530 -123.5zM892 1828h-396v-1608h368q381 0 566.5 216.5t185.5 591.5q0 372 -182 586t-542 214z" />
    <glyph glyph-name="E" unicode="E" horiz-adv-x="1684" 
d="M1500 220v-220h-1252v2048h1236v-220h-988v-692h884v-220h-884v-696h1004z" />
    <glyph glyph-name="F" unicode="F" horiz-adv-x="1652" 
d="M1344 1136v-220h-848v-916h-248v2048h1228v-220h-980v-692h848z" />
    <glyph glyph-name="G" unicode="G" horiz-adv-x="2092" 
d="M1916 1016v-220q0 -252 -110 -437t-299 -286t-427 -101q-266 0 -472 128t-323 364t-117 560t116.5 560t319 364t460.5 128q306 0 526 -176.5t310 -491.5h-252q-72 213 -229 324.5t-355 111.5q-182 0 -331 -94t-237 -277t-88 -449t89 -449t241 -277t342 -94
q174 0 308.5 75.5t211 209t76.5 307.5h-500v220h740z" />
    <glyph glyph-name="H" unicode="H" horiz-adv-x="2084" 
d="M496 2048v-912h1092v912h248v-2048h-248v916h-1092v-916h-248v2048h248z" />
    <glyph glyph-name="I" unicode="I" horiz-adv-x="744" 
d="M496 2048v-2048h-248v2048h248z" />
    <glyph glyph-name="J" unicode="J" horiz-adv-x="1424" 
d="M952 584v1464h248v-1464q0 -297 -164 -454.5t-440 -157.5q-162 0 -295.5 66t-213 187t-79.5 287h240q0 -153 108.5 -236.5t255.5 -83.5q80 0 158.5 33t130 118t51.5 241z" />
    <glyph glyph-name="K" unicode="K" horiz-adv-x="1836" 
d="M1464 0l-711 953l-257 -287v-666h-248v2048h248v-1016h24l920 1016h324l-858 -924l858 -1124h-300z" />
    <glyph glyph-name="L" unicode="L" horiz-adv-x="1584" 
d="M1448 220v-220h-1200v2048h248v-1828h952z" />
    <glyph glyph-name="M" unicode="M" horiz-adv-x="2464" 
d="M248 2048h276l700 -1672h24l692 1672h276v-2048h-232v1536h-20l-620 -1520h-224l-620 1520h-20v-1536h-232v2048z" />
    <glyph glyph-name="N" unicode="N" horiz-adv-x="2080" 
d="M1832 2048v-2048h-240l-1076 1604h-20v-1604h-248v2048h240l1080 -1612h20v1612h244z" />
    <glyph glyph-name="O" unicode="O" horiz-adv-x="2144" 
d="M1976 1024q0 -324 -117 -560t-321 -364t-466 -128t-466 128t-321 364t-117 560t117 560t321 364t466 128t466 -128t321 -364t117 -560zM1736 1024q0 266 -88.5 449t-239 277t-336.5 94t-336.5 -94t-239 -277t-88.5 -449t88.5 -449t239 -277t336.5 -94t336.5 94t239 277
t88.5 449z" />
    <glyph glyph-name="P" unicode="P" horiz-adv-x="1784" 
d="M936 740h-440v-740h-248v2048h684q240 0 392 -85.5t224 -232t72 -330.5t-72 -333.5t-223 -238t-389 -88.5zM496 1828v-868h440q164 0 260.5 57.5t138 157t41.5 225.5q0 189 -97.5 308.5t-346.5 119.5h-436z" />
    <glyph glyph-name="Q" unicode="Q" horiz-adv-x="2144" 
d="M1976 1024q0 -288 -94 -507.5t-257 -353.5l267 -355h-272l-179 240q-170 -76 -369 -76q-262 0 -466 128t-321 364t-117 560t117 560t321 364t466 128t466 -128t321 -364t117 -560zM992 640h272l218 -287q117 102 185.5 270.5t68.5 400.5q0 266 -88.5 449t-239 277
t-336.5 94t-336.5 -94t-239 -277t-88.5 -449t88.5 -449t239 -277t336.5 -94q119 0 223 38z" />
    <glyph glyph-name="R" unicode="R" horiz-adv-x="1784" 
d="M1404 0l-407 796h-501v-796h-248v2048h684q244 0 395.5 -86t222 -229t70.5 -313q0 -211 -96 -354t-274 -215l442 -851h-288zM496 1828v-804h408q180 0 283 51.5t146 141t43 203.5q0 96 -35 190t-131 156t-278 62h-436z" />
    <glyph glyph-name="S" unicode="S" horiz-adv-x="1788" 
d="M1360 1520q-27 165 -150.5 250.5t-309.5 85.5q-204 0 -328 -97t-124 -247q0 -123 96 -202.5t300 -133.5l208 -56q291 -78 433.5 -212.5t142.5 -347.5q0 -168 -86.5 -303t-252 -214t-401.5 -79q-330 0 -524 156t-212 408h256q10 -116 78.5 -191.5t174 -112t227.5 -36.5
q142 0 255 46.5t179 130t66 195.5q0 138 -100.5 209t-307.5 131l-252 72q-240 69 -380 197t-140 335q0 172 93.5 300.5t252 200t354.5 71.5q198 0 350.5 -71.5t242 -197t99.5 -287.5h-240z" />
    <glyph glyph-name="T" unicode="T" horiz-adv-x="1808" 
d="M1672 2048v-220h-644v-1828h-248v1828h-644v220h1536z" />
    <glyph glyph-name="U" unicode="U" horiz-adv-x="2088" 
d="M1592 2048h248v-1356q0 -230 -109 -393t-290 -249t-397 -86t-397 86t-290 249t-109 393v1356h248v-1356q0 -160 76 -270.5t201 -168t271 -57.5t271 57.5t201 168t76 270.5v1356z" />
    <glyph glyph-name="V" unicode="V" horiz-adv-x="1904" 
d="M332 2048l608 -1724h24l608 1724h260l-752 -2048h-256l-752 2048h260z" />
    <glyph glyph-name="W" unicode="W" horiz-adv-x="2672" 
d="M312 2048l428 -1668h20l436 1668h280l436 -1668h20l428 1668h252l-560 -2048h-256l-452 1632h-16l-452 -1632h-256l-560 2048h252z" />
    <glyph glyph-name="X" unicode="X" horiz-adv-x="1808" 
d="M368 2048l528 -852h16l528 852h292l-644 -1024l644 -1024h-292l-528 836h-16l-528 -836h-292l660 1024l-660 1024h292z" />
    <glyph glyph-name="Y" unicode="Y" horiz-adv-x="1880" 
d="M360 2048l568 -956h24l568 956h284l-740 -1204v-844h-248v844l-740 1204h284z" />
    <glyph glyph-name="Z" unicode="Z" horiz-adv-x="1760" 
d="M1592 220v-220h-1412v180l1105 1648h-1117v220h1412v-180l-1105 -1648h1117z" />
    <glyph glyph-name="bracketleft" unicode="[" horiz-adv-x="928" 
d="M776 2240v-220h-280v-2248h280v-220h-512v2688h512z" />
    <glyph glyph-name="backslash" unicode="\" horiz-adv-x="1008" 
d="M88 2048h232l596 -2356h-232z" />
    <glyph glyph-name="bracketright" unicode="]" horiz-adv-x="928" 
d="M152 2240h512v-2688h-512v220h280v2248h-280v220z" />
    <glyph glyph-name="asciicircum" unicode="^" horiz-adv-x="1264" 
d="M884 1004l-252 643l-248 -643h-256l412 1000h188l408 -1000h-252z" />
    <glyph glyph-name="underscore" unicode="_" horiz-adv-x="1272" 
d="M1276 0v-220h-1280v220h1280z" />
    <glyph glyph-name="grave" unicode="`" horiz-adv-x="752" 
d="M388 2112l268 -408h-236l-364 408h332z" />
    <glyph glyph-name="a" unicode="a" horiz-adv-x="1588" 
d="M1136 0v208h-12q-24 -50 -80 -107t-149 -97t-227 -40q-146 0 -265 55.5t-189 161t-70 255.5q0 130 52 213t138 130t192 71t214 38q106 14 196 22t145 28t55 70v4q0 192 -91 264t-229 72q-171 0 -268 -74t-136 -158l-224 80q60 140 160.5 218.5t220 110t235.5 31.5
q74 0 170.5 -17.5t187 -71.5t150.5 -163t60 -292v-1012h-236zM1136 556v216q-15 -18 -65.5 -32.5t-116 -25t-127 -18.5t-99.5 -12q-92 -12 -171.5 -38.5t-128 -79t-48.5 -142.5q0 -123 91.5 -185.5t232.5 -62.5q140 0 236.5 55t146 142t49.5 183z" />
    <glyph glyph-name="b" unicode="b" horiz-adv-x="1716" 
d="M216 2048h236v-756h20q26 40 72.5 102.5t134 112t237.5 49.5q194 0 342 -97t231 -275t83 -420q0 -244 -83 -422.5t-230 -276t-339 -97.5q-148 0 -237 49.5t-137 113t-74 105.5h-28v-236h-228v2048zM1336 768q0 162 -49.5 292.5t-149 207t-249.5 76.5q-216 0 -328 -159
t-112 -417q0 -261 113.5 -424.5t326.5 -163.5q148 0 247.5 78.5t150 212t50.5 297.5z" />
    <glyph glyph-name="c" unicode="c" horiz-adv-x="1572" 
d="M1444 1076h-236q-27 105 -119.5 186.5t-248.5 81.5q-207 0 -333.5 -157.5t-126.5 -418.5q0 -267 125 -427.5t335 -160.5q138 0 236.5 71t131.5 197h236q-20 -136 -98.5 -244.5t-207 -172t-298.5 -63.5q-214 0 -370 101.5t-241 282t-85 416.5q0 230 86.5 408t242 279
t363.5 101q162 0 292 -60t213 -168t103 -252z" />
    <glyph glyph-name="d" unicode="d" horiz-adv-x="1716" 
d="M1500 0h-228v236h-24q-26 -42 -75 -105.5t-139 -113t-238 -49.5q-192 0 -339 97.5t-230 276t-83 422.5q0 242 83 420t231 275t342 97q150 0 238.5 -49.5t136 -112t73.5 -102.5h16v756h236v-2048zM380 768q0 -164 50.5 -297.5t150 -212t247.5 -78.5q213 0 326.5 163.5
t113.5 424.5q0 258 -112 417t-328 159q-150 0 -249.5 -76.5t-149 -207t-49.5 -292.5z" />
    <glyph glyph-name="e" unicode="e" horiz-adv-x="1644" 
d="M860 -32q-222 0 -382.5 98.5t-247 276t-86.5 413.5t86.5 416.5t242 282t363.5 101.5q120 0 237 -40t213 -129.5t153 -237t57 -361.5v-100h-1113q18 -249 143 -378.5t334 -129.5q141 0 240 60t144 180l228 -64q-54 -174 -216 -281t-396 -107zM836 1344q-177 0 -298 -118
t-150 -334h868q0 195 -114 323.5t-306 128.5z" />
    <glyph glyph-name="f" unicode="f" horiz-adv-x="1008" 
d="M320 0v1316h-248v220h248v144q0 132 62 220t161 132t209 44q87 0 142 -14t82 -26l-68 -204q-18 6 -49.5 15t-82.5 9q-117 0 -168.5 -59t-51.5 -173v-88h344v-220h-344v-1316h-236z" />
    <glyph glyph-name="g" unicode="g" horiz-adv-x="1716" 
d="M1272 1536h228v-1548q0 -198 -94 -322.5t-247 -183t-331 -58.5q-246 0 -397 92.5t-223 215.5l188 132q30 -38 80.5 -92t135 -95t216.5 -41q118 0 218 40.5t160 124t58 211.5v272h-20q-26 -42 -73.5 -103.5t-136 -109t-238.5 -47.5q-186 0 -333.5 88t-233 256t-85.5 408
q0 236 83 411.5t231 272t342 96.5q150 0 238.5 -49.5t136 -112t73.5 -102.5h24v244zM380 780q0 -240 113 -392t335 -152q213 0 326.5 144.5t113.5 399.5q0 249 -112 406.5t-328 157.5q-150 0 -249.5 -76t-149 -204t-49.5 -284z" />
    <glyph glyph-name="h" unicode="h" horiz-adv-x="1636" 
d="M452 928v-928h-236v2048h236v-728h16q57 87 169.5 161.5t286.5 74.5q216 0 356 -147.5t140 -432.5v-976h-236v976q0 168 -91.5 260t-244.5 92q-94 0 -185 -40t-151 -128t-60 -232z" />
    <glyph glyph-name="i" unicode="i" horiz-adv-x="668" 
d="M332 1756q-78 0 -123 47t-45 113q0 60 45 110t123 50t123 -50t45 -110q0 -66 -45 -113t-123 -47zM452 1536v-1536h-236v1536h236z" />
    <glyph glyph-name="j" unicode="j" horiz-adv-x="668" 
d="M332 1756q-78 0 -123 47t-45 113q0 60 45 110t123 50t123 -50t45 -110q0 -66 -45 -113t-123 -47zM216 1536h236v-1648q0 -213 -109 -340.5t-331 -127.5h-48v220h44q108 0 158 65.5t50 182.5v1648z" />
    <glyph glyph-name="k" unicode="k" horiz-adv-x="1500" 
d="M1184 0l-551 732l-181 -195v-537h-236v2048h236v-1204h28l624 692h292l-604 -654l668 -882h-276z" />
    <glyph glyph-name="l" unicode="l" horiz-adv-x="668" 
d="M452 2048v-2048h-236v2048h236z" />
    <glyph glyph-name="m" unicode="m" horiz-adv-x="2404" 
d="M1324 964v-964h-240v1004q0 174 -75.5 249t-204.5 75q-90 0 -170.5 -50.5t-131 -143t-50.5 -218.5v-916h-236v1536h236v-260h16q22 66 79.5 130.5t140 107t180.5 42.5q144 0 244.5 -81t151.5 -195h16q22 64 84.5 127.5t155 106t204.5 42.5q128 0 233.5 -59.5t168 -182
t62.5 -310.5v-1004h-236v1012q0 120 -48.5 189t-118 98t-133.5 29q-156 0 -242 -101t-86 -263z" />
    <glyph glyph-name="n" unicode="n" horiz-adv-x="1636" 
d="M452 908v-908h-236v1536h236v-260h16q54 117 168 198.5t288 81.5q216 0 356 -143t140 -437v-976h-236v960q0 168 -94.5 268t-241.5 100q-88 0 -179.5 -45t-154 -138t-62.5 -237z" />
    <glyph glyph-name="o" unicode="o" horiz-adv-x="1680" 
d="M840 -32q-208 0 -364.5 99t-244 277t-87.5 416q0 240 87.5 419t244 278t364.5 99t364.5 -99t244 -278t87.5 -419q0 -238 -87.5 -416t-244 -277t-364.5 -99zM840 180q158 0 260 81t151 213t49 286t-49 287t-151 215t-260 82t-260 -82t-151 -215t-49 -287t49 -286t151 -213
t260 -81z" />
    <glyph glyph-name="p" unicode="p" horiz-adv-x="1716" 
d="M216 -576v2112h228v-244h28q26 40 72.5 102.5t134 112t237.5 49.5q194 0 342 -97t231 -275t83 -420q0 -244 -83 -422.5t-230 -276t-339 -97.5q-148 0 -237 49.5t-137 113t-74 105.5h-20v-812h-236zM1336 768q0 162 -49.5 292.5t-149 207t-249.5 76.5q-216 0 -328 -159
t-112 -417q0 -261 113.5 -424.5t326.5 -163.5q148 0 247.5 78.5t150 212t50.5 297.5z" />
    <glyph glyph-name="q" unicode="q" horiz-adv-x="1716" 
d="M1500 1536v-2112h-236v812h-16q-26 -42 -75 -105.5t-139 -113t-238 -49.5q-192 0 -339 97.5t-230 276t-83 422.5q0 242 83 420t231 275t342 97q150 0 238.5 -49.5t136 -112t73.5 -102.5h24v244h228zM380 768q0 -164 50.5 -297.5t150 -212t247.5 -78.5q213 0 326.5 163.5
t113.5 424.5q0 258 -112 417t-328 159q-150 0 -249.5 -76.5t-149 -207t-49.5 -292.5z" />
    <glyph glyph-name="r" unicode="r" horiz-adv-x="1088" 
d="M1064 1504l-80 -220q-18 9 -49.5 20.5t-82.5 11.5q-126 0 -214.5 -68.5t-136 -172t-49.5 -207.5v-868h-236v1536h236v-264h16q22 74 80.5 140t140 107t171.5 41q60 0 114 -17.5t90 -38.5z" />
    <glyph glyph-name="s" unicode="s" horiz-adv-x="1460" 
d="M1276 1192l-212 -60q-14 34 -44.5 87t-96 95t-183.5 42q-141 0 -234.5 -66.5t-93.5 -165.5q0 -78 64 -142.5t196 -97.5l228 -56q210 -51 303 -161.5t93 -242.5q0 -118 -67 -222t-197 -169t-320 -65q-184 0 -306 57t-195 146t-111 185l216 80q42 -105 131.5 -184.5
t260.5 -79.5q165 0 256.5 74t91.5 170q0 152 -220 204l-256 64q-210 54 -307 170.5t-97 257.5q0 130 73.5 230t201 157t289.5 57q213 0 344.5 -98t191.5 -266z" />
    <glyph glyph-name="t" unicode="t" horiz-adv-x="1000" 
d="M860 1536v-220h-328v-876q0 -100 29.5 -149.5t76 -66t98.5 -16.5q39 0 64 4.5t40 7.5l48 -212q-24 -9 -67 -18.5t-109 -9.5q-100 0 -195.5 43t-158 131t-62.5 222v940h-232v220h232v328h236v-328h328z" />
    <glyph glyph-name="u" unicode="u" horiz-adv-x="1636" 
d="M1184 608v928h236v-1536h-236v216h-16q-57 -87 -169.5 -161.5t-286.5 -74.5q-112 0 -226.5 61t-192 189t-77.5 330v976h236v-976q0 -168 94.5 -260t241.5 -92q88 0 179.5 40t154 128t62.5 232z" />
    <glyph glyph-name="v" unicode="v" horiz-adv-x="1568" 
d="M1472 1536l-568 -1536h-240l-568 1536h256l424 -1224h16l424 1224h256z" />
    <glyph glyph-name="w" unicode="w" horiz-adv-x="2288" 
d="M2192 1536l-468 -1536h-232l-336 1180h-24l-336 -1180h-232l-468 1536h248l332 -1176h16l328 1176h252l324 -1172h16l332 1172h248z" />
    <glyph glyph-name="x" unicode="x" horiz-adv-x="1520" 
d="M392 1536l368 -628l368 628h272l-496 -768l496 -768h-272l-368 596l-368 -596h-272l488 768l-488 768h272z" />
    <glyph glyph-name="y" unicode="y" horiz-adv-x="1568" 
d="M612 -152l54 142l-570 1546h256l423 -1224h17l424 1224h256l-660 -1784q-130 -348 -452 -348q-60 0 -107 9.5t-65 18.5l60 208q84 -20 149.5 -14t118 57t96.5 165z" />
    <glyph glyph-name="z" unicode="z" horiz-adv-x="1524" 
d="M1364 220v-220h-1188v200l862 1116h-878v220h1184v-188l-860 -1128h880z" />
    <glyph glyph-name="braceleft" unicode="{" horiz-adv-x="928" 
d="M856 -328l-56 -168q-188 54 -283.5 149.5t-128 222t-32.5 272.5v276q0 147 -67 235.5t-217 88.5v208q150 0 217 86.5t67 233.5v280q0 144 32.5 270.5t128 222t283.5 147.5l56 -164q-159 -51 -217.5 -179.5t-58.5 -296.5v-280q0 -136 -42 -247.5t-150 -176.5
q108 -65 150 -177.5t42 -250.5v-276q0 -168 58.5 -296.5t217.5 -179.5z" />
    <glyph glyph-name="bar" unicode="|" horiz-adv-x="748" 
d="M484 2048v-2432h-220v2432h220z" />
    <glyph glyph-name="braceright" unicode="}" horiz-adv-x="928" 
d="M56 -328q159 51 217.5 179.5t58.5 296.5v276q0 138 42 250.5t150 177.5q-108 65 -150 176.5t-42 247.5v280q0 168 -58.5 296.5t-217.5 179.5l56 164q188 -52 283.5 -147.5t128 -222t32.5 -270.5v-280q0 -147 67 -233.5t217 -86.5v-208q-150 0 -217 -88.5t-67 -235.5v-276
q0 -146 -32.5 -272.5t-128 -222t-283.5 -149.5z" />
    <glyph glyph-name="asciitilde" unicode="~" horiz-adv-x="1680" 
d="M1320 1172h220q3 -219 -111.5 -345.5t-288.5 -126.5q-202 0 -360 176q-115 132 -224 132q-81 0 -134 -57t-62 -183h-220q3 219 118 343.5t286 124.5q93 0 179.5 -41t176.5 -131q66 -66 116 -101t116 -35q78 0 133 56t55 188z" />
    <glyph glyph-name="nbspace" unicode="&#xa0;" horiz-adv-x="792" 
 />
    <glyph glyph-name="exclamdown" unicode="&#xa1;" horiz-adv-x="784" 
d="M392 1560q78 0 135 -55.5t57 -136.5t-57 -138.5t-135 -57.5q-81 0 -136.5 57.5t-55.5 138.5t55.5 136.5t136.5 55.5zM528 -520h-272l20 1472h232z" />
    <glyph glyph-name="cent" unicode="&#xa2;" horiz-adv-x="1572" 
d="M1443 1076h-236q-27 105 -119.5 186.5t-248.5 81.5q-207 0 -333.5 -157.5t-126.5 -418.5q0 -267 125 -427.5t335 -160.5q138 0 236.5 71t131.5 197h236q-27 -182 -157 -312.5t-339 -160.5v-311h-220v312q-181 26 -312 132.5t-201.5 275.5t-70.5 384q0 209 72 376
t203 272.5t309 131.5v264h220v-264q200 -29 335 -155.5t161 -316.5z" />
    <glyph glyph-name="sterling" unicode="&#xa3;" horiz-adv-x="1776" 
d="M1108 796h-473l9 -236q5 -100 -11.5 -189t-63.5 -151h971v-220h-1356v220h80q62 0 93 60t41 140t10 140l-8 236h-224v228h217l-13 404q-6 214 79 358t226 217t303 73q142 0 259.5 -51.5t197.5 -138.5t111.5 -195.5t3.5 -222.5l-232 64q14 104 -31.5 176.5t-126 110
t-170.5 37.5q-96 0 -185 -45.5t-146 -140t-57 -242.5l15 -404h481v-228z" />
    <glyph glyph-name="currency" unicode="&#xa4;" horiz-adv-x="2036" 
d="M196 836q0 149 43 281t119 239l-194 200l160 168l195 -198q103 81 228.5 125.5t264.5 44.5q141 0 268.5 -46t230.5 -128l197 202l164 -168l-201 -203q76 -107 118.5 -238.5t42.5 -278.5q0 -141 -39 -268t-109 -232l188 -188l-164 -168l-178 183q-106 -90 -238.5 -140.5
t-279.5 -50.5q-146 0 -276.5 49.5t-235.5 137.5l-176 -179l-160 168l182 184q-71 106 -110.5 233.5t-39.5 270.5zM416 836q0 -176 80.5 -322.5t216 -234t299.5 -87.5t298.5 87.5t214 234t79.5 322.5q0 178 -79.5 324t-214 233t-298.5 87t-299.5 -87t-216 -233t-80.5 -324z
" />
    <glyph glyph-name="yen" unicode="&#xa5;" horiz-adv-x="1544" 
d="M1344 624v-180h-448v-444h-248v444h-448v180h448v204l-6 12h-442v180h352l-512 1028h276l447 -972h18l447 972h276l-512 -1028h352v-180h-442l-6 -12v-204h448z" />
    <glyph glyph-name="brokenbar" unicode="&#xa6;" horiz-adv-x="748" 
d="M484 2048v-932h-220v932h220zM264 552h220v-936h-220v936z" />
    <glyph glyph-name="section" unicode="&#xa7;" horiz-adv-x="1552" 
d="M1272 1564h-228q0 129 -65.5 214.5t-206.5 85.5q-135 0 -197.5 -70.5t-62.5 -145.5q0 -93 72 -163.5t144 -112.5l388 -228q52 -30 120.5 -85t120 -142t51.5 -213q0 -74 -38.5 -148t-102 -131t-139.5 -81v-4q72 -63 106 -145.5t34 -178.5q0 -148 -72 -243.5t-188 -142
t-248 -46.5q-158 0 -281 62.5t-193 178t-70 275.5h232q0 -147 88.5 -225.5t223.5 -78.5q111 0 195.5 54.5t84.5 165.5q0 76 -34 127t-84 86t-98 63l-388 224q-52 30 -120.5 86t-120 144t-51.5 214q0 72 36 147t99 134t145 83v8q-63 63 -101.5 141.5t-38.5 174.5
q0 124 63 220.5t173 152t252 55.5q231 0 365.5 -143.5t134.5 -368.5zM1188 704q0 87 -58 152.5t-130 107.5l-392 228q-44 26 -101.5 1t-100 -87t-42.5 -146q0 -96 58.5 -157.5t133.5 -106.5l372 -216q42 -24 103.5 0t109 83t47.5 141z" />
    <glyph glyph-name="dieresis" unicode="&#xa8;" horiz-adv-x="1648" 
d="M540 1756q-63 0 -111.5 48.5t-48.5 111.5q0 69 48.5 114.5t111.5 45.5q69 0 114.5 -45.5t45.5 -114.5q0 -63 -45.5 -111.5t-114.5 -48.5zM1108 1756q-63 0 -111.5 48.5t-48.5 111.5q0 69 48.5 114.5t111.5 45.5q69 0 114.5 -45.5t45.5 -114.5q0 -63 -45.5 -111.5
t-114.5 -48.5z" />
    <glyph glyph-name="copyright" unicode="&#xa9;" horiz-adv-x="2288" 
d="M168 1004q0 218 76 404.5t211 327t311.5 218.5t377.5 78q202 0 379 -78t311.5 -218.5t210 -327t75.5 -404.5q0 -219 -75.5 -407t-210 -328t-311.5 -218.5t-379 -78.5q-201 0 -377.5 78.5t-311.5 218.5t-211 328t-76 407zM336 1004q0 -183 63 -339.5t174.5 -273.5
t258 -182t312.5 -65q168 0 314.5 65t257.5 182t173.5 273.5t62.5 339.5q0 182 -62.5 337.5t-173.5 272t-257.5 181.5t-314.5 65q-166 0 -312.5 -65t-258 -181.5t-174.5 -272t-63 -337.5zM1372 820h216q0 -216 -125 -324t-335 -108q-222 0 -351 147.5t-129 384.5v164
q0 237 129 384.5t351 147.5q210 0 335 -108t125 -324h-212q0 132 -64 190t-184 58q-132 0 -200 -97.5t-68 -250.5v-164q0 -153 68 -250.5t200 -97.5q120 0 182 56.5t62 191.5z" />
    <glyph glyph-name="ordfeminine" unicode="&#xaa;" horiz-adv-x="1264" 
d="M832 972q-14 45 -22 95q-42 -47 -110.5 -81t-167.5 -34q-165 0 -254.5 85.5t-89.5 226.5q0 153 117.5 236.5t354.5 83.5h140v68q0 176 -160 176q-90 0 -141 -35t-51 -101l-236 20q0 138 116.5 229t311.5 91q180 0 290 -95.5t110 -284.5v-432q0 -66 7.5 -127t28.5 -121
h-244zM592 1152q56 0 113.5 25t94.5 60v187h-140q-120 0 -174 -46t-54 -106q0 -120 160 -120z" />
    <glyph glyph-name="guillemotleft" unicode="&#xab;" horiz-adv-x="1264" 
d="M692 220h-208l-404 600v28l404 600h208l-380 -614zM1204 220h-208l-404 600v28l404 600h208l-380 -614z" />
    <glyph glyph-name="logicalnot" unicode="&#xac;" horiz-adv-x="1520" 
d="M1336 1108v-592h-276v356h-872v236h1148z" />
    <glyph glyph-name="softhyphen" unicode="&#xad;" horiz-adv-x="1296" 
d="M1096 988v-220h-896v220h896z" />
    <glyph glyph-name="registered" unicode="&#xae;" horiz-adv-x="2288" 
d="M168 1004q0 218 76 404.5t211 327t311.5 218.5t377.5 78q202 0 379 -78t311.5 -218.5t210 -327t75.5 -404.5q0 -219 -75.5 -407t-210 -328t-311.5 -218.5t-379 -78.5q-201 0 -377.5 78.5t-311.5 218.5t-211 328t-76 407zM336 1004q0 -183 63 -339.5t174.5 -273.5
t258 -182t312.5 -65q168 0 314.5 65t257.5 182t173.5 273.5t62.5 339.5q0 182 -62.5 337.5t-173.5 272t-257.5 181.5t-314.5 65q-166 0 -312.5 -65t-258 -181.5t-174.5 -272t-63 -337.5zM1164 900h-216v-464h-208v1168h388q204 0 324 -87.5t120 -264.5q0 -170 -174 -258
q95 -38 132.5 -113.5t37.5 -172.5v-76q0 -110 24 -176v-20h-212q-15 33 -17.5 99.5t-2.5 96.5v76q0 96 -44 144t-152 48zM948 1420v-336h208q84 0 148 41t64 119q0 99 -54 137.5t-186 38.5h-180z" />
    <glyph glyph-name="macron" unicode="&#xaf;" horiz-adv-x="1264" 
d="M1104 1988v-204h-940v204h940z" />
    <glyph glyph-name="degree" unicode="&#xb0;" horiz-adv-x="1264" 
d="M632 1076q-126 0 -230.5 62.5t-167 167t-62.5 230.5q0 128 62.5 232.5t167 166t230.5 61.5q128 0 232.5 -61.5t166 -166t61.5 -232.5q0 -126 -61.5 -230.5t-166 -167t-232.5 -62.5zM632 1276q108 0 186 78t78 186t-78 186t-186 78t-186 -78t-78 -186t78 -186t186 -78z
" />
    <glyph glyph-name="plusminus" unicode="&#xb1;" horiz-adv-x="1808" 
d="M1544 1096v-224h-524v-440h-232v440h-524v224h524v440h232v-440h524zM1544 220v-220h-1280v220h1280z" />
    <glyph glyph-name="twosuperior" unicode="&#xb2;" horiz-adv-x="1264" 
d="M1168 1104v-188h-832v156l396 372q93 81 128.5 140t35.5 104q0 63 -42.5 103.5t-117.5 40.5q-99 0 -145.5 -50.5t-46.5 -125.5h-232q0 147 110.5 253.5t305.5 106.5q189 0 294.5 -87.5t105.5 -240.5q0 -108 -70.5 -198t-193.5 -198l-232 -188h536z" />
    <glyph glyph-name="threesuperior" unicode="&#xb3;" horiz-adv-x="1264" 
d="M620 1384v168h116q96 0 142 40.5t46 103.5q0 57 -41 96.5t-131 39.5q-72 0 -120 -33t-48 -87h-232q0 141 115.5 222.5t280.5 81.5q183 0 295.5 -79t112.5 -229q0 -76 -47 -138.5t-136 -96.5q203 -57 203 -253q0 -153 -122.5 -236.5t-305.5 -83.5q-104 0 -197.5 34.5
t-152 106t-58.5 183.5h232q0 -57 50 -96.5t134 -39.5q93 0 140.5 40.5t47.5 103.5q0 84 -56 118t-152 34h-116z" />
    <glyph glyph-name="acute" unicode="&#xb4;" horiz-adv-x="768" 
d="M188 1704l240 408h244l-308 -408h-176z" />
    <glyph glyph-name="mu" unicode="&#xb5;" horiz-adv-x="1636" 
d="M1196 692v844h224v-1536h-196l-18 215q-131 -243 -378 -243q-241 0 -376 230v-774h-236v2108h236v-844q0 -166 54 -272t139 -157t179 -51t179 51t139 157t54 272z" />
    <glyph glyph-name="paragraph" unicode="&#xb6;" horiz-adv-x="1264" 
d="M1168 0h-276v716h-116q-218 0 -369 83.5t-229 229t-78 331.5q0 184 78 329.5t229 230t369 84.5h392v-2004z" />
    <glyph glyph-name="periodcentered" unicode="&#xb7;" horiz-adv-x="784" 
d="M388 876q-75 0 -127.5 52.5t-52.5 127.5t54 125.5t126 50.5q75 0 127.5 -52t52.5 -124q0 -75 -52.5 -127.5t-127.5 -52.5z" />
    <glyph glyph-name="cedilla" unicode="&#xb8;" horiz-adv-x="752" 
d="M284 0h192l-16 -72q78 -12 143 -65.5t65 -170.5q0 -129 -106.5 -210.5t-313.5 -81.5l-8 156q93 0 154.5 29.5t61.5 98.5t-51 94t-165 34z" />
    <glyph glyph-name="onesuperior" unicode="&#xb9;" horiz-adv-x="1008" 
d="M748 2000v-1084h-228v812l-292 -76v188l496 160h24z" />
    <glyph glyph-name="ordmasculine" unicode="&#xba;" horiz-adv-x="1264" 
d="M156 1436v108q0 213 128.5 350.5t347.5 137.5q222 0 349 -137.5t127 -350.5v-108q0 -213 -126.5 -348.5t-345.5 -135.5q-222 0 -351 135.5t-129 348.5zM396 1544v-108q0 -123 60 -203.5t180 -80.5q117 0 174.5 80.5t57.5 203.5v108q0 120 -58 202t-178 82
q-117 0 -176.5 -82t-59.5 -202z" />
    <glyph glyph-name="guillemotright" unicode="&#xbb;" horiz-adv-x="1264" 
d="M4 220l380 614l-380 614h208l404 -600v-28l-404 -600h-208zM516 220l380 614l-380 614h208l404 -600v-28l-404 -600h-208z" />
    <glyph glyph-name="onequarter" unicode="&#xbc;" horiz-adv-x="2288" 
d="M696 1996v-1084h-228v812l-292 -76v188l496 160h24zM1704 1728l-976 -1564l-152 92l976 1568zM2080 420v-188h-144v-232h-232v232h-508l-8 148l512 704h236v-664h144zM1420 420h284v366l-16 -26z" />
    <glyph glyph-name="onehalf" unicode="&#xbd;" horiz-adv-x="2288" 
d="M716 1996v-1084h-228v812l-292 -76v188l496 160h24zM1668 1728l-976 -1564l-152 92l976 1568zM2184 188v-188h-832v156l396 372q93 81 128.5 140t35.5 104q0 63 -42.5 103.5t-117.5 40.5q-99 0 -145.5 -50.5t-46.5 -125.5h-232q0 147 110.5 253.5t305.5 106.5
q189 0 294.5 -87.5t105.5 -240.5q0 -108 -70.5 -198t-193.5 -198l-232 -188h536z" />
    <glyph glyph-name="threequarters" unicode="&#xbe;" horiz-adv-x="2288" 
d="M580 1384v168h116q96 0 142 40.5t46 103.5q0 57 -41 96.5t-131 39.5q-72 0 -120 -33t-48 -87h-232q0 141 115.5 222.5t280.5 81.5q183 0 295.5 -79t112.5 -229q0 -76 -47 -138.5t-136 -96.5q203 -57 203 -253q0 -153 -122.5 -236.5t-305.5 -83.5q-104 0 -197.5 34.5
t-152 106t-58.5 183.5h232q0 -57 50 -96.5t134 -39.5q93 0 140.5 40.5t47.5 103.5q0 84 -56 118t-152 34h-116zM1896 1728l-976 -1564l-152 92l976 1568zM2220 420v-188h-144v-232h-232v232h-508l-8 148l512 704h236v-664h144zM1560 420h284v366l-16 -26z" />
    <glyph glyph-name="questiondown" unicode="&#xbf;" horiz-adv-x="1520" 
d="M852 1564q81 0 136.5 -55.5t55.5 -136.5t-55.5 -138.5t-136.5 -57.5q-78 0 -135 57.5t-57 138.5t57 136.5t135 55.5zM732 956h240q0 -163 -36 -272t-93 -182.5t-121 -127.5t-121 -106t-93 -118.5t-36 -165.5q0 -147 87.5 -233.5t228.5 -86.5q82 0 156 34t121 107t47 191
h252q0 -170 -76.5 -291t-207 -185t-292.5 -64q-176 0 -300.5 70t-190 192t-65.5 278q0 125 36 208.5t93 144t121 114t121 117t93 153t36 223.5z" />
    <glyph glyph-name="Agrave" unicode="&#xc0;" horiz-adv-x="1904" 
d="M840 2640l268 -408h-236l-364 408h332zM332 0h-260l752 2048h256l752 -2048h-260l-193 548h-854zM940 1724l-337 -956h698l-337 956h-24z" />
    <glyph glyph-name="Aacute" unicode="&#xc1;" horiz-adv-x="1904" 
d="M828 2232l240 408h244l-308 -408h-176zM332 0h-260l752 2048h256l752 -2048h-260l-193 548h-854zM940 1724l-337 -956h698l-337 956h-24z" />
    <glyph glyph-name="Acircumflex" unicode="&#xc2;" horiz-adv-x="1904" 
d="M712 2304h-192v16l364 376h136l368 -376v-16h-192l-244 240zM332 0h-260l752 2048h256l752 -2048h-260l-193 548h-854zM940 1724l-337 -956h698l-337 956h-24z" />
    <glyph glyph-name="Atilde" unicode="&#xc3;" horiz-adv-x="1904" 
d="M1264 2632l180 -16q0 -156 -87.5 -248t-216.5 -92q-69 0 -114 19.5t-80 44.5t-74 44.5t-96 19.5t-94.5 -44.5t-37.5 -107.5l-184 8q0 153 87.5 250.5t216.5 97.5q76 0 130.5 -32t108 -64t125.5 -32q57 0 96.5 44.5t39.5 107.5zM332 0h-260l752 2048h256l752 -2048h-260
l-193 548h-854zM940 1724l-337 -956h698l-337 956h-24z" />
    <glyph glyph-name="Adieresis" unicode="&#xc4;" horiz-adv-x="1904" 
d="M668 2268q-63 0 -111.5 48.5t-48.5 111.5q0 69 48.5 114.5t111.5 45.5q69 0 114.5 -45.5t45.5 -114.5q0 -63 -45.5 -111.5t-114.5 -48.5zM1236 2268q-63 0 -111.5 48.5t-48.5 111.5q0 69 48.5 114.5t111.5 45.5q69 0 114.5 -45.5t45.5 -114.5q0 -63 -45.5 -111.5
t-114.5 -48.5zM332 0h-260l752 2048h256l752 -2048h-260l-193 548h-854zM940 1724l-337 -956h698l-337 956h-24z" />
    <glyph glyph-name="Aring" unicode="&#xc5;" horiz-adv-x="1904" 
d="M588 2576q0 96 48.5 176t131 128t184.5 48t183.5 -48t129 -128t47.5 -176q0 -144 -103.5 -242t-256.5 -98q-102 0 -184.5 45t-131 122t-48.5 173zM760 2576q0 -72 54 -130t138 -58t138 58t54 130q0 75 -54 135.5t-138 60.5t-138 -60.5t-54 -135.5zM332 0h-260l752 2048
h256l752 -2048h-260l-193 548h-854zM940 1724l-337 -956h698l-337 956h-24z" />
    <glyph glyph-name="AE" unicode="&#xc6;" horiz-adv-x="2848" 
d="M2692 220v-220h-1204l-23 552h-792l-317 -552h-296l1212 2048h1336v-220h-951l28 -676h811v-220h-802l29 -712h969zM797 768h659l-43 1072z" />
    <glyph glyph-name="Ccedilla" unicode="&#xc7;" horiz-adv-x="2048" 
d="M1896 1408h-248q-30 142 -115 239t-205 147t-256 50q-186 0 -336.5 -94t-239 -277t-88.5 -449t88.5 -449t239 -277t336.5 -94q136 0 256 50t205 147t115 239h248q-35 -193 -137 -335t-253.5 -226t-335.5 -102l-14 -65q78 -12 143 -65.5t65 -170.5q0 -129 -106.5 -210.5
t-313.5 -81.5l-8 156q93 0 154.5 29.5t61.5 98.5t-51 94t-165 34l42 180q-237 23 -420 156.5t-286.5 360.5t-103.5 531q0 324 117 560t321 364t466 128q206 0 379 -79.5t290 -229t155 -359.5z" />
    <glyph glyph-name="Egrave" unicode="&#xc8;" horiz-adv-x="1684" 
d="M776 2640l268 -408h-236l-364 408h332zM1500 220v-220h-1252v2048h1236v-220h-988v-692h884v-220h-884v-696h1004z" />
    <glyph glyph-name="Eacute" unicode="&#xc9;" horiz-adv-x="1684" 
d="M764 2232l240 408h244l-308 -408h-176zM1500 220v-220h-1252v2048h1236v-220h-988v-692h884v-220h-884v-696h1004z" />
    <glyph glyph-name="Ecircumflex" unicode="&#xca;" horiz-adv-x="1684" 
d="M648 2304h-192v16l364 376h136l368 -376v-16h-192l-244 240zM1500 220v-220h-1252v2048h1236v-220h-988v-692h884v-220h-884v-696h1004z" />
    <glyph glyph-name="Edieresis" unicode="&#xcb;" horiz-adv-x="1684" 
d="M604 2268q-63 0 -111.5 48.5t-48.5 111.5q0 69 48.5 114.5t111.5 45.5q69 0 114.5 -45.5t45.5 -114.5q0 -63 -45.5 -111.5t-114.5 -48.5zM1172 2268q-63 0 -111.5 48.5t-48.5 111.5q0 69 48.5 114.5t111.5 45.5q69 0 114.5 -45.5t45.5 -114.5q0 -63 -45.5 -111.5
t-114.5 -48.5zM1500 220v-220h-1252v2048h1236v-220h-988v-692h884v-220h-884v-696h1004z" />
    <glyph glyph-name="Igrave" unicode="&#xcc;" horiz-adv-x="744" 
d="M244 2640l268 -408h-236l-364 408h332zM496 2048v-2048h-248v2048h248z" />
    <glyph glyph-name="Iacute" unicode="&#xcd;" horiz-adv-x="744" 
d="M232 2232l240 408h244l-308 -408h-176zM496 2048v-2048h-248v2048h248z" />
    <glyph glyph-name="Icircumflex" unicode="&#xce;" horiz-adv-x="744" 
d="M116 2304h-192v16l364 376h136l368 -376v-16h-192l-244 240zM496 2048v-2048h-248v2048h248z" />
    <glyph glyph-name="Idieresis" unicode="&#xcf;" horiz-adv-x="848" 
d="M140 2268q-63 0 -111.5 48.5t-48.5 111.5q0 69 48.5 114.5t111.5 45.5q69 0 114.5 -45.5t45.5 -114.5q0 -63 -45.5 -111.5t-114.5 -48.5zM708 2268q-63 0 -111.5 48.5t-48.5 111.5q0 69 48.5 114.5t111.5 45.5q69 0 114.5 -45.5t45.5 -114.5q0 -63 -45.5 -111.5
t-114.5 -48.5zM544 2048v-2048h-248v2048h248z" />
    <glyph glyph-name="Eth" unicode="&#xd0;" horiz-adv-x="2054" 
d="M910 0h-632v936h-240v184h240v928h660q298 0 510 -122.5t325 -351t113 -546.5q0 -320 -114 -550.5t-332 -354t-530 -123.5zM918 1120v-184h-392v-716h368q381 0 566.5 216.5t185.5 591.5q0 372 -182 586t-542 214h-396v-708h392z" />
    <glyph glyph-name="Ntilde" unicode="&#xd1;" horiz-adv-x="2080" 
d="M1344 2612l180 -16q0 -156 -87.5 -248t-216.5 -92q-69 0 -114 19.5t-80 44.5t-74 44.5t-96 19.5t-94.5 -44.5t-37.5 -107.5l-184 8q0 153 87.5 250.5t216.5 97.5q76 0 130.5 -32t108 -64t125.5 -32q57 0 96.5 44.5t39.5 107.5zM1832 2048v-2048h-240l-1076 1604h-20
v-1604h-248v2048h240l1080 -1612h20v1612h244z" />
    <glyph glyph-name="Ograve" unicode="&#xd2;" horiz-adv-x="2144" 
d="M960 2640l268 -408h-236l-364 408h332zM1976 1024q0 -324 -117 -560t-321 -364t-466 -128t-466 128t-321 364t-117 560t117 560t321 364t466 128t466 -128t321 -364t117 -560zM1736 1024q0 266 -88.5 449t-239 277t-336.5 94t-336.5 -94t-239 -277t-88.5 -449t88.5 -449
t239 -277t336.5 -94t336.5 94t239 277t88.5 449z" />
    <glyph glyph-name="Oacute" unicode="&#xd3;" horiz-adv-x="2144" 
d="M948 2232l240 408h244l-308 -408h-176zM1976 1024q0 -324 -117 -560t-321 -364t-466 -128t-466 128t-321 364t-117 560t117 560t321 364t466 128t466 -128t321 -364t117 -560zM1736 1024q0 266 -88.5 449t-239 277t-336.5 94t-336.5 -94t-239 -277t-88.5 -449t88.5 -449
t239 -277t336.5 -94t336.5 94t239 277t88.5 449z" />
    <glyph glyph-name="Ocircumflex" unicode="&#xd4;" horiz-adv-x="2144" 
d="M832 2304h-192v16l364 376h136l368 -376v-16h-192l-244 240zM1976 1024q0 -324 -117 -560t-321 -364t-466 -128t-466 128t-321 364t-117 560t117 560t321 364t466 128t466 -128t321 -364t117 -560zM1736 1024q0 266 -88.5 449t-239 277t-336.5 94t-336.5 -94t-239 -277
t-88.5 -449t88.5 -449t239 -277t336.5 -94t336.5 94t239 277t88.5 449z" />
    <glyph glyph-name="Otilde" unicode="&#xd5;" horiz-adv-x="2144" 
d="M1384 2632l180 -16q0 -156 -87.5 -248t-216.5 -92q-69 0 -114 19.5t-80 44.5t-74 44.5t-96 19.5t-94.5 -44.5t-37.5 -107.5l-184 8q0 153 87.5 250.5t216.5 97.5q76 0 130.5 -32t108 -64t125.5 -32q57 0 96.5 44.5t39.5 107.5zM1976 1024q0 -324 -117 -560t-321 -364
t-466 -128t-466 128t-321 364t-117 560t117 560t321 364t466 128t466 -128t321 -364t117 -560zM1736 1024q0 266 -88.5 449t-239 277t-336.5 94t-336.5 -94t-239 -277t-88.5 -449t88.5 -449t239 -277t336.5 -94t336.5 94t239 277t88.5 449z" />
    <glyph glyph-name="Odieresis" unicode="&#xd6;" horiz-adv-x="2144" 
d="M788 2268q-63 0 -111.5 48.5t-48.5 111.5q0 69 48.5 114.5t111.5 45.5q69 0 114.5 -45.5t45.5 -114.5q0 -63 -45.5 -111.5t-114.5 -48.5zM1356 2268q-63 0 -111.5 48.5t-48.5 111.5q0 69 48.5 114.5t111.5 45.5q69 0 114.5 -45.5t45.5 -114.5q0 -63 -45.5 -111.5
t-114.5 -48.5zM1976 1024q0 -324 -117 -560t-321 -364t-466 -128t-466 128t-321 364t-117 560t117 560t321 364t466 128t466 -128t321 -364t117 -560zM1736 1024q0 266 -88.5 449t-239 277t-336.5 94t-336.5 -94t-239 -277t-88.5 -449t88.5 -449t239 -277t336.5 -94
t336.5 94t239 277t88.5 449z" />
    <glyph glyph-name="multiply" unicode="&#xd7;" horiz-adv-x="1808" 
d="M452 280l-152 156l451 460l-467 476l152 156l468 -477l468 477l152 -156l-467 -476l451 -460l-152 -156l-452 460z" />
    <glyph glyph-name="Oslash" unicode="&#xd8;" horiz-adv-x="2144" 
d="M432 -84l-152 104l152 225q-124 137 -194 334.5t-70 444.5q0 324 117 560t321 364t466 128q282 0 497 -148l135 200l152 -104l-147 -218q125 -137 196 -335t71 -447q0 -324 -117 -560t-321 -364t-466 -128q-284 0 -500 151zM408 1024q0 -183 43.5 -326.5t119.5 -246.5
l865 1281q-157 112 -364 112q-186 0 -336.5 -94t-239 -277t-88.5 -449zM1736 1024q0 184 -44 329t-122 248l-866 -1282q159 -115 368 -115q186 0 336.5 94t239 277t88.5 449z" />
    <glyph glyph-name="Ugrave" unicode="&#xd9;" horiz-adv-x="2088" 
d="M932 2640l268 -408h-236l-364 408h332zM1592 2048h248v-1356q0 -230 -109 -393t-290 -249t-397 -86t-397 86t-290 249t-109 393v1356h248v-1356q0 -160 76 -270.5t201 -168t271 -57.5t271 57.5t201 168t76 270.5v1356z" />
    <glyph glyph-name="Uacute" unicode="&#xda;" horiz-adv-x="2088" 
d="M920 2232l240 408h244l-308 -408h-176zM1592 2048h248v-1356q0 -230 -109 -393t-290 -249t-397 -86t-397 86t-290 249t-109 393v1356h248v-1356q0 -160 76 -270.5t201 -168t271 -57.5t271 57.5t201 168t76 270.5v1356z" />
    <glyph glyph-name="Ucircumflex" unicode="&#xdb;" horiz-adv-x="2088" 
d="M804 2304h-192v16l364 376h136l368 -376v-16h-192l-244 240zM1592 2048h248v-1356q0 -230 -109 -393t-290 -249t-397 -86t-397 86t-290 249t-109 393v1356h248v-1356q0 -160 76 -270.5t201 -168t271 -57.5t271 57.5t201 168t76 270.5v1356z" />
    <glyph glyph-name="Udieresis" unicode="&#xdc;" horiz-adv-x="2088" 
d="M760 2268q-63 0 -111.5 48.5t-48.5 111.5q0 69 48.5 114.5t111.5 45.5q69 0 114.5 -45.5t45.5 -114.5q0 -63 -45.5 -111.5t-114.5 -48.5zM1328 2268q-63 0 -111.5 48.5t-48.5 111.5q0 69 48.5 114.5t111.5 45.5q69 0 114.5 -45.5t45.5 -114.5q0 -63 -45.5 -111.5
t-114.5 -48.5zM1592 2048h248v-1356q0 -230 -109 -393t-290 -249t-397 -86t-397 86t-290 249t-109 393v1356h248v-1356q0 -160 76 -270.5t201 -168t271 -57.5t271 57.5t201 168t76 270.5v1356z" />
    <glyph glyph-name="Yacute" unicode="&#xdd;" horiz-adv-x="1880" 
d="M816 2232l240 408h244l-308 -408h-176zM360 2048l568 -956h24l568 956h284l-740 -1204v-844h-248v844l-740 1204h284z" />
    <glyph glyph-name="Thorn" unicode="&#xde;" horiz-adv-x="1776" 
d="M232 2048h248v-424h396q218 0 369 -79.5t229 -213t78 -295.5t-78 -295.5t-229 -213t-369 -79.5h-396v-448h-248v2048zM876 1404h-396v-736h396q213 0 326.5 95t113.5 269t-113.5 273t-326.5 99z" />
    <glyph glyph-name="germandbls" unicode="&#xdf;" horiz-adv-x="1664" 
d="M452 1524v-1524h-236v1524q0 306 142.5 461t373.5 155q120 0 239 -45.5t198 -149t79 -277.5q0 -105 -28 -179t-64 -131.5t-64 -111.5t-28 -118q0 -83 48.5 -139t120 -103t143 -103t120 -137t48.5 -206q0 -240 -147.5 -354t-384.5 -114q-141 0 -254.5 35t-173.5 77l96 196
q45 -27 128 -63.5t176 -36.5q177 0 252.5 79.5t75.5 172.5q0 89 -49.5 153t-122 118t-145 111.5t-122 132t-49.5 181.5q0 86 30 151.5t70 124.5t70 121.5t30 142.5q0 135 -90.5 195.5t-201.5 60.5q-144 0 -212 -98t-68 -302z" />
    <glyph glyph-name="agrave" unicode="&#xe0;" horiz-adv-x="1588" 
d="M692 2128l268 -408h-236l-364 408h332zM1136 0v208h-12q-24 -50 -80 -107t-149 -97t-227 -40q-146 0 -265 55.5t-189 161t-70 255.5q0 130 52 213t138 130t192 71t214 38q106 14 196 22t145 28t55 70v4q0 192 -91 264t-229 72q-171 0 -268 -74t-136 -158l-224 80
q60 140 160.5 218.5t220 110t235.5 31.5q74 0 170.5 -17.5t187 -71.5t150.5 -163t60 -292v-1012h-236zM1136 556v216q-15 -18 -65.5 -32.5t-116 -25t-127 -18.5t-99.5 -12q-92 -12 -171.5 -38.5t-128 -79t-48.5 -142.5q0 -123 91.5 -185.5t232.5 -62.5q140 0 236.5 55
t146 142t49.5 183z" />
    <glyph glyph-name="aacute" unicode="&#xe1;" horiz-adv-x="1588" 
d="M680 1720l240 408h244l-308 -408h-176zM1136 0v208h-12q-24 -50 -80 -107t-149 -97t-227 -40q-146 0 -265 55.5t-189 161t-70 255.5q0 130 52 213t138 130t192 71t214 38q106 14 196 22t145 28t55 70v4q0 192 -91 264t-229 72q-171 0 -268 -74t-136 -158l-224 80
q60 140 160.5 218.5t220 110t235.5 31.5q74 0 170.5 -17.5t187 -71.5t150.5 -163t60 -292v-1012h-236zM1136 556v216q-15 -18 -65.5 -32.5t-116 -25t-127 -18.5t-99.5 -12q-92 -12 -171.5 -38.5t-128 -79t-48.5 -142.5q0 -123 91.5 -185.5t232.5 -62.5q140 0 236.5 55
t146 142t49.5 183z" />
    <glyph glyph-name="acircumflex" unicode="&#xe2;" horiz-adv-x="1588" 
d="M564 1792h-192v16l364 376h136l368 -376v-16h-192l-244 240zM1136 0v208h-12q-24 -50 -80 -107t-149 -97t-227 -40q-146 0 -265 55.5t-189 161t-70 255.5q0 130 52 213t138 130t192 71t214 38q106 14 196 22t145 28t55 70v4q0 192 -91 264t-229 72q-171 0 -268 -74
t-136 -158l-224 80q60 140 160.5 218.5t220 110t235.5 31.5q74 0 170.5 -17.5t187 -71.5t150.5 -163t60 -292v-1012h-236zM1136 556v216q-15 -18 -65.5 -32.5t-116 -25t-127 -18.5t-99.5 -12q-92 -12 -171.5 -38.5t-128 -79t-48.5 -142.5q0 -123 91.5 -185.5t232.5 -62.5
q140 0 236.5 55t146 142t49.5 183z" />
    <glyph glyph-name="atilde" unicode="&#xe3;" horiz-adv-x="1588" 
d="M1072 2100l180 -16q0 -156 -87.5 -248t-216.5 -92q-69 0 -114 19.5t-80 44.5t-74 44.5t-96 19.5t-94.5 -44.5t-37.5 -107.5l-184 8q0 153 87.5 250.5t216.5 97.5q76 0 130.5 -32t108 -64t125.5 -32q57 0 96.5 44.5t39.5 107.5zM1136 0v208h-12q-24 -50 -80 -107t-149 -97
t-227 -40q-146 0 -265 55.5t-189 161t-70 255.5q0 130 52 213t138 130t192 71t214 38q106 14 196 22t145 28t55 70v4q0 192 -91 264t-229 72q-171 0 -268 -74t-136 -158l-224 80q60 140 160.5 218.5t220 110t235.5 31.5q74 0 170.5 -17.5t187 -71.5t150.5 -163t60 -292
v-1012h-236zM1136 556v216q-15 -18 -65.5 -32.5t-116 -25t-127 -18.5t-99.5 -12q-92 -12 -171.5 -38.5t-128 -79t-48.5 -142.5q0 -123 91.5 -185.5t232.5 -62.5q140 0 236.5 55t146 142t49.5 183z" />
    <glyph glyph-name="adieresis" unicode="&#xe4;" horiz-adv-x="1588" 
d="M496 1756q-63 0 -111.5 48.5t-48.5 111.5q0 69 48.5 114.5t111.5 45.5q69 0 114.5 -45.5t45.5 -114.5q0 -63 -45.5 -111.5t-114.5 -48.5zM1064 1756q-63 0 -111.5 48.5t-48.5 111.5q0 69 48.5 114.5t111.5 45.5q69 0 114.5 -45.5t45.5 -114.5q0 -63 -45.5 -111.5
t-114.5 -48.5zM1136 0v208h-12q-24 -50 -80 -107t-149 -97t-227 -40q-146 0 -265 55.5t-189 161t-70 255.5q0 130 52 213t138 130t192 71t214 38q106 14 196 22t145 28t55 70v4q0 192 -91 264t-229 72q-171 0 -268 -74t-136 -158l-224 80q60 140 160.5 218.5t220 110
t235.5 31.5q74 0 170.5 -17.5t187 -71.5t150.5 -163t60 -292v-1012h-236zM1136 556v216q-15 -18 -65.5 -32.5t-116 -25t-127 -18.5t-99.5 -12q-92 -12 -171.5 -38.5t-128 -79t-48.5 -142.5q0 -123 91.5 -185.5t232.5 -62.5q140 0 236.5 55t146 142t49.5 183z" />
    <glyph glyph-name="aring" unicode="&#xe5;" horiz-adv-x="1588" 
d="M440 2064q0 96 48.5 176t131 128t184.5 48t183.5 -48t129 -128t47.5 -176q0 -144 -103.5 -242t-256.5 -98q-102 0 -184.5 45t-131 122t-48.5 173zM612 2064q0 -72 54 -130t138 -58t138 58t54 130q0 75 -54 135.5t-138 60.5t-138 -60.5t-54 -135.5zM1136 0v208h-12
q-24 -50 -80 -107t-149 -97t-227 -40q-146 0 -265 55.5t-189 161t-70 255.5q0 130 52 213t138 130t192 71t214 38q106 14 196 22t145 28t55 70v4q0 192 -91 264t-229 72q-171 0 -268 -74t-136 -158l-224 80q60 140 160.5 218.5t220 110t235.5 31.5q74 0 170.5 -17.5
t187 -71.5t150.5 -163t60 -292v-1012h-236zM1136 556v216q-15 -18 -65.5 -32.5t-116 -25t-127 -18.5t-99.5 -12q-92 -12 -171.5 -38.5t-128 -79t-48.5 -142.5q0 -123 91.5 -185.5t232.5 -62.5q140 0 236.5 55t146 142t49.5 183z" />
    <glyph glyph-name="ae" unicode="&#xe6;" horiz-adv-x="2604" 
d="M188 1196q60 140 160.5 218.5t220 110t235.5 31.5q200 0 323 -76t168 -185q82 124 209 192.5t296 68.5q120 0 237 -40t213 -129.5t153 -237t57 -361.5v-80l-1106 -86q31 -217 153 -329.5t317 -112.5q141 0 240 60t144 180l228 -64q-54 -174 -216 -281t-396 -107
q-218 0 -365.5 95.5t-222.5 264.5h-8q-6 -40 -43.5 -101t-107.5 -121.5t-172 -101t-237 -40.5q-146 0 -265 55.5t-189 161t-70 255.5q0 130 52 213t138 130t192 71t214 38q106 14 196 22t145 28t55 70v4q0 192 -91 264t-229 72q-171 0 -268 -74t-136 -158zM1800 1344
q-190 0 -315 -136t-139 -383l874 67q0 195 -114 323.5t-306 128.5zM1136 556v216q-15 -18 -65.5 -32.5t-116 -25t-127 -18.5t-99.5 -12q-92 -12 -171.5 -38.5t-128 -79t-48.5 -142.5q0 -123 91.5 -185.5t232.5 -62.5q140 0 236.5 55t146 142t49.5 183z" />
    <glyph glyph-name="ccedilla" unicode="&#xe7;" horiz-adv-x="1572" 
d="M1444 1076h-236q-27 105 -119.5 186.5t-248.5 81.5q-207 0 -333.5 -157.5t-126.5 -418.5q0 -267 125 -427.5t335 -160.5q138 0 236.5 71t131.5 197h236q-27 -186 -163 -318.5t-355 -156.5l-10 -45q78 -12 143 -65.5t65 -170.5q0 -129 -106.5 -210.5t-313.5 -81.5l-8 156
q93 0 154.5 29.5t61.5 98.5t-51 94t-165 34l38 163q-183 25 -315 131t-203.5 276t-71.5 386q0 230 86.5 408t242 279t363.5 101q162 0 292 -60t213 -168t103 -252z" />
    <glyph glyph-name="egrave" unicode="&#xe8;" horiz-adv-x="1644" 
d="M724 2128l268 -408h-236l-364 408h332zM860 -32q-222 0 -382.5 98.5t-247 276t-86.5 413.5t86.5 416.5t242 282t363.5 101.5q120 0 237 -40t213 -129.5t153 -237t57 -361.5v-100h-1113q18 -249 143 -378.5t334 -129.5q141 0 240 60t144 180l228 -64q-54 -174 -216 -281
t-396 -107zM836 1344q-177 0 -298 -118t-150 -334h868q0 195 -114 323.5t-306 128.5z" />
    <glyph glyph-name="eacute" unicode="&#xe9;" horiz-adv-x="1644" 
d="M712 1720l240 408h244l-308 -408h-176zM860 -32q-222 0 -382.5 98.5t-247 276t-86.5 413.5t86.5 416.5t242 282t363.5 101.5q120 0 237 -40t213 -129.5t153 -237t57 -361.5v-100h-1113q18 -249 143 -378.5t334 -129.5q141 0 240 60t144 180l228 -64q-54 -174 -216 -281
t-396 -107zM836 1344q-177 0 -298 -118t-150 -334h868q0 195 -114 323.5t-306 128.5z" />
    <glyph glyph-name="ecircumflex" unicode="&#xea;" horiz-adv-x="1644" 
d="M596 1792h-192v16l364 376h136l368 -376v-16h-192l-244 240zM860 -32q-222 0 -382.5 98.5t-247 276t-86.5 413.5t86.5 416.5t242 282t363.5 101.5q120 0 237 -40t213 -129.5t153 -237t57 -361.5v-100h-1113q18 -249 143 -378.5t334 -129.5q141 0 240 60t144 180l228 -64
q-54 -174 -216 -281t-396 -107zM836 1344q-177 0 -298 -118t-150 -334h868q0 195 -114 323.5t-306 128.5z" />
    <glyph glyph-name="edieresis" unicode="&#xeb;" horiz-adv-x="1640" 
d="M536 1756q-63 0 -111.5 48.5t-48.5 111.5q0 69 48.5 114.5t111.5 45.5q69 0 114.5 -45.5t45.5 -114.5q0 -63 -45.5 -111.5t-114.5 -48.5zM1104 1756q-63 0 -111.5 48.5t-48.5 111.5q0 69 48.5 114.5t111.5 45.5q69 0 114.5 -45.5t45.5 -114.5q0 -63 -45.5 -111.5
t-114.5 -48.5zM860 -32q-222 0 -382.5 98.5t-247 276t-86.5 413.5t86.5 416.5t242 282t363.5 101.5q120 0 237 -40t213 -129.5t153 -237t57 -361.5v-100h-1113q18 -249 143 -378.5t334 -129.5q141 0 240 60t144 180l228 -64q-54 -174 -216 -281t-396 -107zM836 1344
q-177 0 -298 -118t-150 -334h868q0 195 -114 323.5t-306 128.5z" />
    <glyph glyph-name="igrave" unicode="&#xec;" horiz-adv-x="668" 
d="M232 2132l268 -408h-236l-364 408h332zM452 1536v-1536h-236v1536h236z" />
    <glyph glyph-name="iacute" unicode="&#xed;" horiz-adv-x="668" 
d="M220 1724l240 408h244l-308 -408h-176zM452 1536v-1536h-236v1536h236z" />
    <glyph glyph-name="icircumflex" unicode="&#xee;" horiz-adv-x="668" 
d="M104 1796h-192v16l364 376h136l368 -376v-16h-192l-244 240zM452 1536v-1536h-236v1536h236z" />
    <glyph glyph-name="idieresis" unicode="&#xef;" horiz-adv-x="688" 
d="M60 1756q-63 0 -111.5 48.5t-48.5 111.5q0 69 48.5 114.5t111.5 45.5q69 0 114.5 -45.5t45.5 -114.5q0 -63 -45.5 -111.5t-114.5 -48.5zM628 1756q-63 0 -111.5 48.5t-48.5 111.5q0 69 48.5 114.5t111.5 45.5q69 0 114.5 -45.5t45.5 -114.5q0 -63 -45.5 -111.5
t-114.5 -48.5zM460 1536v-1536h-236v1536h236z" />
    <glyph glyph-name="eth" unicode="&#xf0;" horiz-adv-x="1632" 
d="M816 -32q-206 0 -357 95t-233 261t-82 380q0 218 82 384t221 259t309 93q116 0 203 -40t147 -100t94 -120h20q-43 120 -126.5 262.5t-229.5 281.5l-356 -172l-68 148l287 139q-59 44 -126.5 86.5t-144.5 82.5l104 168q91 -47 182 -108t178 -136l340 164l68 -148
l-281 -136q189 -197 315 -463.5t126 -596.5q0 -248 -84 -423.5t-235 -268t-353 -92.5zM816 180q146 0 245 68t149 183t50 257q0 130 -45 258t-143 213t-256 85q-146 0 -243 -75t-145 -198t-48 -267q0 -136 45 -255.5t141 -194t250 -74.5z" />
    <glyph glyph-name="ntilde" unicode="&#xf1;" horiz-adv-x="1636" 
d="M1076 2100l180 -16q0 -156 -87.5 -248t-216.5 -92q-69 0 -114 19.5t-80 44.5t-74 44.5t-96 19.5t-94.5 -44.5t-37.5 -107.5l-184 8q0 153 87.5 250.5t216.5 97.5q76 0 130.5 -32t108 -64t125.5 -32q57 0 96.5 44.5t39.5 107.5zM452 908v-908h-236v1536h236v-260h16
q54 117 168 198.5t288 81.5q216 0 356 -143t140 -437v-976h-236v960q0 168 -94.5 268t-241.5 100q-88 0 -179.5 -45t-154 -138t-62.5 -237z" />
    <glyph glyph-name="ograve" unicode="&#xf2;" horiz-adv-x="1680" 
d="M728 2128l268 -408h-236l-364 408h332zM840 -32q-208 0 -364.5 99t-244 277t-87.5 416q0 240 87.5 419t244 278t364.5 99t364.5 -99t244 -278t87.5 -419q0 -238 -87.5 -416t-244 -277t-364.5 -99zM840 180q158 0 260 81t151 213t49 286t-49 287t-151 215t-260 82
t-260 -82t-151 -215t-49 -287t49 -286t151 -213t260 -81z" />
    <glyph glyph-name="oacute" unicode="&#xf3;" horiz-adv-x="1680" 
d="M716 1720l240 408h244l-308 -408h-176zM840 -32q-208 0 -364.5 99t-244 277t-87.5 416q0 240 87.5 419t244 278t364.5 99t364.5 -99t244 -278t87.5 -419q0 -238 -87.5 -416t-244 -277t-364.5 -99zM840 180q158 0 260 81t151 213t49 286t-49 287t-151 215t-260 82
t-260 -82t-151 -215t-49 -287t49 -286t151 -213t260 -81z" />
    <glyph glyph-name="ocircumflex" unicode="&#xf4;" horiz-adv-x="1680" 
d="M600 1792h-192v16l364 376h136l368 -376v-16h-192l-244 240zM840 -32q-208 0 -364.5 99t-244 277t-87.5 416q0 240 87.5 419t244 278t364.5 99t364.5 -99t244 -278t87.5 -419q0 -238 -87.5 -416t-244 -277t-364.5 -99zM840 180q158 0 260 81t151 213t49 286t-49 287
t-151 215t-260 82t-260 -82t-151 -215t-49 -287t49 -286t151 -213t260 -81z" />
    <glyph glyph-name="otilde" unicode="&#xf5;" horiz-adv-x="1680" 
d="M1152 2100l180 -16q0 -156 -87.5 -248t-216.5 -92q-69 0 -114 19.5t-80 44.5t-74 44.5t-96 19.5t-94.5 -44.5t-37.5 -107.5l-184 8q0 153 87.5 250.5t216.5 97.5q76 0 130.5 -32t108 -64t125.5 -32q57 0 96.5 44.5t39.5 107.5zM840 -32q-208 0 -364.5 99t-244 277
t-87.5 416q0 240 87.5 419t244 278t364.5 99t364.5 -99t244 -278t87.5 -419q0 -238 -87.5 -416t-244 -277t-364.5 -99zM840 180q158 0 260 81t151 213t49 286t-49 287t-151 215t-260 82t-260 -82t-151 -215t-49 -287t49 -286t151 -213t260 -81z" />
    <glyph glyph-name="odieresis" unicode="&#xf6;" horiz-adv-x="1680" 
d="M556 1756q-63 0 -111.5 48.5t-48.5 111.5q0 69 48.5 114.5t111.5 45.5q69 0 114.5 -45.5t45.5 -114.5q0 -63 -45.5 -111.5t-114.5 -48.5zM1124 1756q-63 0 -111.5 48.5t-48.5 111.5q0 69 48.5 114.5t111.5 45.5q69 0 114.5 -45.5t45.5 -114.5q0 -63 -45.5 -111.5
t-114.5 -48.5zM840 -32q-208 0 -364.5 99t-244 277t-87.5 416q0 240 87.5 419t244 278t364.5 99t364.5 -99t244 -278t87.5 -419q0 -238 -87.5 -416t-244 -277t-364.5 -99zM840 180q158 0 260 81t151 213t49 286t-49 287t-151 215t-260 82t-260 -82t-151 -215t-49 -287
t49 -286t151 -213t260 -81z" />
    <glyph glyph-name="divide" unicode="&#xf7;" horiz-adv-x="1808" 
d="M736 1408q0 69 42 114.5t126 45.5q81 0 124.5 -45.5t43.5 -114.5q0 -66 -43.5 -111t-124.5 -45q-84 0 -126 45t-42 111zM1544 1008v-220h-1280v220h1280zM736 380q0 69 42 116.5t126 47.5q81 0 124.5 -47.5t43.5 -116.5q0 -66 -43.5 -111t-124.5 -45q-84 0 -126 45
t-42 111z" />
    <glyph glyph-name="oslash" unicode="&#xf8;" horiz-adv-x="1680" 
d="M380 -84l-152 104l110 163q-92 104 -143 250.5t-51 326.5q0 240 87.5 419t244 278t364.5 99q203 0 360 -96l100 148l152 -104l-110 -163q92 -105 143 -252.5t51 -328.5q0 -238 -87.5 -416t-244 -277t-364.5 -99q-202 0 -360 96zM380 760q0 -106 23 -203t70 -174l604 894
q-101 67 -237 67q-158 0 -260 -82t-151 -215t-49 -287zM840 180q158 0 260 81t151 213t49 286q0 106 -23 204t-71 176l-603 -894q101 -66 237 -66z" />
    <glyph glyph-name="ugrave" unicode="&#xf9;" horiz-adv-x="1636" 
d="M708 2128l268 -408h-236l-364 408h332zM1184 608v928h236v-1536h-236v216h-16q-57 -87 -169.5 -161.5t-286.5 -74.5q-112 0 -226.5 61t-192 189t-77.5 330v976h236v-976q0 -168 94.5 -260t241.5 -92q88 0 179.5 40t154 128t62.5 232z" />
    <glyph glyph-name="uacute" unicode="&#xfa;" horiz-adv-x="1636" 
d="M696 1720l240 408h244l-308 -408h-176zM1184 608v928h236v-1536h-236v216h-16q-57 -87 -169.5 -161.5t-286.5 -74.5q-112 0 -226.5 61t-192 189t-77.5 330v976h236v-976q0 -168 94.5 -260t241.5 -92q88 0 179.5 40t154 128t62.5 232z" />
    <glyph glyph-name="ucircumflex" unicode="&#xfb;" horiz-adv-x="1636" 
d="M580 1792h-192v16l364 376h136l368 -376v-16h-192l-244 240zM1184 608v928h236v-1536h-236v216h-16q-57 -87 -169.5 -161.5t-286.5 -74.5q-112 0 -226.5 61t-192 189t-77.5 330v976h236v-976q0 -168 94.5 -260t241.5 -92q88 0 179.5 40t154 128t62.5 232z" />
    <glyph glyph-name="udieresis" unicode="&#xfc;" horiz-adv-x="1636" 
d="M532 1756q-63 0 -111.5 48.5t-48.5 111.5q0 69 48.5 114.5t111.5 45.5q69 0 114.5 -45.5t45.5 -114.5q0 -63 -45.5 -111.5t-114.5 -48.5zM1100 1756q-63 0 -111.5 48.5t-48.5 111.5q0 69 48.5 114.5t111.5 45.5q69 0 114.5 -45.5t45.5 -114.5q0 -63 -45.5 -111.5
t-114.5 -48.5zM1184 608v928h236v-1536h-236v216h-16q-57 -87 -169.5 -161.5t-286.5 -74.5q-112 0 -226.5 61t-192 189t-77.5 330v976h236v-976q0 -168 94.5 -260t241.5 -92q88 0 179.5 40t154 128t62.5 232z" />
    <glyph glyph-name="yacute" unicode="&#xfd;" horiz-adv-x="1568" 
d="M656 1720l240 408h244l-308 -408h-176zM612 -152l54 142l-570 1546h256l423 -1224h17l424 1224h256l-660 -1784q-130 -348 -452 -348q-60 0 -107 9.5t-65 18.5l60 208q84 -20 149.5 -14t118 57t96.5 165z" />
    <glyph glyph-name="thorn" unicode="&#xfe;" horiz-adv-x="1716" 
d="M216 2048h236v-756h20q26 40 72.5 102.5t134 112t237.5 49.5q194 0 342 -97t231 -275t83 -420q0 -244 -83 -422.5t-230 -276t-339 -97.5q-148 0 -237 49.5t-137 113t-74 105.5h-20v-812h-236v2624zM1336 768q0 162 -49.5 292.5t-149 207t-249.5 76.5q-216 0 -328 -159
t-112 -417q0 -261 113.5 -424.5t326.5 -163.5q148 0 247.5 78.5t150 212t50.5 297.5z" />
    <glyph glyph-name="ydieresis" unicode="&#xff;" horiz-adv-x="1520" 
d="M476 1756q-63 0 -111.5 48.5t-48.5 111.5q0 69 48.5 114.5t111.5 45.5q69 0 114.5 -45.5t45.5 -114.5q0 -63 -45.5 -111.5t-114.5 -48.5zM1044 1756q-63 0 -111.5 48.5t-48.5 111.5q0 69 48.5 114.5t111.5 45.5q69 0 114.5 -45.5t45.5 -114.5q0 -63 -45.5 -111.5
t-114.5 -48.5zM612 -152l54 142l-570 1546h256l423 -1224h17l424 1224h256l-660 -1784q-130 -348 -452 -348q-60 0 -107 9.5t-65 18.5l60 208q84 -20 149.5 -14t118 57t96.5 165z" />
    <glyph glyph-name="Amacron" unicode="&#x100;" horiz-adv-x="1904" 
d="M1432 2528v-204h-940v204h940zM332 0h-260l752 2048h256l752 -2048h-260l-193 548h-854zM940 1724l-337 -956h698l-337 956h-24z" />
    <glyph glyph-name="amacron" unicode="&#x101;" horiz-adv-x="1588" 
d="M1284 2016v-204h-940v204h940zM1136 0v208h-12q-24 -50 -80 -107t-149 -97t-227 -40q-146 0 -265 55.5t-189 161t-70 255.5q0 130 52 213t138 130t192 71t214 38q106 14 196 22t145 28t55 70v4q0 192 -91 264t-229 72q-171 0 -268 -74t-136 -158l-224 80
q60 140 160.5 218.5t220 110t235.5 31.5q74 0 170.5 -17.5t187 -71.5t150.5 -163t60 -292v-1012h-236zM1136 556v216q-15 -18 -65.5 -32.5t-116 -25t-127 -18.5t-99.5 -12q-92 -12 -171.5 -38.5t-128 -79t-48.5 -142.5q0 -123 91.5 -185.5t232.5 -62.5q140 0 236.5 55
t146 142t49.5 183z" />
    <glyph glyph-name="Abreve" unicode="&#x102;" horiz-adv-x="1904" 
d="M1148 2584h220q0 -162 -112 -265t-304 -103q-189 0 -300.5 103t-111.5 265h220q0 -78 43.5 -137t148.5 -59t150.5 59t45.5 137zM332 0h-260l752 2048h256l752 -2048h-260l-193 548h-854zM940 1724l-337 -956h698l-337 956h-24z" />
    <glyph glyph-name="abreve" unicode="&#x103;" horiz-adv-x="1588" 
d="M1000 2072h220q0 -162 -112 -265t-304 -103q-189 0 -300.5 103t-111.5 265h220q0 -78 43.5 -137t148.5 -59t150.5 59t45.5 137zM1136 0v208h-12q-24 -50 -80 -107t-149 -97t-227 -40q-146 0 -265 55.5t-189 161t-70 255.5q0 130 52 213t138 130t192 71t214 38
q106 14 196 22t145 28t55 70v4q0 192 -91 264t-229 72q-171 0 -268 -74t-136 -158l-224 80q60 140 160.5 218.5t220 110t235.5 31.5q74 0 170.5 -17.5t187 -71.5t150.5 -163t60 -292v-1012h-236zM1136 556v216q-15 -18 -65.5 -32.5t-116 -25t-127 -18.5t-99.5 -12
q-92 -12 -171.5 -38.5t-128 -79t-48.5 -142.5q0 -123 91.5 -185.5t232.5 -62.5q140 0 236.5 55t146 142t49.5 183z" />
    <glyph glyph-name="Aogonek" unicode="&#x104;" horiz-adv-x="1904" 
d="M332 0h-260l752 2048h256l752 -2048h-56q-90 -66 -161 -140t-71 -164q0 -45 22 -70.5t82 -25.5q45 0 80 12t56 24l16 -176q-33 -21 -86.5 -40.5t-137.5 -19.5q-114 0 -193 67.5t-79 196.5q0 95 59.5 189t198.5 176l-183 519h-854zM940 1724l-337 -956h698l-337 956h-24z
" />
    <glyph glyph-name="aogonek" unicode="&#x105;" horiz-adv-x="1588" 
d="M1396 -540q-33 -21 -86.5 -40.5t-137.5 -19.5q-114 0 -193 67.5t-79 196.5q0 91 54.5 181.5t181.5 170.5v192h-12q-24 -50 -80 -107t-149 -97t-227 -40q-146 0 -265 55.5t-189 161t-70 255.5q0 130 52 213t138 130t192 71t214 38q106 14 196 22t145 28t55 70v4
q0 192 -91 264t-229 72q-171 0 -268 -74t-136 -158l-224 80q60 140 160.5 218.5t220 110t235.5 31.5q74 0 170.5 -17.5t187 -71.5t150.5 -163t60 -292v-1012q-90 -66 -161 -140t-71 -164q0 -45 22 -70.5t82 -25.5q45 0 80 12t56 24zM1136 556v216q-15 -18 -65.5 -32.5
t-116 -25t-127 -18.5t-99.5 -12q-92 -12 -171.5 -38.5t-128 -79t-48.5 -142.5q0 -123 91.5 -185.5t232.5 -62.5q140 0 236.5 55t146 142t49.5 183z" />
    <glyph glyph-name="Cacute" unicode="&#x106;" horiz-adv-x="2048" 
d="M948 2232l240 408h244l-308 -408h-176zM1896 1408h-248q-30 142 -115 239t-205 147t-256 50q-186 0 -336.5 -94t-239 -277t-88.5 -449t88.5 -449t239 -277t336.5 -94q136 0 256 50t205 147t115 239h248q-38 -210 -155 -359.5t-290 -229t-379 -79.5q-262 0 -466 128
t-321 364t-117 560t117 560t321 364t466 128q206 0 379 -79.5t290 -229t155 -359.5z" />
    <glyph glyph-name="cacute" unicode="&#x107;" horiz-adv-x="1572" 
d="M708 1720l240 408h244l-308 -408h-176zM1444 1076h-236q-27 105 -119.5 186.5t-248.5 81.5q-207 0 -333.5 -157.5t-126.5 -418.5q0 -267 125 -427.5t335 -160.5q138 0 236.5 71t131.5 197h236q-20 -136 -98.5 -244.5t-207 -172t-298.5 -63.5q-214 0 -370 101.5t-241 282
t-85 416.5q0 230 86.5 408t242 279t363.5 101q162 0 292 -60t213 -168t103 -252z" />
    <glyph glyph-name="Ccircumflex" unicode="&#x108;" horiz-adv-x="2048" 
d="M832 2304h-192v16l364 376h136l368 -376v-16h-192l-244 240zM1896 1408h-248q-30 142 -115 239t-205 147t-256 50q-186 0 -336.5 -94t-239 -277t-88.5 -449t88.5 -449t239 -277t336.5 -94q136 0 256 50t205 147t115 239h248q-38 -210 -155 -359.5t-290 -229t-379 -79.5
q-262 0 -466 128t-321 364t-117 560t117 560t321 364t466 128q206 0 379 -79.5t290 -229t155 -359.5z" />
    <glyph glyph-name="ccircumflex" unicode="&#x109;" horiz-adv-x="1572" 
d="M592 1792h-192v16l364 376h136l368 -376v-16h-192l-244 240zM1444 1076h-236q-27 105 -119.5 186.5t-248.5 81.5q-207 0 -333.5 -157.5t-126.5 -418.5q0 -267 125 -427.5t335 -160.5q138 0 236.5 71t131.5 197h236q-20 -136 -98.5 -244.5t-207 -172t-298.5 -63.5
q-214 0 -370 101.5t-241 282t-85 416.5q0 230 86.5 408t242 279t363.5 101q162 0 292 -60t213 -168t103 -252z" />
    <glyph glyph-name="Cdotaccent" unicode="&#x10a;" horiz-adv-x="2048" 
d="M916 2428q0 66 39 111t117 45t119 -45t41 -111q0 -63 -41 -105.5t-119 -42.5t-117 42.5t-39 105.5zM1896 1408h-248q-30 142 -115 239t-205 147t-256 50q-186 0 -336.5 -94t-239 -277t-88.5 -449t88.5 -449t239 -277t336.5 -94q136 0 256 50t205 147t115 239h248
q-38 -210 -155 -359.5t-290 -229t-379 -79.5q-262 0 -466 128t-321 364t-117 560t117 560t321 364t466 128q206 0 379 -79.5t290 -229t155 -359.5z" />
    <glyph glyph-name="cdotaccent" unicode="&#x10b;" horiz-adv-x="1572" 
d="M676 1916q0 66 39 111t117 45t119 -45t41 -111q0 -63 -41 -105.5t-119 -42.5t-117 42.5t-39 105.5zM1444 1076h-236q-27 105 -119.5 186.5t-248.5 81.5q-207 0 -333.5 -157.5t-126.5 -418.5q0 -267 125 -427.5t335 -160.5q138 0 236.5 71t131.5 197h236
q-20 -136 -98.5 -244.5t-207 -172t-298.5 -63.5q-214 0 -370 101.5t-241 282t-85 416.5q0 230 86.5 408t242 279t363.5 101q162 0 292 -60t213 -168t103 -252z" />
    <glyph glyph-name="Ccaron" unicode="&#x10c;" horiz-adv-x="2048" 
d="M832 2628l240 -240l244 240h192v-16l-368 -376h-136l-364 376v16h192zM1896 1408h-248q-30 142 -115 239t-205 147t-256 50q-186 0 -336.5 -94t-239 -277t-88.5 -449t88.5 -449t239 -277t336.5 -94q136 0 256 50t205 147t115 239h248q-38 -210 -155 -359.5t-290 -229
t-379 -79.5q-262 0 -466 128t-321 364t-117 560t117 560t321 364t466 128q206 0 379 -79.5t290 -229t155 -359.5z" />
    <glyph glyph-name="ccaron" unicode="&#x10d;" horiz-adv-x="1572" 
d="M592 2116l240 -240l244 240h192v-16l-368 -376h-136l-364 376v16h192zM1444 1076h-236q-27 105 -119.5 186.5t-248.5 81.5q-207 0 -333.5 -157.5t-126.5 -418.5q0 -267 125 -427.5t335 -160.5q138 0 236.5 71t131.5 197h236q-20 -136 -98.5 -244.5t-207 -172
t-298.5 -63.5q-214 0 -370 101.5t-241 282t-85 416.5q0 230 86.5 408t242 279t363.5 101q162 0 292 -60t213 -168t103 -252z" />
    <glyph glyph-name="Dcaron" unicode="&#x10e;" horiz-adv-x="2024" 
d="M608 2628l240 -240l244 240h192v-16l-368 -376h-136l-364 376v16h192zM880 0h-632v2048h660q298 0 510 -122.5t325 -351t113 -546.5q0 -320 -114 -550.5t-332 -354t-530 -123.5zM892 1828h-396v-1608h368q381 0 566.5 216.5t185.5 591.5q0 372 -182 586t-542 214z" />
    <glyph glyph-name="dcaron" unicode="&#x10f;" horiz-adv-x="1866" 
d="M1500 0h-228v236h-24q-26 -42 -75 -105.5t-139 -113t-238 -49.5q-192 0 -339 97.5t-230 276t-83 422.5q0 242 83 420t231 275t342 97q150 0 238.5 -49.5t136 -112t73.5 -102.5h16v756h236v-431q36 103 58 212t22 199v128h240v-124q-3 -132 -42.5 -287.5t-117.5 -272.5
l-160 32v-1504zM380 768q0 -164 50.5 -297.5t150 -212t247.5 -78.5q213 0 326.5 163.5t113.5 424.5q0 258 -112 417t-328 159q-150 0 -249.5 -76.5t-149 -207t-49.5 -292.5z" />
    <glyph glyph-name="Dcroat" unicode="&#x110;" horiz-adv-x="2054" 
d="M910 0h-632v936h-240v184h240v928h660q298 0 510 -122.5t325 -351t113 -546.5q0 -320 -114 -550.5t-332 -354t-530 -123.5zM918 1120v-184h-392v-716h368q381 0 566.5 216.5t185.5 591.5q0 372 -182 586t-542 214h-396v-708h392z" />
    <glyph glyph-name="dcroat" unicode="&#x111;" horiz-adv-x="1748" 
d="M1500 0h-228v236h-24q-26 -42 -75 -105.5t-139 -113t-238 -49.5q-192 0 -339 97.5t-230 276t-83 422.5q0 242 83 420t231 275t342 97q150 0 238.5 -49.5t136 -112t73.5 -102.5h16v444h-404v184h404v128h236v-128h240v-184h-240v-1736zM380 768q0 -164 50.5 -297.5
t150 -212t247.5 -78.5q213 0 326.5 163.5t113.5 424.5q0 258 -112 417t-328 159q-150 0 -249.5 -76.5t-149 -207t-49.5 -292.5z" />
    <glyph glyph-name="Emacron" unicode="&#x112;" horiz-adv-x="1684" 
d="M1368 2528v-204h-940v204h940zM1500 220v-220h-1252v2048h1236v-220h-988v-692h884v-220h-884v-696h1004z" />
    <glyph glyph-name="emacron" unicode="&#x113;" horiz-adv-x="1644" 
d="M1316 2016v-204h-940v204h940zM860 -32q-222 0 -382.5 98.5t-247 276t-86.5 413.5t86.5 416.5t242 282t363.5 101.5q120 0 237 -40t213 -129.5t153 -237t57 -361.5v-100h-1113q18 -249 143 -378.5t334 -129.5q141 0 240 60t144 180l228 -64q-54 -174 -216 -281t-396 -107
zM836 1344q-177 0 -298 -118t-150 -334h868q0 195 -114 323.5t-306 128.5z" />
    <glyph glyph-name="Ebreve" unicode="&#x114;" horiz-adv-x="1684" 
d="M1084 2584h220q0 -162 -112 -265t-304 -103q-189 0 -300.5 103t-111.5 265h220q0 -78 43.5 -137t148.5 -59t150.5 59t45.5 137zM1500 220v-220h-1252v2048h1236v-220h-988v-692h884v-220h-884v-696h1004z" />
    <glyph glyph-name="ebreve" unicode="&#x115;" horiz-adv-x="1644" 
d="M1032 2072h220q0 -162 -112 -265t-304 -103q-189 0 -300.5 103t-111.5 265h220q0 -78 43.5 -137t148.5 -59t150.5 59t45.5 137zM860 -32q-222 0 -382.5 98.5t-247 276t-86.5 413.5t86.5 416.5t242 282t363.5 101.5q120 0 237 -40t213 -129.5t153 -237t57 -361.5v-100
h-1113q18 -249 143 -378.5t334 -129.5q141 0 240 60t144 180l228 -64q-54 -174 -216 -281t-396 -107zM836 1344q-177 0 -298 -118t-150 -334h868q0 195 -114 323.5t-306 128.5z" />
    <glyph glyph-name="Edotaccent" unicode="&#x116;" horiz-adv-x="1684" 
d="M732 2428q0 66 39 111t117 45t119 -45t41 -111q0 -63 -41 -105.5t-119 -42.5t-117 42.5t-39 105.5zM1500 220v-220h-1252v2048h1236v-220h-988v-692h884v-220h-884v-696h1004z" />
    <glyph glyph-name="edotaccent" unicode="&#x117;" horiz-adv-x="1644" 
d="M680 1916q0 66 39 111t117 45t119 -45t41 -111q0 -63 -41 -105.5t-119 -42.5t-117 42.5t-39 105.5zM860 -32q-222 0 -382.5 98.5t-247 276t-86.5 413.5t86.5 416.5t242 282t363.5 101.5q120 0 237 -40t213 -129.5t153 -237t57 -361.5v-100h-1113q18 -249 143 -378.5
t334 -129.5q141 0 240 60t144 180l228 -64q-54 -174 -216 -281t-396 -107zM836 1344q-177 0 -298 -118t-150 -334h868q0 195 -114 323.5t-306 128.5z" />
    <glyph glyph-name="Eogonek" unicode="&#x118;" horiz-adv-x="1684" 
d="M1500 220v-220h-60q-90 -66 -161 -140t-71 -164q0 -45 22 -70.5t82 -25.5q45 0 80 12t56 24l16 -176q-33 -21 -86.5 -40.5t-137.5 -19.5q-114 0 -193 67.5t-79 196.5q0 86 49.5 172.5t162.5 163.5h-932v2048h1236v-220h-988v-692h884v-220h-884v-696h1004z" />
    <glyph glyph-name="eogonek" unicode="&#x119;" horiz-adv-x="1644" 
d="M860 -32q-222 0 -382.5 98.5t-247 276t-86.5 413.5t86.5 416.5t242 282t363.5 101.5q120 0 237 -40t213 -129.5t153 -237t57 -361.5v-100h-1113q18 -249 143 -378.5t334 -129.5q141 0 240 60t144 180l228 -64q-67 -215 -283 -318q-67 -55 -114 -116.5t-47 -133.5
q0 -45 22 -70.5t82 -25.5q45 0 80 12t56 24l16 -176q-33 -21 -86.5 -40.5t-137.5 -19.5q-114 0 -193 67.5t-79 196.5q0 53 18 106.5t58 105.5h-4zM836 1344q-177 0 -298 -118t-150 -334h868q0 195 -114 323.5t-306 128.5z" />
    <glyph glyph-name="Ecaron" unicode="&#x11a;" horiz-adv-x="1684" 
d="M648 2628l240 -240l244 240h192v-16l-368 -376h-136l-364 376v16h192zM1500 220v-220h-1252v2048h1236v-220h-988v-692h884v-220h-884v-696h1004z" />
    <glyph glyph-name="ecaron" unicode="&#x11b;" horiz-adv-x="1644" 
d="M596 2116l240 -240l244 240h192v-16l-368 -376h-136l-364 376v16h192zM860 -32q-222 0 -382.5 98.5t-247 276t-86.5 413.5t86.5 416.5t242 282t363.5 101.5q120 0 237 -40t213 -129.5t153 -237t57 -361.5v-100h-1113q18 -249 143 -378.5t334 -129.5q141 0 240 60t144 180
l228 -64q-54 -174 -216 -281t-396 -107zM836 1344q-177 0 -298 -118t-150 -334h868q0 195 -114 323.5t-306 128.5z" />
    <glyph glyph-name="Gcircumflex" unicode="&#x11c;" horiz-adv-x="2092" 
d="M824 2304h-192v16l364 376h136l368 -376v-16h-192l-244 240zM1916 1016v-220q0 -252 -110 -437t-299 -286t-427 -101q-266 0 -472 128t-323 364t-117 560t116.5 560t319 364t460.5 128q306 0 526 -176.5t310 -491.5h-252q-72 213 -229 324.5t-355 111.5q-182 0 -331 -94
t-237 -277t-88 -449t89 -449t241 -277t342 -94q174 0 308.5 75.5t211 209t76.5 307.5h-500v220h740z" />
    <glyph glyph-name="gcircumflex" unicode="&#x11d;" horiz-adv-x="1716" 
d="M648 1792h-192v16l364 376h136l368 -376v-16h-192l-244 240zM1272 1536h228v-1548q0 -198 -94 -322.5t-247 -183t-331 -58.5q-246 0 -397 92.5t-223 215.5l188 132q30 -38 80.5 -92t135 -95t216.5 -41q118 0 218 40.5t160 124t58 211.5v272h-20q-26 -42 -73.5 -103.5
t-136 -109t-238.5 -47.5q-186 0 -333.5 88t-233 256t-85.5 408q0 236 83 411.5t231 272t342 96.5q150 0 238.5 -49.5t136 -112t73.5 -102.5h24v244zM380 780q0 -240 113 -392t335 -152q213 0 326.5 144.5t113.5 399.5q0 249 -112 406.5t-328 157.5q-150 0 -249.5 -76
t-149 -204t-49.5 -284z" />
    <glyph glyph-name="Gbreve" unicode="&#x11e;" horiz-adv-x="2092" 
d="M1260 2584h220q0 -162 -112 -265t-304 -103q-189 0 -300.5 103t-111.5 265h220q0 -78 43.5 -137t148.5 -59t150.5 59t45.5 137zM1916 1016v-220q0 -252 -110 -437t-299 -286t-427 -101q-266 0 -472 128t-323 364t-117 560t116.5 560t319 364t460.5 128q306 0 526 -176.5
t310 -491.5h-252q-72 213 -229 324.5t-355 111.5q-182 0 -331 -94t-237 -277t-88 -449t89 -449t241 -277t342 -94q174 0 308.5 75.5t211 209t76.5 307.5h-500v220h740z" />
    <glyph glyph-name="gbreve" unicode="&#x11f;" horiz-adv-x="1716" 
d="M1084 2072h220q0 -162 -112 -265t-304 -103q-189 0 -300.5 103t-111.5 265h220q0 -78 43.5 -137t148.5 -59t150.5 59t45.5 137zM1272 1536h228v-1548q0 -198 -94 -322.5t-247 -183t-331 -58.5q-246 0 -397 92.5t-223 215.5l188 132q30 -38 80.5 -92t135 -95t216.5 -41
q118 0 218 40.5t160 124t58 211.5v272h-20q-26 -42 -73.5 -103.5t-136 -109t-238.5 -47.5q-186 0 -333.5 88t-233 256t-85.5 408q0 236 83 411.5t231 272t342 96.5q150 0 238.5 -49.5t136 -112t73.5 -102.5h24v244zM380 780q0 -240 113 -392t335 -152q213 0 326.5 144.5
t113.5 399.5q0 249 -112 406.5t-328 157.5q-150 0 -249.5 -76t-149 -204t-49.5 -284z" />
    <glyph glyph-name="Gdotaccent" unicode="&#x120;" horiz-adv-x="2092" 
d="M908 2428q0 66 39 111t117 45t119 -45t41 -111q0 -63 -41 -105.5t-119 -42.5t-117 42.5t-39 105.5zM1916 1016v-220q0 -252 -110 -437t-299 -286t-427 -101q-266 0 -472 128t-323 364t-117 560t116.5 560t319 364t460.5 128q306 0 526 -176.5t310 -491.5h-252
q-72 213 -229 324.5t-355 111.5q-182 0 -331 -94t-237 -277t-88 -449t89 -449t241 -277t342 -94q174 0 308.5 75.5t211 209t76.5 307.5h-500v220h740z" />
    <glyph glyph-name="gdotaccent" unicode="&#x121;" horiz-adv-x="1716" 
d="M732 1916q0 66 39 111t117 45t119 -45t41 -111q0 -63 -41 -105.5t-119 -42.5t-117 42.5t-39 105.5zM1272 1536h228v-1548q0 -198 -94 -322.5t-247 -183t-331 -58.5q-246 0 -397 92.5t-223 215.5l188 132q30 -38 80.5 -92t135 -95t216.5 -41q118 0 218 40.5t160 124
t58 211.5v272h-20q-26 -42 -73.5 -103.5t-136 -109t-238.5 -47.5q-186 0 -333.5 88t-233 256t-85.5 408q0 236 83 411.5t231 272t342 96.5q150 0 238.5 -49.5t136 -112t73.5 -102.5h24v244zM380 780q0 -240 113 -392t335 -152q213 0 326.5 144.5t113.5 399.5
q0 249 -112 406.5t-328 157.5q-150 0 -249.5 -76t-149 -204t-49.5 -284z" />
    <glyph glyph-name="Gcommaaccent" unicode="&#x122;" horiz-adv-x="2092" 
d="M1916 1016v-220q0 -252 -110 -437t-299 -286t-427 -101q-266 0 -472 128t-323 364t-117 560t116.5 560t319 364t460.5 128q306 0 526 -176.5t310 -491.5h-252q-72 213 -229 324.5t-355 111.5q-182 0 -331 -94t-237 -277t-88 -449t89 -449t241 -277t342 -94
q174 0 308.5 75.5t211 209t76.5 307.5h-500v220h740zM1184 -144v-124q-3 -132 -42.5 -287.5t-117.5 -272.5l-200 40q51 120 85.5 261t34.5 255v128h240z" />
    <glyph glyph-name="gcommaaccent" unicode="&#x123;" horiz-adv-x="1716" 
d="M744 1740v176q0 84 32.5 168t80 153t91.5 107l156 -124q-48 -84 -66 -156.5t-18 -159.5v-164h-276zM1272 1536h228v-1548q0 -198 -94 -322.5t-247 -183t-331 -58.5q-246 0 -397 92.5t-223 215.5l188 132q30 -38 80.5 -92t135 -95t216.5 -41q118 0 218 40.5t160 124
t58 211.5v272h-20q-26 -42 -73.5 -103.5t-136 -109t-238.5 -47.5q-186 0 -333.5 88t-233 256t-85.5 408q0 236 83 411.5t231 272t342 96.5q150 0 238.5 -49.5t136 -112t73.5 -102.5h24v244zM380 780q0 -240 113 -392t335 -152q213 0 326.5 144.5t113.5 399.5
q0 249 -112 406.5t-328 157.5q-150 0 -249.5 -76t-149 -204t-49.5 -284z" />
    <glyph glyph-name="Hcircumflex" unicode="&#x124;" horiz-adv-x="2084" 
d="M800 2304h-192v16l364 376h136l368 -376v-16h-192l-244 240zM496 2048v-912h1092v912h248v-2048h-248v916h-1092v-916h-248v2048h248z" />
    <glyph glyph-name="hcircumflex" unicode="&#x125;" horiz-adv-x="1636" 
d="M644 2304h-192v16l364 376h136l368 -376v-16h-192l-244 240zM452 928v-928h-236v2048h236v-728h16q57 87 169.5 161.5t286.5 74.5q216 0 356 -147.5t140 -432.5v-976h-236v976q0 168 -91.5 260t-244.5 92q-94 0 -185 -40t-151 -128t-60 -232z" />
    <glyph glyph-name="Hbar" unicode="&#x126;" horiz-adv-x="2032" 
d="M500 2048v-432h1092v432h248v-432h160v-208h-160v-1408h-248v916h-1092v-916h-248v1408h-168v208h168v432h248zM500 1136h1092v272h-1092v-272z" />
    <glyph glyph-name="hbar" unicode="&#x127;" horiz-adv-x="1666" 
d="M482 928v-928h-236v1716h-288v184h288v148h236v-148h356v-184h-356v-396h16q57 87 169.5 161.5t286.5 74.5q216 0 356 -147.5t140 -432.5v-976h-236v976q0 168 -91.5 260t-244.5 92q-94 0 -185 -40t-151 -128t-60 -232z" />
    <glyph glyph-name="Itilde" unicode="&#x128;" horiz-adv-x="744" 
d="M668 2612l180 -16q0 -156 -87.5 -248t-216.5 -92q-69 0 -114 19.5t-80 44.5t-74 44.5t-96 19.5t-94.5 -44.5t-37.5 -107.5l-184 8q0 153 87.5 250.5t216.5 97.5q76 0 130.5 -32t108 -64t125.5 -32q57 0 96.5 44.5t39.5 107.5zM496 2048v-2048h-248v2048h248z" />
    <glyph glyph-name="itilde" unicode="&#x129;" horiz-adv-x="784" 
d="M704 2100l180 -16q0 -156 -87.5 -248t-216.5 -92q-69 0 -114 19.5t-80 44.5t-74 44.5t-96 19.5t-94.5 -44.5t-37.5 -107.5l-184 8q0 153 87.5 250.5t216.5 97.5q76 0 130.5 -32t108 -64t125.5 -32q57 0 96.5 44.5t39.5 107.5zM512 1536v-1536h-236v1536h236z" />
    <glyph glyph-name="Imacron" unicode="&#x12a;" horiz-adv-x="744" 
d="M836 2528v-204h-940v204h940zM496 2048v-2048h-248v2048h248z" />
    <glyph glyph-name="imacron" unicode="&#x12b;" horiz-adv-x="668" 
d="M824 2020v-204h-940v204h940zM452 1536v-1536h-236v1536h236z" />
    <glyph glyph-name="Ibreve" unicode="&#x12c;" horiz-adv-x="744" 
d="M552 2584h220q0 -162 -112 -265t-304 -103q-189 0 -300.5 103t-111.5 265h220q0 -78 43.5 -137t148.5 -59t150.5 59t45.5 137zM496 2048v-2048h-248v2048h248z" />
    <glyph glyph-name="ibreve" unicode="&#x12d;" horiz-adv-x="668" 
d="M540 2076h220q0 -162 -112 -265t-304 -103q-189 0 -300.5 103t-111.5 265h220q0 -78 43.5 -137t148.5 -59t150.5 59t45.5 137zM452 1536v-1536h-236v1536h236z" />
    <glyph glyph-name="Iogonek" unicode="&#x12e;" horiz-adv-x="744" 
d="M495 2048v-2048h-30q-83 -63 -146.5 -133t-63.5 -155q0 -45 22 -70.5t82 -25.5q45 0 80 12t56 24l16 -176q-33 -21 -86.5 -40.5t-137.5 -19.5q-114 0 -193 67.5t-79 196.5q0 90 53.5 179.5t178.5 169.5v2019h248z" />
    <glyph glyph-name="iogonek" unicode="&#x12f;" horiz-adv-x="668" 
d="M331 1756q-78 0 -123 47t-45 113q0 60 45 110t123 50t123 -50t45 -110q0 -66 -45 -113t-123 -47zM451 1536v-1536h-12q-90 -66 -161 -140t-71 -164q0 -45 22 -70.5t82 -25.5q45 0 80 12t56 24l16 -176q-33 -21 -86.5 -40.5t-137.5 -19.5q-114 0 -193 67.5t-79 196.5
q0 93 57.5 185.5t190.5 173.5v1513h236z" />
    <glyph glyph-name="Idotaccent" unicode="&#x130;" horiz-adv-x="744" 
d="M200 2428q0 66 39 111t117 45t119 -45t41 -111q0 -63 -41 -105.5t-119 -42.5t-117 42.5t-39 105.5zM496 2048v-2048h-248v2048h248z" />
    <glyph glyph-name="dotlessi" unicode="&#x131;" horiz-adv-x="668" 
d="M452 1536v-1536h-236v1536h236z" />
    <glyph glyph-name="IJ" unicode="&#x132;" horiz-adv-x="2424" 
d="M752 2048v-2048h-248v2048h248zM1952 584v1464h248v-1464q0 -297 -164 -454.5t-440 -157.5q-162 0 -295.5 66t-213 187t-79.5 287h240q0 -153 108.5 -236.5t255.5 -83.5q80 0 158.5 33t130 118t51.5 241z" />
    <glyph glyph-name="ij" unicode="&#x133;" horiz-adv-x="1592" 
d="M588 1756q-78 0 -123 47t-45 113q0 60 45 110t123 50t123 -50t45 -110q0 -66 -45 -113t-123 -47zM1256 1756q-78 0 -123 47t-45 113q0 60 45 110t123 50t123 -50t45 -110q0 -66 -45 -113t-123 -47zM708 1536v-1536h-236v1536h236zM1140 1536h236v-1648
q0 -213 -109 -340.5t-331 -127.5h-48v220h44q108 0 158 65.5t50 182.5v1648z" />
    <glyph glyph-name="Jcircumflex" unicode="&#x134;" horiz-adv-x="1424" 
d="M836 2304h-192v16l364 376h136l368 -376v-16h-192l-244 240zM952 584v1464h248v-1464q0 -297 -164 -454.5t-440 -157.5q-162 0 -295.5 66t-213 187t-79.5 287h240q0 -153 108.5 -236.5t255.5 -83.5q80 0 158.5 33t130 118t51.5 241z" />
    <glyph glyph-name="jcircumflex" unicode="&#x135;" horiz-adv-x="668" 
d="M96 1716h-192v16l364 376h136l368 -376v-16h-192l-244 240zM216 1536h236v-1648q0 -213 -109 -340.5t-331 -127.5h-48v220h44q108 0 158 65.5t50 182.5v1648z" />
    <glyph glyph-name="Kcommaaccent" unicode="&#x136;" horiz-adv-x="1836" 
d="M1464 0l-711 953l-257 -287v-666h-248v2048h248v-1016h24l920 1016h324l-858 -924l858 -1124h-300zM1040 -8v-124q-3 -132 -42.5 -287.5t-117.5 -272.5l-200 40q51 120 85.5 261t34.5 255v128h240z" />
    <glyph glyph-name="kcommaaccent" unicode="&#x137;" horiz-adv-x="1500" 
d="M1184 0l-551 732l-181 -195v-537h-236v2048h236v-1204h28l624 692h292l-604 -654l668 -882h-276zM864 -128v-124q-3 -132 -42.5 -287.5t-117.5 -272.5l-200 40q51 120 85.5 261t34.5 255v128h240z" />
    <glyph glyph-name="kgreenlandic" unicode="&#x138;" horiz-adv-x="1776" 
d="M1188 0l-538 628h-134v-628h-276v1488h276v-624h112l532 624h332l-618 -719l662 -769h-348z" />
    <glyph glyph-name="Lacute" unicode="&#x139;" horiz-adv-x="1584" 
d="M252 2232l240 408h244l-308 -408h-176zM1448 220v-220h-1200v2048h248v-1828h952z" />
    <glyph glyph-name="lacute" unicode="&#x13a;" horiz-adv-x="668" 
d="M208 2232l240 408h244l-308 -408h-176zM452 2048v-2048h-236v2048h236z" />
    <glyph glyph-name="Lcommaaccent" unicode="&#x13b;" horiz-adv-x="1584" 
d="M1448 220v-220h-1200v2048h248v-1828h952zM980 -112v-124q-3 -132 -42.5 -287.5t-117.5 -272.5l-200 40q51 120 85.5 261t34.5 255v128h240z" />
    <glyph glyph-name="lcommaaccent" unicode="&#x13c;" horiz-adv-x="668" 
d="M452 2048v-2048h-236v2048h236zM420 -112v-124q-3 -132 -42.5 -287.5t-117.5 -272.5l-200 40q51 120 85.5 261t34.5 255v128h240z" />
    <glyph glyph-name="Lcaron" unicode="&#x13d;" horiz-adv-x="1584" 
d="M1448 220v-220h-1200v2048h248v-1828h952zM1104 2044v-124q-3 -132 -42.5 -287.5t-117.5 -272.5l-200 40q51 120 85.5 261t34.5 255v128h240z" />
    <glyph glyph-name="lcaron" unicode="&#x13e;" horiz-adv-x="818" 
d="M876 2156v-124q-3 -132 -42.5 -287.5t-117.5 -272.5l-200 40q51 120 85.5 261t34.5 255v128h240zM452 2048v-2048h-236v2048h236z" />
    <glyph glyph-name="Ldot" unicode="&#x13f;" horiz-adv-x="1584" 
d="M1448 220v-220h-1200v2048h248v-1828h952zM812 1140q0 66 39 111t117 45t119 -45t41 -111q0 -63 -41 -105.5t-119 -42.5t-117 42.5t-39 105.5z" />
    <glyph glyph-name="ldot" unicode="&#x140;" horiz-adv-x="888" 
d="M452 2048v-2048h-236v2048h236zM588 1112q0 66 39 111t117 45t119 -45t41 -111q0 -63 -41 -105.5t-119 -42.5t-117 42.5t-39 105.5z" />
    <glyph glyph-name="L_slash" unicode="&#x141;" horiz-adv-x="1584" 
d="M1448 220v-220h-1200v903l-188 -59v180l188 59v965h248v-887l376 119v-180l-376 -119v-761h952z" />
    <glyph glyph-name="lslash" unicode="&#x142;" horiz-adv-x="668" 
d="M672 1280v-176l-220 -83v-1021h-236v931l-220 -83v176l220 83v941h236v-851z" />
    <glyph glyph-name="Nacute" unicode="&#x143;" horiz-adv-x="2080" 
d="M908 2232l240 408h244l-308 -408h-176zM1832 2048v-2048h-240l-1076 1604h-20v-1604h-248v2048h240l1080 -1612h20v1612h244z" />
    <glyph glyph-name="nacute" unicode="&#x144;" horiz-adv-x="1636" 
d="M700 1720l240 408h244l-308 -408h-176zM452 908v-908h-236v1536h236v-260h16q54 117 168 198.5t288 81.5q216 0 356 -143t140 -437v-976h-236v960q0 168 -94.5 268t-241.5 100q-88 0 -179.5 -45t-154 -138t-62.5 -237z" />
    <glyph glyph-name="Ncommaaccent" unicode="&#x145;" horiz-adv-x="2080" 
d="M1832 2048v-2048h-240l-1076 1604h-20v-1604h-248v2048h240l1080 -1612h20v1612h244zM1116 -112v-124q-3 -132 -42.5 -287.5t-117.5 -272.5l-200 40q51 120 85.5 261t34.5 255v128h240z" />
    <glyph glyph-name="ncommaaccent" unicode="&#x146;" horiz-adv-x="1636" 
d="M452 908v-908h-236v1536h236v-260h16q54 117 168 198.5t288 81.5q216 0 356 -143t140 -437v-976h-236v960q0 168 -94.5 268t-241.5 100q-88 0 -179.5 -45t-154 -138t-62.5 -237zM940 -128v-124q-3 -132 -42.5 -287.5t-117.5 -272.5l-200 40q51 120 85.5 261t34.5 255v128
h240z" />
    <glyph glyph-name="Ncaron" unicode="&#x147;" horiz-adv-x="2080" 
d="M792 2628l240 -240l244 240h192v-16l-368 -376h-136l-364 376v16h192zM1832 2048v-2048h-240l-1076 1604h-20v-1604h-248v2048h240l1080 -1612h20v1612h244z" />
    <glyph glyph-name="ncaron" unicode="&#x148;" horiz-adv-x="1636" 
d="M584 2116l240 -240l244 240h192v-16l-368 -376h-136l-364 376v16h192zM452 908v-908h-236v1536h236v-260h16q54 117 168 198.5t288 81.5q216 0 356 -143t140 -437v-976h-236v960q0 168 -94.5 268t-241.5 100q-88 0 -179.5 -45t-154 -138t-62.5 -237z" />
    <glyph glyph-name="napostrophe" unicode="&#x149;" horiz-adv-x="1636" 
d="M68 2164v-124q-3 -132 -42.5 -287.5t-117.5 -272.5l-200 40q51 120 85.5 261t34.5 255v128h240zM452 908v-908h-236v1536h236v-260h16q54 117 168 198.5t288 81.5q216 0 356 -143t140 -437v-976h-236v960q0 168 -94.5 268t-241.5 100q-88 0 -179.5 -45t-154 -138
t-62.5 -237z" />
    <glyph glyph-name="Eng" unicode="&#x14a;" horiz-adv-x="2080" 
d="M1832 2048v-2212q0 -198 -120 -305t-288 -107q-36 0 -72.5 1.5t-63.5 10.5v204q15 -3 35 -5.5t41 -2.5q96 0 158 44t62 164v172l-1068 1592h-20v-1604h-248v2048h240l1080 -1612h20v1612h244z" />
    <glyph glyph-name="eng" unicode="&#x14b;" horiz-adv-x="1636" 
d="M452 908v-908h-236v1536h236v-260h16q54 117 168 198.5t288 81.5q216 0 356 -143t140 -437v-1140q0 -198 -116 -305t-284 -107q-36 0 -72.5 1.5t-63.5 10.5v200q15 -3 35 -5.5t41 -2.5q96 0 160 44t64 164v1124q0 168 -94.5 268t-241.5 100q-88 0 -179.5 -45t-154 -138
t-62.5 -237z" />
    <glyph glyph-name="Omacron" unicode="&#x14c;" horiz-adv-x="2144" 
d="M1552 2528v-204h-940v204h940zM1976 1024q0 -324 -117 -560t-321 -364t-466 -128t-466 128t-321 364t-117 560t117 560t321 364t466 128t466 -128t321 -364t117 -560zM1736 1024q0 266 -88.5 449t-239 277t-336.5 94t-336.5 -94t-239 -277t-88.5 -449t88.5 -449t239 -277
t336.5 -94t336.5 94t239 277t88.5 449z" />
    <glyph glyph-name="omacron" unicode="&#x14d;" horiz-adv-x="1680" 
d="M1320 2016v-204h-940v204h940zM840 -32q-208 0 -364.5 99t-244 277t-87.5 416q0 240 87.5 419t244 278t364.5 99t364.5 -99t244 -278t87.5 -419q0 -238 -87.5 -416t-244 -277t-364.5 -99zM840 180q158 0 260 81t151 213t49 286t-49 287t-151 215t-260 82t-260 -82
t-151 -215t-49 -287t49 -286t151 -213t260 -81z" />
    <glyph glyph-name="Obreve" unicode="&#x14e;" horiz-adv-x="2144" 
d="M1268 2584h220q0 -162 -112 -265t-304 -103q-189 0 -300.5 103t-111.5 265h220q0 -78 43.5 -137t148.5 -59t150.5 59t45.5 137zM1976 1024q0 -324 -117 -560t-321 -364t-466 -128t-466 128t-321 364t-117 560t117 560t321 364t466 128t466 -128t321 -364t117 -560z
M1736 1024q0 266 -88.5 449t-239 277t-336.5 94t-336.5 -94t-239 -277t-88.5 -449t88.5 -449t239 -277t336.5 -94t336.5 94t239 277t88.5 449z" />
    <glyph glyph-name="obreve" unicode="&#x14f;" horiz-adv-x="1680" 
d="M1036 2072h220q0 -162 -112 -265t-304 -103q-189 0 -300.5 103t-111.5 265h220q0 -78 43.5 -137t148.5 -59t150.5 59t45.5 137zM840 -32q-208 0 -364.5 99t-244 277t-87.5 416q0 240 87.5 419t244 278t364.5 99t364.5 -99t244 -278t87.5 -419q0 -238 -87.5 -416
t-244 -277t-364.5 -99zM840 180q158 0 260 81t151 213t49 286t-49 287t-151 215t-260 82t-260 -82t-151 -215t-49 -287t49 -286t151 -213t260 -81z" />
    <glyph glyph-name="Ohungarumlaut" unicode="&#x150;" horiz-adv-x="2144" 
d="M1132 2216l308 424h264l-364 -424h-208zM720 2216l224 424h260l-296 -424h-188zM1976 1024q0 -324 -117 -560t-321 -364t-466 -128t-466 128t-321 364t-117 560t117 560t321 364t466 128t466 -128t321 -364t117 -560zM1736 1024q0 266 -88.5 449t-239 277t-336.5 94
t-336.5 -94t-239 -277t-88.5 -449t88.5 -449t239 -277t336.5 -94t336.5 94t239 277t88.5 449z" />
    <glyph glyph-name="ohungarumlaut" unicode="&#x151;" horiz-adv-x="1680" 
d="M900 1704l308 424h264l-364 -424h-208zM488 1704l224 424h260l-296 -424h-188zM840 -32q-208 0 -364.5 99t-244 277t-87.5 416q0 240 87.5 419t244 278t364.5 99t364.5 -99t244 -278t87.5 -419q0 -238 -87.5 -416t-244 -277t-364.5 -99zM840 180q158 0 260 81t151 213
t49 286t-49 287t-151 215t-260 82t-260 -82t-151 -215t-49 -287t49 -286t151 -213t260 -81z" />
    <glyph glyph-name="OE" unicode="&#x152;" horiz-adv-x="2652" 
d="M952 2048h1536v-220h-988v-692h884v-220h-884v-696h1004v-220h-1552q-228 0 -401 103t-270 287t-97 426v420q0 242 96 425t269 285t403 102zM952 220h300v1608h-300q-228 0 -362 -147.5t-134 -444.5v-420q0 -297 135.5 -446.5t360.5 -149.5z" />
    <glyph glyph-name="oe" unicode="&#x153;" horiz-adv-x="2788" 
d="M840 -32q-208 0 -364.5 99t-244 277t-87.5 416q0 240 87.5 419t244 278t364.5 99q192 0 340.5 -85t238.5 -237q89 151 236 236.5t337 85.5q120 0 237 -40t213 -129.5t153 -237t57 -361.5v-100h-1113q18 -249 143 -378.5t334 -129.5q141 0 240 60t144 180l228 -64
q-54 -174 -216 -281t-396 -107q-204 0 -356.5 84t-242.5 234q-90 -150 -238 -234t-339 -84zM840 180q158 0 260 81t151 213t49 286t-49 287t-151 215t-260 82t-260 -82t-151 -215t-49 -287t49 -286t151 -213t260 -81zM1992 1344q-177 0 -298 -118t-150 -334h868
q0 195 -114 323.5t-306 128.5z" />
    <glyph glyph-name="Racute" unicode="&#x154;" horiz-adv-x="1784" 
d="M780 2232l240 408h244l-308 -408h-176zM1404 0l-407 796h-501v-796h-248v2048h684q244 0 395.5 -86t222 -229t70.5 -313q0 -211 -96 -354t-274 -215l442 -851h-288zM496 1828v-804h408q180 0 283 51.5t146 141t43 203.5q0 96 -35 190t-131 156t-278 62h-436z" />
    <glyph glyph-name="racute" unicode="&#x155;" horiz-adv-x="1088" 
d="M428 1720l240 408h244l-308 -408h-176zM1064 1504l-80 -220q-18 9 -49.5 20.5t-82.5 11.5q-126 0 -214.5 -68.5t-136 -172t-49.5 -207.5v-868h-236v1536h236v-264h16q22 74 80.5 140t140 107t171.5 41q60 0 114 -17.5t90 -38.5z" />
    <glyph glyph-name="Rcommaaccent" unicode="&#x156;" horiz-adv-x="1784" 
d="M1404 0l-407 796h-501v-796h-248v2048h684q244 0 395.5 -86t222 -229t70.5 -313q0 -211 -96 -354t-274 -215l442 -851h-288zM496 1828v-804h408q180 0 283 51.5t146 141t43 203.5q0 96 -35 190t-131 156t-278 62h-436zM968 -128v-124q-3 -132 -42.5 -287.5t-117.5 -272.5
l-200 40q51 120 85.5 261t34.5 255v128h240z" />
    <glyph glyph-name="rcommaaccent" unicode="&#x157;" horiz-adv-x="1088" 
d="M1064 1504l-80 -220q-18 9 -49.5 20.5t-82.5 11.5q-126 0 -214.5 -68.5t-136 -172t-49.5 -207.5v-868h-236v1536h236v-264h16q22 74 80.5 140t140 107t171.5 41q60 0 114 -17.5t90 -38.5zM452 -128v-124q-3 -132 -42.5 -287.5t-117.5 -272.5l-200 40q51 120 85.5 261
t34.5 255v128h240z" />
    <glyph glyph-name="Rcaron" unicode="&#x158;" horiz-adv-x="1784" 
d="M664 2628l240 -240l244 240h192v-16l-368 -376h-136l-364 376v16h192zM1404 0l-407 796h-501v-796h-248v2048h684q244 0 395.5 -86t222 -229t70.5 -313q0 -211 -96 -354t-274 -215l442 -851h-288zM496 1828v-804h408q180 0 283 51.5t146 141t43 203.5q0 96 -35 190
t-131 156t-278 62h-436z" />
    <glyph glyph-name="rcaron" unicode="&#x159;" horiz-adv-x="1088" 
d="M312 2116l240 -240l244 240h192v-16l-368 -376h-136l-364 376v16h192zM1064 1504l-80 -220q-18 9 -49.5 20.5t-82.5 11.5q-126 0 -214.5 -68.5t-136 -172t-49.5 -207.5v-868h-236v1536h236v-264h16q22 74 80.5 140t140 107t171.5 41q60 0 114 -17.5t90 -38.5z" />
    <glyph glyph-name="Sacute" unicode="&#x15a;" horiz-adv-x="1788" 
d="M764 2232l240 408h244l-308 -408h-176zM1360 1520q-27 165 -150.5 250.5t-309.5 85.5q-204 0 -328 -97t-124 -247q0 -123 96 -202.5t300 -133.5l208 -56q291 -78 433.5 -212.5t142.5 -347.5q0 -168 -86.5 -303t-252 -214t-401.5 -79q-330 0 -524 156t-212 408h256
q10 -116 78.5 -191.5t174 -112t227.5 -36.5q142 0 255 46.5t179 130t66 195.5q0 138 -100.5 209t-307.5 131l-252 72q-240 69 -380 197t-140 335q0 172 93.5 300.5t252 200t354.5 71.5q198 0 350.5 -71.5t242 -197t99.5 -287.5h-240z" />
    <glyph glyph-name="sacute" unicode="&#x15b;" horiz-adv-x="1460" 
d="M616 1720l240 408h244l-308 -408h-176zM1276 1192l-212 -60q-14 34 -44.5 87t-96 95t-183.5 42q-141 0 -234.5 -66.5t-93.5 -165.5q0 -78 64 -142.5t196 -97.5l228 -56q210 -51 303 -161.5t93 -242.5q0 -118 -67 -222t-197 -169t-320 -65q-184 0 -306 57t-195 146
t-111 185l216 80q42 -105 131.5 -184.5t260.5 -79.5q165 0 256.5 74t91.5 170q0 152 -220 204l-256 64q-210 54 -307 170.5t-97 257.5q0 130 73.5 230t201 157t289.5 57q213 0 344.5 -98t191.5 -266z" />
    <glyph glyph-name="Scircumflex" unicode="&#x15c;" horiz-adv-x="1788" 
d="M648 2304h-192v16l364 376h136l368 -376v-16h-192l-244 240zM1360 1520q-27 165 -150.5 250.5t-309.5 85.5q-204 0 -328 -97t-124 -247q0 -123 96 -202.5t300 -133.5l208 -56q291 -78 433.5 -212.5t142.5 -347.5q0 -168 -86.5 -303t-252 -214t-401.5 -79q-330 0 -524 156
t-212 408h256q10 -116 78.5 -191.5t174 -112t227.5 -36.5q142 0 255 46.5t179 130t66 195.5q0 138 -100.5 209t-307.5 131l-252 72q-240 69 -380 197t-140 335q0 172 93.5 300.5t252 200t354.5 71.5q198 0 350.5 -71.5t242 -197t99.5 -287.5h-240z" />
    <glyph glyph-name="scircumflex" unicode="&#x15d;" horiz-adv-x="1460" 
d="M500 1792h-192v16l364 376h136l368 -376v-16h-192l-244 240zM1276 1192l-212 -60q-14 34 -44.5 87t-96 95t-183.5 42q-141 0 -234.5 -66.5t-93.5 -165.5q0 -78 64 -142.5t196 -97.5l228 -56q210 -51 303 -161.5t93 -242.5q0 -118 -67 -222t-197 -169t-320 -65
q-184 0 -306 57t-195 146t-111 185l216 80q42 -105 131.5 -184.5t260.5 -79.5q165 0 256.5 74t91.5 170q0 152 -220 204l-256 64q-210 54 -307 170.5t-97 257.5q0 130 73.5 230t201 157t289.5 57q213 0 344.5 -98t191.5 -266z" />
    <glyph glyph-name="Scedilla" unicode="&#x15e;" horiz-adv-x="1788" 
d="M1360 1520q-27 165 -150.5 250.5t-309.5 85.5q-204 0 -328 -97t-124 -247q0 -123 96 -202.5t300 -133.5l208 -56q291 -78 433.5 -212.5t142.5 -347.5q0 -168 -86.5 -303t-252 -214t-401.5 -79q-330 0 -524 156t-212 408h256q10 -116 78.5 -191.5t174 -112t227.5 -36.5
q142 0 255 46.5t179 130t66 195.5q0 138 -100.5 209t-307.5 131l-252 72q-240 69 -380 197t-140 335q0 172 93.5 300.5t252 200t354.5 71.5q198 0 350.5 -71.5t242 -197t99.5 -287.5h-240zM796 -36h192l-16 -72q78 -12 143 -65.5t65 -170.5q0 -129 -106.5 -210.5
t-313.5 -81.5l-8 156q93 0 154.5 29.5t61.5 98.5t-51 94t-165 34z" />
    <glyph glyph-name="scedilla" unicode="&#x15f;" horiz-adv-x="1460" 
d="M1276 1192l-212 -60q-14 34 -44.5 87t-96 95t-183.5 42q-141 0 -234.5 -66.5t-93.5 -165.5q0 -78 64 -142.5t196 -97.5l228 -56q210 -51 303 -161.5t93 -242.5q0 -157 -118 -286.5t-343 -161.5l-11 -48q78 -12 143 -65.5t65 -170.5q0 -129 -106.5 -210.5t-313.5 -81.5
l-8 156q93 0 154.5 29.5t61.5 98.5t-51 94t-165 34l37 159q-159 11 -266.5 69t-173.5 142t-101 174l216 80q42 -105 131.5 -184.5t260.5 -79.5q165 0 256.5 74t91.5 170q0 152 -220 204l-256 64q-210 54 -307 170.5t-97 257.5q0 130 73.5 230t201 157t289.5 57
q213 0 344.5 -98t191.5 -266z" />
    <glyph glyph-name="Scaron" unicode="&#x160;" horiz-adv-x="1788" 
d="M648 2628l240 -240l244 240h192v-16l-368 -376h-136l-364 376v16h192zM1360 1520q-27 165 -150.5 250.5t-309.5 85.5q-204 0 -328 -97t-124 -247q0 -123 96 -202.5t300 -133.5l208 -56q291 -78 433.5 -212.5t142.5 -347.5q0 -168 -86.5 -303t-252 -214t-401.5 -79
q-330 0 -524 156t-212 408h256q10 -116 78.5 -191.5t174 -112t227.5 -36.5q142 0 255 46.5t179 130t66 195.5q0 138 -100.5 209t-307.5 131l-252 72q-240 69 -380 197t-140 335q0 172 93.5 300.5t252 200t354.5 71.5q198 0 350.5 -71.5t242 -197t99.5 -287.5h-240z" />
    <glyph glyph-name="scaron" unicode="&#x161;" horiz-adv-x="1460" 
d="M500 2116l240 -240l244 240h192v-16l-368 -376h-136l-364 376v16h192zM1276 1192l-212 -60q-14 34 -44.5 87t-96 95t-183.5 42q-141 0 -234.5 -66.5t-93.5 -165.5q0 -78 64 -142.5t196 -97.5l228 -56q210 -51 303 -161.5t93 -242.5q0 -118 -67 -222t-197 -169t-320 -65
q-184 0 -306 57t-195 146t-111 185l216 80q42 -105 131.5 -184.5t260.5 -79.5q165 0 256.5 74t91.5 170q0 152 -220 204l-256 64q-210 54 -307 170.5t-97 257.5q0 130 73.5 230t201 157t289.5 57q213 0 344.5 -98t191.5 -266z" />
    <glyph glyph-name="Tcommaaccent" unicode="&#x162;" horiz-adv-x="1808" 
d="M812 0h-32v1828h-644v220h1536v-220h-644v-1828h-24l-16 -72q78 -12 143 -65.5t65 -170.5q0 -129 -106.5 -210.5t-313.5 -81.5l-8 156q93 0 154.5 29.5t61.5 98.5t-51 94t-165 34z" />
    <glyph glyph-name="tcommaaccent" unicode="&#x163;" horiz-adv-x="1000" 
d="M504 0h72q-113 34 -196.5 127.5t-83.5 248.5v940h-232v220h232v328h236v-328h328v-220h-328v-876q0 -100 29.5 -149.5t76 -66t98.5 -16.5q39 0 64 4.5t40 7.5l48 -212q-24 -9 -67 -18.5t-109 -9.5h-20l-12 -52q78 -12 143 -65.5t65 -170.5q0 -129 -106.5 -210.5
t-313.5 -81.5l-8 156q93 0 154.5 29.5t61.5 98.5t-51 94t-165 34z" />
    <glyph glyph-name="Tcaron" unicode="&#x164;" horiz-adv-x="1808" 
d="M664 2628l240 -240l244 240h192v-16l-368 -376h-136l-364 376v16h192zM1672 2048v-220h-644v-1828h-248v1828h-644v220h1536z" />
    <glyph glyph-name="tcaron" unicode="&#x165;" horiz-adv-x="1040" 
d="M980 2332v-124q-3 -132 -42.5 -287.5t-117.5 -272.5l-200 40q51 120 85.5 261t34.5 255v128h240zM860 1536v-220h-328v-876q0 -100 29.5 -149.5t76 -66t98.5 -16.5q39 0 64 4.5t40 7.5l48 -212q-24 -9 -67 -18.5t-109 -9.5q-100 0 -195.5 43t-158 131t-62.5 222v940h-232
v220h232v328h236v-328h328z" />
    <glyph glyph-name="Tbar" unicode="&#x166;" horiz-adv-x="1808" 
d="M1280 1336v-184h-252v-1152h-248v1152h-380v184h380v492h-644v220h1536v-220h-644v-492h252z" />
    <glyph glyph-name="tbar" unicode="&#x167;" horiz-adv-x="1000" 
d="M824 1036v-184h-292v-412q0 -100 29.5 -149.5t76 -66t98.5 -16.5q39 0 64 4.5t40 7.5l48 -212q-24 -9 -67 -18.5t-109 -9.5q-100 0 -195.5 43t-158 131t-62.5 222v476h-352v184h352v280h-232v220h232v328h236v-328h328v-220h-328v-280h292z" />
    <glyph glyph-name="Utilde" unicode="&#x168;" horiz-adv-x="2088" 
d="M1356 2612l180 -16q0 -156 -87.5 -248t-216.5 -92q-69 0 -114 19.5t-80 44.5t-74 44.5t-96 19.5t-94.5 -44.5t-37.5 -107.5l-184 8q0 153 87.5 250.5t216.5 97.5q76 0 130.5 -32t108 -64t125.5 -32q57 0 96.5 44.5t39.5 107.5zM1592 2048h248v-1356q0 -230 -109 -393
t-290 -249t-397 -86t-397 86t-290 249t-109 393v1356h248v-1356q0 -160 76 -270.5t201 -168t271 -57.5t271 57.5t201 168t76 270.5v1356z" />
    <glyph glyph-name="utilde" unicode="&#x169;" horiz-adv-x="1636" 
d="M1076 2100l180 -16q0 -156 -87.5 -248t-216.5 -92q-69 0 -114 19.5t-80 44.5t-74 44.5t-96 19.5t-94.5 -44.5t-37.5 -107.5l-184 8q0 153 87.5 250.5t216.5 97.5q76 0 130.5 -32t108 -64t125.5 -32q57 0 96.5 44.5t39.5 107.5zM1184 608v928h236v-1536h-236v216h-16
q-57 -87 -169.5 -161.5t-286.5 -74.5q-112 0 -226.5 61t-192 189t-77.5 330v976h236v-976q0 -168 94.5 -260t241.5 -92q88 0 179.5 40t154 128t62.5 232z" />
    <glyph glyph-name="Umacron" unicode="&#x16a;" horiz-adv-x="2088" 
d="M1524 2528v-204h-940v204h940zM1592 2048h248v-1356q0 -230 -109 -393t-290 -249t-397 -86t-397 86t-290 249t-109 393v1356h248v-1356q0 -160 76 -270.5t201 -168t271 -57.5t271 57.5t201 168t76 270.5v1356z" />
    <glyph glyph-name="umacron" unicode="&#x16b;" horiz-adv-x="1636" 
d="M1300 2016v-204h-940v204h940zM1184 608v928h236v-1536h-236v216h-16q-57 -87 -169.5 -161.5t-286.5 -74.5q-112 0 -226.5 61t-192 189t-77.5 330v976h236v-976q0 -168 94.5 -260t241.5 -92q88 0 179.5 40t154 128t62.5 232z" />
    <glyph glyph-name="Ubreve" unicode="&#x16c;" horiz-adv-x="2088" 
d="M1240 2584h220q0 -162 -112 -265t-304 -103q-189 0 -300.5 103t-111.5 265h220q0 -78 43.5 -137t148.5 -59t150.5 59t45.5 137zM1592 2048h248v-1356q0 -230 -109 -393t-290 -249t-397 -86t-397 86t-290 249t-109 393v1356h248v-1356q0 -160 76 -270.5t201 -168
t271 -57.5t271 57.5t201 168t76 270.5v1356z" />
    <glyph glyph-name="ubreve" unicode="&#x16d;" horiz-adv-x="1636" 
d="M1016 2072h220q0 -162 -112 -265t-304 -103q-189 0 -300.5 103t-111.5 265h220q0 -78 43.5 -137t148.5 -59t150.5 59t45.5 137zM1184 608v928h236v-1536h-236v216h-16q-57 -87 -169.5 -161.5t-286.5 -74.5q-112 0 -226.5 61t-192 189t-77.5 330v976h236v-976
q0 -168 94.5 -260t241.5 -92q88 0 179.5 40t154 128t62.5 232z" />
    <glyph glyph-name="Uring" unicode="&#x16e;" horiz-adv-x="2088" 
d="M680 2576q0 96 48.5 176t131 128t184.5 48t183.5 -48t129 -128t47.5 -176q0 -144 -103.5 -242t-256.5 -98q-102 0 -184.5 45t-131 122t-48.5 173zM852 2576q0 -72 54 -130t138 -58t138 58t54 130q0 75 -54 135.5t-138 60.5t-138 -60.5t-54 -135.5zM1592 2048h248v-1356
q0 -230 -109 -393t-290 -249t-397 -86t-397 86t-290 249t-109 393v1356h248v-1356q0 -160 76 -270.5t201 -168t271 -57.5t271 57.5t201 168t76 270.5v1356z" />
    <glyph glyph-name="uring" unicode="&#x16f;" horiz-adv-x="1636" 
d="M456 2064q0 96 48.5 176t131 128t184.5 48t183.5 -48t129 -128t47.5 -176q0 -144 -103.5 -242t-256.5 -98q-102 0 -184.5 45t-131 122t-48.5 173zM628 2064q0 -72 54 -130t138 -58t138 58t54 130q0 75 -54 135.5t-138 60.5t-138 -60.5t-54 -135.5zM1184 608v928h236
v-1536h-236v216h-16q-57 -87 -169.5 -161.5t-286.5 -74.5q-112 0 -226.5 61t-192 189t-77.5 330v976h236v-976q0 -168 94.5 -260t241.5 -92q88 0 179.5 40t154 128t62.5 232z" />
    <glyph glyph-name="Uhungarumlaut" unicode="&#x170;" horiz-adv-x="2088" 
d="M1104 2216l308 424h264l-364 -424h-208zM692 2216l224 424h260l-296 -424h-188zM1592 2048h248v-1356q0 -230 -109 -393t-290 -249t-397 -86t-397 86t-290 249t-109 393v1356h248v-1356q0 -160 76 -270.5t201 -168t271 -57.5t271 57.5t201 168t76 270.5v1356z" />
    <glyph glyph-name="uhungarumlaut" unicode="&#x171;" horiz-adv-x="1636" 
d="M880 1704l308 424h264l-364 -424h-208zM468 1704l224 424h260l-296 -424h-188zM1184 608v928h236v-1536h-236v216h-16q-57 -87 -169.5 -161.5t-286.5 -74.5q-112 0 -226.5 61t-192 189t-77.5 330v976h236v-976q0 -168 94.5 -260t241.5 -92q88 0 179.5 40t154 128
t62.5 232z" />
    <glyph glyph-name="Uogonek" unicode="&#x172;" horiz-adv-x="2088" 
d="M1592 2048h248v-1356q0 -203 -86 -354t-232.5 -243.5t-328.5 -119.5q-53 -48 -87 -101t-34 -114q0 -45 22 -70.5t82 -25.5q45 0 80 12t56 24l16 -176q-33 -21 -86.5 -40.5t-137.5 -19.5q-114 0 -193 67.5t-79 196.5q0 61 24 122.5t78 119.5q-191 21 -346.5 112
t-247.5 245.5t-92 364.5v1356h248v-1356q0 -160 76 -270.5t201 -168t271 -57.5t271 57.5t201 168t76 270.5v1356z" />
    <glyph glyph-name="uogonek" unicode="&#x173;" horiz-adv-x="1636" 
d="M1164 84l20 -16v148h-16q-57 -87 -169.5 -161.5t-286.5 -74.5q-112 0 -226.5 61t-192 189t-77.5 330v976h236v-976q0 -168 94.5 -260t241.5 -92q88 0 179.5 40t154 128t62.5 232v928h236v-1536h-148q-90 -66 -161 -140t-71 -164q0 -45 22 -70.5t82 -25.5q45 0 80 12
t56 24l16 -176q-33 -21 -86.5 -40.5t-137.5 -19.5q-114 0 -193 67.5t-79 196.5q0 111 83 220.5t281 199.5z" />
    <glyph glyph-name="Wcircumflex" unicode="&#x174;" horiz-adv-x="2672" 
d="M1096 2304h-192v16l364 376h136l368 -376v-16h-192l-244 240zM312 2048l428 -1668h20l436 1668h280l436 -1668h20l428 1668h252l-560 -2048h-256l-452 1632h-16l-452 -1632h-256l-560 2048h252z" />
    <glyph glyph-name="wcircumflex" unicode="&#x175;" horiz-adv-x="2288" 
d="M904 1792h-192v16l364 376h136l368 -376v-16h-192l-244 240zM2192 1536l-468 -1536h-232l-336 1180h-24l-336 -1180h-232l-468 1536h248l332 -1176h16l328 1176h252l324 -1172h16l332 1172h248z" />
    <glyph glyph-name="Ycircumflex" unicode="&#x176;" horiz-adv-x="1880" 
d="M700 2304h-192v16l364 376h136l368 -376v-16h-192l-244 240zM360 2048l568 -956h24l568 956h284l-740 -1204v-844h-248v844l-740 1204h284z" />
    <glyph glyph-name="ycircumflex" unicode="&#x177;" horiz-adv-x="1568" 
d="M540 1792h-192v16l364 376h136l368 -376v-16h-192l-244 240zM612 -152l54 142l-570 1546h256l423 -1224h17l424 1224h256l-660 -1784q-130 -348 -452 -348q-60 0 -107 9.5t-65 18.5l60 208q84 -20 149.5 -14t118 57t96.5 165z" />
    <glyph glyph-name="Ydieresis" unicode="&#x178;" horiz-adv-x="1880" 
d="M656 2268q-63 0 -111.5 48.5t-48.5 111.5q0 69 48.5 114.5t111.5 45.5q69 0 114.5 -45.5t45.5 -114.5q0 -63 -45.5 -111.5t-114.5 -48.5zM1224 2268q-63 0 -111.5 48.5t-48.5 111.5q0 69 48.5 114.5t111.5 45.5q69 0 114.5 -45.5t45.5 -114.5q0 -63 -45.5 -111.5
t-114.5 -48.5zM360 2048l568 -956h24l568 956h284l-740 -1204v-844h-248v844l-740 1204h284z" />
    <glyph glyph-name="Zacute" unicode="&#x179;" horiz-adv-x="1760" 
d="M756 2232l240 408h244l-308 -408h-176zM1592 220v-220h-1412v180l1105 1648h-1117v220h1412v-180l-1105 -1648h1117z" />
    <glyph glyph-name="zacute" unicode="&#x17a;" horiz-adv-x="1524" 
d="M636 1720l240 408h244l-308 -408h-176zM1364 220v-220h-1188v200l862 1116h-878v220h1184v-188l-860 -1128h880z" />
    <glyph glyph-name="Zdotaccent" unicode="&#x17b;" horiz-adv-x="1760" 
d="M724 2428q0 66 39 111t117 45t119 -45t41 -111q0 -63 -41 -105.5t-119 -42.5t-117 42.5t-39 105.5zM1592 220v-220h-1412v180l1105 1648h-1117v220h1412v-180l-1105 -1648h1117z" />
    <glyph glyph-name="zdotaccent" unicode="&#x17c;" horiz-adv-x="1524" 
d="M604 1916q0 66 39 111t117 45t119 -45t41 -111q0 -63 -41 -105.5t-119 -42.5t-117 42.5t-39 105.5zM1364 220v-220h-1188v200l862 1116h-878v220h1184v-188l-860 -1128h880z" />
    <glyph glyph-name="Zcaron" unicode="&#x17d;" horiz-adv-x="1760" 
d="M640 2628l240 -240l244 240h192v-16l-368 -376h-136l-364 376v16h192zM1592 220v-220h-1412v180l1105 1648h-1117v220h1412v-180l-1105 -1648h1117z" />
    <glyph glyph-name="zcaron" unicode="&#x17e;" horiz-adv-x="1524" 
d="M520 2116l240 -240l244 240h192v-16l-368 -376h-136l-364 376v16h192zM1364 220v-220h-1188v200l862 1116h-878v220h1184v-188l-860 -1128h880z" />
    <glyph glyph-name="longs" unicode="&#x17f;" horiz-adv-x="752" 
d="M316 0h-276v1640q0 243 127 371.5t349 128.5q48 0 98 -8t98 -20l-32 -204q-48 12 -120 12q-120 0 -182 -74t-62 -206v-1640z" />
    <glyph glyph-name="bbar" unicode="&#x180;" horiz-adv-x="1732" 
d="M232 2048h236v-128h420v-184h-420v-444h20q26 40 72.5 102.5t134 112t237.5 49.5q194 0 342 -97t231 -275t83 -420q0 -244 -83 -422.5t-230 -276t-339 -97.5q-148 0 -237 49.5t-137 113t-74 105.5h-28v-236h-228v1736h-224v184h224v128zM1352 768q0 162 -49.5 292.5
t-149 207t-249.5 76.5q-216 0 -328 -159t-112 -417q0 -261 113.5 -424.5t326.5 -163.5q148 0 247.5 78.5t150 212t50.5 297.5z" />
    <glyph glyph-name="Bhook" unicode="&#x181;" horiz-adv-x="2132" 
d="M1288 0h-740v1828h-128q-80 0 -118.5 -35.5t-50 -92t-11.5 -120.5v-76h-232v136q0 168 105 288t303 120h848q214 0 353 -73.5t207 -197t68 -273.5q0 -133 -46.5 -219t-122.5 -136t-163 -74v-19q94 -6 189 -66t159 -172t64 -274q0 -154 -70 -277t-221 -195t-393 -72z
M796 1828v-680h460q168 0 284 97t116 259q0 135 -94 229.5t-298 94.5h-468zM1736 544q0 104 -53 192.5t-151 142t-232 53.5h-504v-712h492q243 0 345.5 94.5t102.5 229.5z" />
    <glyph glyph-name="Btopbar" unicode="&#x182;" horiz-adv-x="1856" 
d="M1484 2048v-220h-988v-640h520q330 0 505 -158.5t175 -425.5t-175 -435.5t-505 -168.5h-768v2048h1236zM496 216h520q140 0 237.5 56.5t148 146t50.5 189.5q0 147 -113 253.5t-323 106.5h-520v-752z" />
    <glyph glyph-name="btopbar" unicode="&#x183;" horiz-adv-x="1716" 
d="M216 2048h1184v-220h-948v-536h20q26 40 72.5 102.5t134 112t237.5 49.5q194 0 342 -97t231 -275t83 -420q0 -244 -83 -422.5t-230 -276t-339 -97.5q-148 0 -237 49.5t-137 113t-74 105.5h-28v-236h-228v2048zM1336 768q0 162 -49.5 292.5t-149 207t-249.5 76.5
q-216 0 -328 -159t-112 -417q0 -261 113.5 -424.5t326.5 -163.5q148 0 247.5 78.5t150 212t50.5 297.5z" />
    <glyph glyph-name="Tonesix" unicode="&#x184;" horiz-adv-x="2012" 
d="M28 2048h728v-860h520q330 0 505 -158.5t175 -425.5t-175 -435.5t-505 -168.5h-768v1828h-480v220zM756 216h520q140 0 237.5 56.5t148 146t50.5 189.5q0 147 -113 253.5t-323 106.5h-520v-752z" />
    <glyph glyph-name="tonesix" unicode="&#x185;" horiz-adv-x="1776" 
d="M328 2112h64v-64h192v-756h20q26 40 72.5 102.5t134 112t237.5 49.5q194 0 342 -97t231 -275t83 -420q0 -244 -83 -422.5t-230 -276t-339 -97.5q-148 0 -237 49.5t-137 113t-74 105.5h-28v-236h-228v1440h-20l-224 280v112zM1468 768q0 162 -49.5 292.5t-149 207
t-249.5 76.5q-216 0 -328 -159t-112 -417q0 -261 113.5 -424.5t326.5 -163.5q148 0 247.5 78.5t150 212t50.5 297.5z" />
    <glyph glyph-name="Oopen" unicode="&#x186;" horiz-adv-x="2048" 
d="M160 1408q38 210 155 359.5t290 229t379 79.5q262 0 466 -128t321 -364t117 -560t-117 -560t-321 -364t-466 -128q-206 0 -379 79.5t-290 229t-155 359.5h248q30 -142 115 -239t205 -147t256 -50q186 0 336.5 94t239 277t88.5 449t-88.5 449t-239 277t-336.5 94
q-136 0 -256 -50t-205 -147t-115 -239h-248z" />
    <glyph glyph-name="Chook" unicode="&#x187;" horiz-adv-x="2172" 
d="M1896 1408h-248q-30 142 -115 239t-205 147t-256 50q-186 0 -336.5 -94t-239 -277t-88.5 -449t88.5 -449t239 -277t336.5 -94q136 0 256 50t205 147t115 239h248q-38 -210 -155 -359.5t-290 -229t-379 -79.5q-262 0 -466 128t-321 364t-117 560t117 560t321 364t466 128
q379 0 615 -247q43 120 143.5 183.5t229.5 63.5q36 0 72.5 -1.5t63.5 -10.5v-200q-15 3 -35 5.5t-41 2.5q-96 0 -160 -44t-64 -164v-256z" />
    <glyph glyph-name="chook" unicode="&#x188;" horiz-adv-x="1720" 
d="M1444 1076h-236q-27 105 -119.5 186.5t-248.5 81.5q-207 0 -333.5 -157.5t-126.5 -418.5q0 -267 125 -427.5t335 -160.5q138 0 236.5 71t131.5 197h236q-20 -136 -98.5 -244.5t-207 -172t-298.5 -63.5q-214 0 -370 101.5t-241 282t-85 416.5q0 230 86.5 408t242 279
t363.5 101q232 0 397 -121q42 123 143 188t232 65q36 0 72.5 -1.5t63.5 -10.5v-200q-15 3 -35 5.5t-41 2.5q-96 0 -160 -44t-64 -164v-200z" />
    <glyph glyph-name="Dbar1" unicode="&#x189;" horiz-adv-x="2120" 
d="M976 0h-632v912h-304v184h304v952h660q298 0 510 -122.5t325 -351t113 -546.5q0 -320 -114 -550.5t-332 -354t-530 -123.5zM920 1096v-184h-328v-692h368q381 0 566.5 216.5t185.5 591.5q0 372 -182 586t-542 214h-396v-732h328z" />
    <glyph glyph-name="Dhook" unicode="&#x18a;" horiz-adv-x="2340" 
d="M1196 0h-632v1828h-144q-80 0 -118.5 -35.5t-50 -92t-11.5 -120.5v-76h-232v136q0 168 105 288t303 120h808q298 0 510 -122.5t325 -351t113 -546.5q0 -320 -114 -550.5t-332 -354t-530 -123.5zM1208 1828h-396v-1608h368q381 0 566.5 216.5t185.5 591.5q0 372 -182 586
t-542 214z" />
    <glyph glyph-name="Dtopbar" unicode="&#x18b;" horiz-adv-x="1776" 
d="M1612 0h-764q-330 0 -507 168.5t-177 435.5t177 429.5t507 162.5h480v576h-948v232h1232v-2004zM1328 228v736h-480q-213 0 -304.5 -104.5t-91.5 -251.5q0 -100 40 -186.5t127 -140t229 -53.5h480z" />
    <glyph glyph-name="dtopbar" unicode="&#x18c;" horiz-adv-x="1716" 
d="M1500 0h-228v236h-24q-26 -42 -75 -105.5t-139 -113t-238 -49.5q-192 0 -339 97.5t-230 276t-83 422.5q0 242 83 420t231 275t342 97q150 0 238.5 -49.5t136 -112t73.5 -102.5h16v536h-948v220h1184v-2048zM380 768q0 -164 50.5 -297.5t150 -212t247.5 -78.5
q213 0 326.5 163.5t113.5 424.5q0 258 -112 417t-328 159q-150 0 -249.5 -76.5t-149 -207t-49.5 -292.5z" />
    <glyph glyph-name="deltaturn" unicode="&#x18d;" horiz-adv-x="1520" 
d="M1236 -516h-976v212h608q-22 28 -68 73.5t-100 94t-100 84.5q-146 128 -260 254.5t-179 262t-65 291.5v28q0 208 78.5 373.5t227 262t358.5 96.5t359.5 -96.5t229 -262t79.5 -373.5v-28q0 -166 -73.5 -305t-213 -231t-337.5 -116q-12 -3 -22 -3.5t-22 -0.5
q120 -111 248.5 -224.5t227.5 -227.5v-164zM1152 756v28q0 138 -40.5 254.5t-127 187t-224.5 70.5q-136 0 -222.5 -70.5t-128 -187t-41.5 -254.5v-28q0 -162 76 -283.5t172 -184.5q48 -16 120 -16q144 0 236 67.5t136 178t44 238.5z" />
    <glyph glyph-name="Eturn" unicode="&#x18e;" horiz-adv-x="1668" 
d="M192 0v220h988v692h-884v220h884v696h-1004v220h1252v-2048h-1236z" />
    <glyph glyph-name="Schwa" unicode="&#x18f;" horiz-adv-x="2032" 
d="M1016 -28q-411 0 -619.5 248.5t-208.5 671.5v172h1372q-1 204 -65 370t-201.5 264t-357.5 98q-177 0 -295 -35.5t-193 -68.5l-68 208q28 18 99 49.5t185 57t272 25.5q294 0 497.5 -125t309 -345t105.5 -506v-116q0 -286 -112 -504t-301 -341t-419 -123zM1016 204
q161 0 277 85t183 231t81 328h-1085v-44q0 -168 51 -304t170 -216t323 -80z" />
    <glyph glyph-name="Epsilon1" unicode="&#x190;" horiz-adv-x="1776" 
d="M887 1136h224v-228h-224q-216 0 -326 -84.5t-110 -267.5q0 -180 123 -268t333 -88q195 0 307.5 104.5t112.5 251.5h284q0 -153 -60.5 -263.5t-162.5 -181.5t-227 -105t-254 -34q-210 0 -378.5 59.5t-267 189t-98.5 339.5q0 172 90 289.5t256 175.5q-145 60 -229.5 170.5
t-84.5 264.5q0 279 195.5 425.5t516.5 146.5q184 0 337.5 -67t246 -191t92.5 -294h-284q0 141 -110.5 230.5t-281.5 89.5q-225 0 -326.5 -97.5t-101.5 -238.5q0 -144 93 -236t315 -92z" />
    <glyph glyph-name="Fhook" unicode="&#x191;" horiz-adv-x="1644" 
d="M1344 1136v-220h-848v-1080q0 -198 -120 -305t-288 -107q-36 0 -72.5 1.5t-63.5 10.5v204q15 -3 35 -5.5t41 -2.5q96 0 158 44t62 164v2208h1228v-220h-980v-692h848z" />
    <glyph glyph-name="florin" unicode="&#x192;" horiz-adv-x="1088" 
d="M912 1488v-204h-280v-1408q0 -231 -113 -353.5t-323 -122.5q-42 0 -79.5 4t-76.5 16l20 216q21 -9 69.5 -12.5t66.5 -3.5q81 0 134.5 68t53.5 188v1408h-248v204h248v152q0 243 121 371.5t307 128.5q57 0 127 -10.5t109 -25.5l-60 -216q-21 6 -48.5 11t-63.5 5
q-244 0 -244 -264v-152h280z" />
    <glyph glyph-name="Ghook" unicode="&#x193;" horiz-adv-x="2176" 
d="M1916 1016v-220q0 -252 -110 -437t-299 -286t-427 -101q-266 0 -472 128t-323 364t-117 560t116.5 560t319 364t460.5 128q193 0 353 -71.5t277 -204.5q86 236 370 236q36 0 72.5 -1.5t63.5 -10.5v-200q-15 3 -35 5.5t-41 2.5q-96 0 -160 -44t-64 -164v-216h-252
q-72 213 -229 324.5t-355 111.5q-182 0 -331 -94t-237 -277t-88 -449t89 -449t241 -277t342 -94q174 0 308.5 75.5t211 209t76.5 307.5h-500v220h740z" />
    <glyph glyph-name="Gamma1" unicode="&#x194;" horiz-adv-x="1776" 
d="M28 2048h268l589 -1396l595 1396h268l-734 -1702q73 -169 128.5 -283t86.5 -193t31 -142q0 -156 -99 -242t-273 -86t-273 86t-99 242q0 64 30 144t84.5 197t129.5 290zM768 -272q0 -42 33 -73t87 -31t87 32.5t33 71.5q0 51 -30 126t-88 205q-55 -125 -88.5 -202.5
t-33.5 -128.5z" />
    <glyph glyph-name="hv" unicode="&#x195;" horiz-adv-x="2576" 
d="M452 928v-928h-236v2048h236v-728h16q57 87 169.5 161.5t286.5 74.5q216 0 356 -143t140 -437v-368q0 -135 35 -219.5t90 -129.5t115.5 -62t111.5 -17t111.5 17t115.5 62t90 129.5t35 219.5v928h236v-928q0 -226 -76 -366t-209 -205t-303 -65t-303 65t-209 205t-76 366
v368q0 168 -93 260t-243 92q-92 0 -183.5 -40t-152 -128t-60.5 -232z" />
    <glyph glyph-name="Iota1" unicode="&#x196;" horiz-adv-x="1008" 
d="M444 2112v-1640q0 -129 62 -204.5t182 -75.5q36 0 66 5t54 11l32 -208q-48 -12 -98 -20t-98 -8q-222 0 -349 130t-127 370v1640h276z" />
    <glyph glyph-name="Istroke" unicode="&#x197;" horiz-adv-x="800" 
d="M840 1192v-184h-304v-1008h-248v1008h-328v184h328v856h248v-856h304z" />
    <glyph glyph-name="Khook" unicode="&#x198;" horiz-adv-x="1892" 
d="M1464 0l-711 953l-257 -287v-666h-248v2048h248v-1016h24l732 808l80 88q120 132 266.5 143.5t269.5 -75.5l-100 -184q-66 42 -134 34.5t-146 -94.5l-44 -48l-538 -580l858 -1124h-300z" />
    <glyph glyph-name="khook" unicode="&#x199;" horiz-adv-x="1500" 
d="M1176 0l-540 708l-184 -200v-508h-236v1664q0 198 116 305t284 107q36 0 72.5 -1.5t63.5 -10.5v-200q-15 3 -35 5.5t-41 2.5q-96 0 -160 -44t-64 -164v-820h20l624 692h300l-604 -656l668 -880h-284z" />
    <glyph glyph-name="lbar" unicode="&#x19a;" horiz-adv-x="840" 
d="M860 1192v-184h-328v-1008h-236v1008h-316v184h316v856h236v-856h328z" />
    <glyph glyph-name="lambdabar" unicode="&#x19b;" horiz-adv-x="1776" 
d="M468 2088q140 0 214.5 -50.5t115.5 -141.5l146 56v-236l-66 -25l530 -1367q27 -66 55 -89t73 -23h48l8 -220q-15 -6 -45 -11t-63 -5q-82 0 -142 17.5t-108 76t-94 182.5l-309 789l-375 -1041h-304l535 1407l-75 183l-344 -130v232l259 100q-25 43 -56.5 59.5t-74.5 16.5
q-12 0 -32 -0.5t-32 -3.5v208q18 6 62 11t74 5z" />
    <glyph glyph-name="mcapturn" unicode="&#x19c;" horiz-adv-x="2544" 
d="M2056 0l-7 162q-68 -89 -173 -139.5t-252 -50.5q-149 0 -260.5 60.5t-170.5 207.5q-66 -124 -183.5 -196t-293.5 -72q-148 0 -257.5 60t-170 199t-60.5 377v1396h276v-1396q0 -164 37.5 -252.5t96 -122t122.5 -33.5q167 0 257.5 83.5t122.5 217.5q-4 51 -4 107v1396h272
v-1396q0 -164 38.5 -252.5t98 -122t123.5 -33.5q167 0 256 83t120 217v1504h272v-2004h-260z" />
    <glyph glyph-name="Nhook" unicode="&#x19d;" horiz-adv-x="2080" 
d="M1832 2048v-2048h-240l-1076 1604h-20v-1768q0 -198 -120 -305t-288 -107q-36 0 -72.5 1.5t-63.5 10.5v204q15 -3 35 -5.5t41 -2.5q96 0 158 44t62 164v2208h240l1080 -1612h20v1612h244z" />
    <glyph glyph-name="nlegrightlong" unicode="&#x19e;" horiz-adv-x="1620" 
d="M444 908v-908h-236v1536h236v-260h16q54 117 168 198.5t288 81.5q216 0 356 -143t140 -437v-1552h-236v1536q0 168 -94.5 268t-241.5 100q-88 0 -179.5 -45t-154 -138t-62.5 -237z" />
    <glyph glyph-name="Obar" unicode="&#x19f;" horiz-adv-x="2144" 
d="M1976 1024q0 -324 -117 -560t-321 -364t-466 -128t-466 128t-321 364t-117 560t117 560t321 364t466 128t466 -128t321 -364t117 -560zM1072 1844q-171 0 -313 -80t-233.5 -235.5t-112.5 -381.5q159 35 291 35t250.5 -17t237 -35.5t250 -23.5t290.5 22
q-18 233 -109 392.5t-234.5 241.5t-316.5 82zM1072 204q172 0 314 80.5t233.5 236.5t111.5 384q-159 -36 -290.5 -37t-250.5 16t-237.5 35.5t-250 24t-290.5 -19.5q17 -234 108 -394.5t234.5 -243t317.5 -82.5z" />
    <glyph glyph-name="Ohorn" unicode="&#x1a0;" horiz-adv-x="2180" 
d="M1976 1024q0 -324 -117 -560t-321 -364t-466 -128t-466 128t-321 364t-117 560t117 560t321 364t466 128q181 0 336 -62t273 -179q115 23 169 116.5t54 244.5h236q0 -210 -81 -346t-243 -188q77 -127 118.5 -287.5t41.5 -350.5zM1736 1024q0 266 -88.5 449t-239 277
t-336.5 94t-336.5 -94t-239 -277t-88.5 -449t88.5 -449t239 -277t336.5 -94t336.5 94t239 277t88.5 449z" />
    <glyph glyph-name="ohorn" unicode="&#x1a1;" horiz-adv-x="1700" 
d="M840 -32q-208 0 -364.5 99t-244 277t-87.5 416q0 240 87.5 419t244 278t364.5 99q155 0 282.5 -56t218.5 -159q79 31 101 113t22 198h220q0 -172 -55 -292t-186 -170q93 -186 93 -430q0 -238 -87.5 -416t-244 -277t-364.5 -99zM840 180q158 0 260 81t151 213t49 286
t-49 287t-151 215t-260 82t-260 -82t-151 -215t-49 -287t49 -286t151 -213t260 -81z" />
    <glyph glyph-name="OI" unicode="&#x1a2;" horiz-adv-x="2288" 
d="M2152 2004v-2576h-276v2304l-196 -71v-1389q-36 -56 -114 -126.5t-220 -122t-370 -51.5q-242 0 -432 110t-299 324t-109 526v140q0 302 108.5 517t298 329t433.5 114q232 0 374.5 -54.5t222.5 -122.5l367 149h212zM976 1800q-252 0 -404 -190t-152 -538v-140
q0 -330 143 -531t425 -201q138 0 220.5 24.5t128 58t71.5 61.5v1312q-26 30 -72 63.5t-131 57t-229 23.5z" />
    <glyph glyph-name="oi" unicode="&#x1a3;" horiz-adv-x="1776" 
d="M1680 1488v-2060h-272v1704l-168 -99v-845q-81 -96 -206.5 -156t-269.5 -60q-228 0 -376 103.5t-220 273t-72 367.5v56q0 198 73 367.5t221 273t374 103.5q137 0 247 -43.5t187 -121.5l266 137h216zM764 192q57 0 107.5 16.5t92.5 43.5v980q-83 64 -200 64
q-154 0 -239 -78.5t-119 -199t-34 -246.5v-56q0 -249 103 -386.5t289 -137.5z" />
    <glyph glyph-name="Phook" unicode="&#x1a4;" horiz-adv-x="2084" 
d="M1236 740h-440v-740h-248v1828h-128q-80 0 -118.5 -35.5t-50 -92t-11.5 -120.5v-76h-232v136q0 168 105 288t303 120h816q240 0 392 -85.5t224 -232t72 -330.5t-72 -333.5t-223 -238t-389 -88.5zM796 1828v-868h440q164 0 260.5 57.5t138 157t41.5 225.5
q0 189 -97.5 308.5t-346.5 119.5h-436z" />
    <glyph glyph-name="phook" unicode="&#x1a5;" horiz-adv-x="1716" 
d="M216 -576v2112v0q3 168 114.5 266t277.5 98q36 0 72.5 -1.5t63.5 -10.5v-200q-15 3 -35 5.5t-41 2.5q-96 0 -160 -44t-64 -164v-196h28q26 40 72.5 102.5t134 112t237.5 49.5q194 0 342 -97t231 -275t83 -420q0 -244 -83 -422.5t-230 -276t-339 -97.5q-148 0 -237 49.5
t-137 113t-74 105.5h-20v-812h-236zM1336 768q0 162 -49.5 292.5t-149 207t-249.5 76.5q-216 0 -328 -159t-112 -417q0 -261 113.5 -424.5t326.5 -163.5q148 0 247.5 78.5t150 212t50.5 297.5z" />
    <glyph glyph-name="YR" unicode="&#x1a6;" horiz-adv-x="2032" 
d="M1576 -496l-693 1304h-443v-808h-288v2144h288v-140h380q342 0 523 -155t181 -449q0 -184 -97.5 -322.5t-274.5 -210.5l728 -1347v-16h-304zM440 1772v-736h380q210 0 315 105.5t105 258.5q0 168 -97.5 270t-322.5 102h-380z" />
    <glyph glyph-name="Tonetwo" unicode="&#x1a7;" horiz-adv-x="1776" 
d="M448 508q0 -141 105.5 -224.5t306.5 -83.5q126 0 233.5 41t173 126t65.5 217h284q0 -148 -65 -262.5t-173.5 -192t-243 -117.5t-274.5 -40q-214 0 -371 67.5t-243 189t-86 283.5q0 231 155.5 376t500.5 244q234 66 343 147.5t109 204.5q0 138 -96 227t-300 89
q-219 0 -321.5 -105.5t-102.5 -270.5h-288q0 154 82 293t241 227t389 88q208 0 361.5 -73t238 -198t84.5 -281q0 -231 -177 -369.5t-471 -222.5q-186 -56 -285.5 -108t-137 -116t-37.5 -156z" />
    <glyph glyph-name="tonetwo" unicode="&#x1a8;" horiz-adv-x="1520" 
d="M440 396q0 -87 77 -145.5t227 -58.5q76 0 152 25.5t129 86t59 164.5h276q0 -126 -70.5 -239.5t-208 -185t-337.5 -71.5q-174 0 -304.5 57t-203 158t-72.5 233q0 180 131.5 280.5t404.5 163.5q136 30 207.5 60t98 68t26.5 92q0 78 -65 145t-215 67q-144 0 -220 -80.5
t-76 -167.5h-276q0 128 68 234.5t196 170t308 63.5q168 0 293 -61t194 -161t69 -218q0 -183 -145.5 -280.5t-394.5 -151.5q-142 -28 -212 -65t-93 -83t-23 -100z" />
    <glyph glyph-name="Esh" unicode="&#x1a9;" horiz-adv-x="1776" 
d="M1124 1012v-28l-599 -752h1051v-232h-1408v208l652 788l-652 796v212h1344v-232h-989z" />
    <glyph glyph-name="eshlooprev" unicode="&#x1aa;" horiz-adv-x="1520" 
d="M156 1676q0 130 63 236t169 169t236 63q128 0 234.5 -63t170 -169t63.5 -236v-1756q0 -141 47 -196.5t137 -55.5q18 0 42.5 3t45.5 9v-216q-30 -12 -77 -18t-83 -6q-195 0 -291.5 123t-96.5 357v1330q-92 -42 -192 -42q-130 0 -236 63.5t-169 170t-63 234.5zM624 1460
q87 0 147.5 54.5t60.5 165.5q0 108 -60.5 164t-147.5 56q-90 0 -151 -56t-61 -164q0 -111 61 -165.5t151 -54.5z" />
    <glyph glyph-name="tpalatalhook" unicode="&#x1ab;" horiz-adv-x="1008" 
d="M860 1536v-220h-328v-876q0 -100 29.5 -149.5t76 -66t98.5 -16.5q23 0 44 2l108 22v-396q0 -198 -116 -305t-284 -107q-36 0 -72.5 1.5t-63.5 10.5v200q15 -3 35 -5.5t41 -2.5q96 0 160 44t64 164v148q-90 11 -171.5 58t-133 130t-51.5 204v940h-232v220h232v328h236
v-328h328z" />
    <glyph glyph-name="Thook" unicode="&#x1ac;" horiz-adv-x="1776" 
d="M1672 2048v-220h-644v-1828h-248v1828h-348q-105 0 -144.5 -70.5t-39.5 -157.5v-76h-224v120q0 180 109.5 292t298.5 112h1240z" />
    <glyph glyph-name="thook" unicode="&#x1ad;" horiz-adv-x="1008" 
d="M908 1488v-204h-272v-872q0 -123 48 -165.5t108 -42.5q33 0 67.5 6.5t52.5 9.5v-220q-30 -9 -81 -18.5t-123 -9.5q-141 0 -244.5 101.5t-103.5 338.5v872h-268v204h268v248q0 132 58.5 223t155 138t210.5 47q69 0 136 -20v-184q-18 6 -39.5 9t-36.5 3q-96 0 -152 -48
t-56 -168v-248h272z" />
    <glyph glyph-name="Trthook" unicode="&#x1ae;" horiz-adv-x="1808" 
d="M1672 2048v-220h-644v-1992q0 -120 72 -156t168 -36h76v-220h-136q-112 0 -209.5 47t-158 138t-60.5 223v1996h-644v220h1536z" />
    <glyph glyph-name="Uhorn" unicode="&#x1af;" horiz-adv-x="2404" 
d="M1592 2048h248v-267q132 29 180 128t48 263h232q0 -262 -106.5 -412.5t-353.5 -180.5v-887q0 -230 -109 -393t-290 -249t-397 -86t-397 86t-290 249t-109 393v1356h248v-1356q0 -160 76 -270.5t201 -168t271 -57.5t271 57.5t201 168t76 270.5v1356z" />
    <glyph glyph-name="uhorn" unicode="&#x1b0;" horiz-adv-x="1752" 
d="M1184 608v928h236v-225q88 9 126 42.5t46 95.5t8 155h208q0 -212 -81 -327t-307 -131v-1146h-236v216h-16q-57 -87 -169.5 -161.5t-286.5 -74.5q-112 0 -226.5 61t-192 189t-77.5 330v976h236v-976q0 -168 94.5 -260t241.5 -92q88 0 179.5 40t154 128t62.5 232z" />
    <glyph glyph-name="Upsilon2" unicode="&#x1b1;" horiz-adv-x="1776" 
d="M408 1004v-160q0 -318 129.5 -481t354.5 -163q219 0 349.5 163t130.5 481v160q0 348 -109.5 539.5t-298.5 224.5v236h688v-232h-292q140 -141 220 -346.5t80 -421.5v-156q0 -260 -97 -457.5t-270 -308t-401 -110.5q-230 0 -405 110.5t-273 308t-98 457.5v156
q0 215 80.5 421t220.5 347h-289v232h676v-236q-186 -33 -291 -226t-105 -538z" />
    <glyph glyph-name="Vcursive" unicode="&#x1b2;" horiz-adv-x="1776" 
d="M888 -28q-206 0 -371 75t-261 225t-96 376v1356h284v-1356q0 -231 121.5 -339.5t322.5 -108.5t322.5 108.5t121.5 339.5v904q0 135 -58.5 189.5t-169.5 54.5q-18 0 -44 -1t-44 -7v220q30 9 76.5 16.5t79.5 7.5q198 0 323 -124.5t125 -355.5v-904q0 -226 -102 -376
t-269 -225t-361 -75z" />
    <glyph glyph-name="Yhook" unicode="&#x1b3;" horiz-adv-x="1988" 
d="M360 2048l568 -956h24l404 680l44 72q99 165 242 211t290 -23l-64 -200q-72 30 -137 15.5t-119 -107.5l-40 -68l-508 -828v-844h-248v844l-740 1204h284z" />
    <glyph glyph-name="yhook" unicode="&#x1b4;" horiz-adv-x="1716" 
d="M592 -136l48 136l-544 1536h256l408 -1188l360 1040l20 56q40 112 97 215.5t142 170t209 66.5q78 0 147.5 -27t120.5 -69l-64 -164q-39 21 -82.5 36.5t-85.5 15.5q-93 0 -146.5 -80t-113.5 -248l-20 -56l-540 -1532q-63 -177 -193.5 -274.5t-298.5 -97.5q-20 0 -57.5 3.5
t-73 8t-49.5 8.5v220q9 -3 37 -5.5t79 -2.5q68 0 133.5 14t120 63t90.5 155z" />
    <glyph glyph-name="Zbar" unicode="&#x1b5;" horiz-adv-x="1760" 
d="M1592 220v-220h-1412v180l491 732h-231v184h354l491 732h-1117v220h1412v-180l-517 -772h257v-184h-381l-464 -692h1117z" />
    <glyph glyph-name="zbar" unicode="&#x1b6;" horiz-adv-x="1524" 
d="M1364 220v-220h-1188v200l368 476h-220v184h362l352 456h-878v220h1184v-188l-372 -488h232v-184h-372l-348 -456h880z" />
    <glyph glyph-name="Ezh" unicode="&#x1b7;" horiz-adv-x="1776" 
d="M112 92h288q24 -138 70 -235.5t140 -149t262 -51.5q270 0 389 138t119 426q0 318 -132.5 447t-399.5 129h-308v208l685 768h-1061v232h1396v-204l-700 -784q247 -2 427.5 -84.5t278.5 -257t98 -454.5t-99.5 -454.5t-278 -256t-414.5 -81.5q-244 0 -404.5 88.5t-247 239
t-108.5 336.5z" />
    <glyph glyph-name="Ezhreversed" unicode="&#x1b8;" horiz-adv-x="2032" 
d="M1507 92h284q-22 -186 -108.5 -336.5t-247 -239t-404.5 -88.5q-236 0 -414.5 81.5t-278 256t-99.5 454.5q0 279 98 454t278.5 257.5t428.5 84.5l-697 784v204h1392v-232h-1058l682 -768v-208h-304q-270 0 -401 -129t-131 -447q0 -288 118.5 -426t385.5 -138
q170 0 265 51.5t141 149t70 235.5z" />
    <glyph glyph-name="ezhreversed" unicode="&#x1b9;" horiz-adv-x="1776" 
d="M295 1488h1196v-220h-844l496 -612v-216h-204q-216 0 -328 -93.5t-112 -306.5q0 -156 106 -260t298 -104q112 0 196.5 50t132 133t47.5 181h272q0 -204 -96 -333t-245 -190t-307 -61q-198 0 -351.5 69.5t-241 201t-87.5 317.5q0 271 159 426t449 178l-536 672v168z" />
    <glyph glyph-name="ezhtail" unicode="&#x1ba;" horiz-adv-x="1520" 
d="M400 -176q0 -90 79 -147t229 -57q76 0 152 24.5t129 84t59 163.5h272q0 -124 -70.5 -236.5t-207 -184t-334.5 -71.5q-264 0 -422 123t-158 321q0 180 141.5 283.5t414.5 160.5q183 39 247.5 85t64.5 139q0 78 -65.5 123t-218.5 45h-240v172l532 416h-804v220h1196v-168
l-487 -440q169 -38 266 -137t97 -239q0 -132 -68 -216t-191 -136t-289 -88q-198 -42 -261 -100.5t-63 -139.5z" />
    <glyph glyph-name="twostroke" unicode="&#x1bb;" horiz-adv-x="1680" 
d="M1516 220v-220h-1376v180l712 732h-216v184h389q101 114 150 204t49 188q0 102 -48.5 189.5t-138 141t-213.5 53.5q-138 0 -217.5 -67t-113 -173t-33.5 -224h-244q0 166 62.5 319t198 251t355.5 98q188 0 330.5 -75t222 -206t79.5 -299q0 -99 -40.5 -200t-107.5 -200h200
v-184h-344q-49 -56 -108 -116l-552 -564v-12h1004z" />
    <glyph glyph-name="Tonefive" unicode="&#x1bc;" horiz-adv-x="1680" 
d="M440 948l-236 52l93 812h-205v236h1312v-236h-856l-84 -632h12q57 45 154 82.5t202 37.5q200 0 349.5 -81.5t232 -230t82.5 -348.5q0 -196 -82.5 -346.5t-238 -236t-375.5 -85.5q-162 0 -295 56.5t-218 176t-103 307.5h240q30 -165 133 -246.5t259 -81.5
q116 0 217.5 54.5t164 156t62.5 241.5q0 156 -63 253t-161 142t-204 45q-141 0 -232 -35.5t-160 -92.5z" />
    <glyph glyph-name="tonefive" unicode="&#x1bd;" horiz-adv-x="1520" 
d="M524 648l-236 20l68 584h-228v236h1188v-236h-700l-40 -324q45 30 127.5 55.5t160.5 28.5q249 6 388.5 -130.5t139.5 -385.5q0 -146 -59.5 -264t-189 -187t-339.5 -69q-96 0 -196.5 27t-185.5 82.5t-137.5 139t-52.5 195.5l264 24q0 -111 86.5 -177.5t221.5 -66.5
q165 0 240.5 83.5t75.5 212.5q0 132 -77.5 214t-230.5 82q-117 0 -183 -43.5t-105 -100.5z" />
    <glyph glyph-name="glottalstopbarinv" unicode="&#x1be;" horiz-adv-x="1520" 
d="M1084 396q0 82 -50.5 133t-125 94t-149 96.5t-125 137t-50.5 219.5v208h-268v204h268v356h276v-356h272v-204h-272v-200q0 -102 50.5 -161.5t125 -101t149 -87.5t125 -118t50.5 -196q0 -132 -72.5 -233t-203 -158t-304.5 -57q-200 0 -337.5 71.5t-208 185t-70.5 239.5
h276q4 -104 56 -164.5t129 -86t155 -25.5q147 0 225.5 58.5t78.5 145.5z" />
    <glyph glyph-name="wynn" unicode="&#x1bf;" horiz-adv-x="1776" 
d="M1524 728q0 -273 -120.5 -450t-344 -293t-531.5 -208v-349h-276v2060h252l13 -153q75 88 180.5 134.5t242.5 46.5q190 0 320 -96t197 -267t67 -397v-28zM856 1288q-119 0 -199 -54t-129 -139v-1100q209 58 372 150t255.5 233.5t92.5 349.5v28q0 144 -41.5 265t-128 194
t-222.5 73z" />
    <glyph glyph-name="pipe" unicode="&#x1c0;" horiz-adv-x="748" 
d="M484 2048v-2048h-220v2048h220z" />
    <glyph glyph-name="pipedbl" unicode="&#x1c1;" horiz-adv-x="1008" 
d="M408 2048v-2048h-220v2048h220zM780 2048v-2048h-220v2048h220z" />
    <glyph glyph-name="pipedblbar" unicode="&#x1c2;" horiz-adv-x="1152" 
d="M1016 788v-184h-328v-604h-220v604h-332v184h332v504h-332v184h332v572h220v-572h328v-184h-328v-504h328z" />
    <glyph glyph-name="exclam1" unicode="&#x1c3;" horiz-adv-x="752" 
d="M508 2048l-20 -1472h-232l-20 1472h272zM372 -32q-81 0 -136.5 55.5t-55.5 136.5t55.5 138.5t136.5 57.5q78 0 135 -57.5t57 -138.5t-57 -136.5t-135 -55.5z" />
    <glyph glyph-name="Dzcaron_" unicode="&#x1c5;" horiz-adv-x="3368" 
d="M880 0h-632v2048h660q298 0 510 -122.5t325 -351t113 -546.5q0 -320 -114 -550.5t-332 -354t-530 -123.5zM2372 2048l240 -240l244 240h192v-16l-368 -376h-136l-364 376v16h192zM892 1828h-396v-1608h368q381 0 566.5 216.5t185.5 591.5q0 372 -182 586t-542 214z
M3208 220v-220h-1188v200l862 1116h-878v220h1184v-188l-860 -1128h880z" />
    <glyph glyph-name="dzcaron" unicode="&#x1c6;" horiz-adv-x="2980" 
d="M1500 0h-228v236h-24q-26 -42 -75 -105.5t-139 -113t-238 -49.5q-192 0 -339 97.5t-230 276t-83 422.5q0 242 83 420t231 275t342 97q150 0 238.5 -49.5t136 -112t73.5 -102.5h16v756h236v-2048zM1988 2048l240 -240l244 240h192v-16l-368 -376h-136l-364 376v16h192z
M2820 220v-220h-1188v200l862 1116h-878v220h1184v-188l-860 -1128h880zM380 768q0 -164 50.5 -297.5t150 -212t247.5 -78.5q213 0 326.5 163.5t113.5 424.5q0 258 -112 417t-328 159q-150 0 -249.5 -76.5t-149 -207t-49.5 -292.5z" />
    <glyph glyph-name="LJ" unicode="&#x1c7;" horiz-adv-x="3264" 
d="M1704 220v-220h-1200v2048h248v-1828h952zM2792 584v1464h248v-1464q0 -297 -164 -454.5t-440 -157.5q-162 0 -295.5 66t-213 187t-79.5 287h240q0 -153 108.5 -236.5t255.5 -83.5q80 0 158.5 33t130 118t51.5 241z" />
    <glyph glyph-name="Lj" unicode="&#x1c8;" horiz-adv-x="2508" 
d="M2172 1756q-78 0 -123 47t-45 113q0 60 45 110t123 50t123 -50t45 -110q0 -66 -45 -113t-123 -47zM1704 220v-220h-1200v2048h248v-1828h952zM2056 1536h236v-1648q0 -213 -109 -340.5t-331 -127.5h-48v220h44q108 0 158 65.5t50 182.5v1648z" />
    <glyph glyph-name="lj" unicode="&#x1c9;" horiz-adv-x="1592" 
d="M1256 1756q-78 0 -123 47t-45 113q0 60 45 110t123 50t123 -50t45 -110q0 -66 -45 -113t-123 -47zM708 2048v-2048h-236v2048h236zM1140 1536h236v-1648q0 -213 -109 -340.5t-331 -127.5h-48v220h44q108 0 158 65.5t50 182.5v1648z" />
    <glyph glyph-name="NJ" unicode="&#x1ca;" horiz-adv-x="3760" 
d="M2088 2048v-2048h-240l-1076 1604h-20v-1604h-248v2048h240l1080 -1612h20v1612h244zM3288 584v1464h248v-1464q0 -297 -164 -454.5t-440 -157.5q-162 0 -295.5 66t-213 187t-79.5 287h240q0 -153 108.5 -236.5t255.5 -83.5q80 0 158.5 33t130 118t51.5 241z" />
    <glyph glyph-name="Nj" unicode="&#x1cb;" horiz-adv-x="3004" 
d="M2668 1756q-78 0 -123 47t-45 113q0 60 45 110t123 50t123 -50t45 -110q0 -66 -45 -113t-123 -47zM2088 2048v-2048h-240l-1076 1604h-20v-1604h-248v2048h240l1080 -1612h20v1612h244zM2552 1536h236v-1648q0 -213 -109 -340.5t-331 -127.5h-48v220h44q108 0 158 65.5
t50 182.5v1648z" />
    <glyph glyph-name="nj" unicode="&#x1cc;" horiz-adv-x="2560" 
d="M2224 1756q-78 0 -123 47t-45 113q0 60 45 110t123 50t123 -50t45 -110q0 -66 -45 -113t-123 -47zM708 908v-908h-236v1536h236v-260h16q54 117 168 198.5t288 81.5q216 0 356 -143t140 -437v-976h-236v960q0 168 -94.5 268t-241.5 100q-88 0 -179.5 -45t-154 -138
t-62.5 -237zM2108 1536h236v-1648q0 -213 -109 -340.5t-331 -127.5h-48v220h44q108 0 158 65.5t50 182.5v1648z" />
    <glyph glyph-name="Acaron" unicode="&#x1cd;" horiz-adv-x="1904" 
d="M712 2628l240 -240l244 240h192v-16l-368 -376h-136l-364 376v16h192zM332 0h-260l752 2048h256l752 -2048h-260l-193 548h-854zM940 1724l-337 -956h698l-337 956h-24z" />
    <glyph glyph-name="acaron" unicode="&#x1ce;" horiz-adv-x="1588" 
d="M564 2116l240 -240l244 240h192v-16l-368 -376h-136l-364 376v16h192zM1136 0v208h-12q-24 -50 -80 -107t-149 -97t-227 -40q-146 0 -265 55.5t-189 161t-70 255.5q0 130 52 213t138 130t192 71t214 38q106 14 196 22t145 28t55 70v4q0 192 -91 264t-229 72
q-171 0 -268 -74t-136 -158l-224 80q60 140 160.5 218.5t220 110t235.5 31.5q74 0 170.5 -17.5t187 -71.5t150.5 -163t60 -292v-1012h-236zM1136 556v216q-15 -18 -65.5 -32.5t-116 -25t-127 -18.5t-99.5 -12q-92 -12 -171.5 -38.5t-128 -79t-48.5 -142.5
q0 -123 91.5 -185.5t232.5 -62.5q140 0 236.5 55t146 142t49.5 183z" />
    <glyph glyph-name="Icaron" unicode="&#x1cf;" horiz-adv-x="744" 
d="M116 2628l240 -240l244 240h192v-16l-368 -376h-136l-364 376v16h192zM496 2048v-2048h-248v2048h248z" />
    <glyph glyph-name="icaron" unicode="&#x1d0;" horiz-adv-x="668" 
d="M104 2120l240 -240l244 240h192v-16l-368 -376h-136l-364 376v16h192zM452 1536v-1536h-236v1536h236z" />
    <glyph glyph-name="Ocaron" unicode="&#x1d1;" horiz-adv-x="2144" 
d="M832 2628l240 -240l244 240h192v-16l-368 -376h-136l-364 376v16h192zM1976 1024q0 -324 -117 -560t-321 -364t-466 -128t-466 128t-321 364t-117 560t117 560t321 364t466 128t466 -128t321 -364t117 -560zM1736 1024q0 266 -88.5 449t-239 277t-336.5 94t-336.5 -94
t-239 -277t-88.5 -449t88.5 -449t239 -277t336.5 -94t336.5 94t239 277t88.5 449z" />
    <glyph glyph-name="ocaron" unicode="&#x1d2;" horiz-adv-x="1680" 
d="M600 2116l240 -240l244 240h192v-16l-368 -376h-136l-364 376v16h192zM840 -32q-208 0 -364.5 99t-244 277t-87.5 416q0 240 87.5 419t244 278t364.5 99t364.5 -99t244 -278t87.5 -419q0 -238 -87.5 -416t-244 -277t-364.5 -99zM840 180q158 0 260 81t151 213t49 286
t-49 287t-151 215t-260 82t-260 -82t-151 -215t-49 -287t49 -286t151 -213t260 -81z" />
    <glyph glyph-name="Ucaron" unicode="&#x1d3;" horiz-adv-x="2088" 
d="M804 2628l240 -240l244 240h192v-16l-368 -376h-136l-364 376v16h192zM1592 2048h248v-1356q0 -230 -109 -393t-290 -249t-397 -86t-397 86t-290 249t-109 393v1356h248v-1356q0 -160 76 -270.5t201 -168t271 -57.5t271 57.5t201 168t76 270.5v1356z" />
    <glyph glyph-name="ucaron" unicode="&#x1d4;" horiz-adv-x="1636" 
d="M580 2116l240 -240l244 240h192v-16l-368 -376h-136l-364 376v16h192zM1184 608v928h236v-1536h-236v216h-16q-57 -87 -169.5 -161.5t-286.5 -74.5q-112 0 -226.5 61t-192 189t-77.5 330v976h236v-976q0 -168 94.5 -260t241.5 -92q88 0 179.5 40t154 128t62.5 232z" />
    <glyph glyph-name="Udieresismacron" unicode="&#x1d5;" horiz-adv-x="2088" 
d="M1515 2885v-206h-939v206h939zM565 2416q0 64 39.5 108.5t118.5 44.5q78 0 118.5 -44.5t40.5 -108.5q0 -62 -40.5 -105.5t-118.5 -43.5q-79 0 -118.5 43.5t-39.5 105.5zM1209 2414q0 64 40 108t119 44q78 0 118.5 -44t40.5 -108q0 -63 -40.5 -106.5t-118.5 -43.5
q-79 0 -119 43.5t-40 106.5zM1592 2048h248v-1356q0 -230 -109 -393t-290 -249t-397 -86t-397 86t-290 249t-109 393v1356h248v-1356q0 -160 76 -270.5t201 -168t271 -57.5t271 57.5t201 168t76 270.5v1356z" />
    <glyph glyph-name="udieresismacron" unicode="&#x1d6;" horiz-adv-x="1636" 
d="M1298 2416v-206h-940v206h940zM371 1898q0 64 39.5 108t118.5 44q78 0 118.5 -44t40.5 -108q0 -63 -40.5 -106.5t-118.5 -43.5q-79 0 -118.5 43.5t-39.5 106.5zM961 1895q0 64 39.5 108.5t118.5 44.5q78 0 118.5 -44.5t40.5 -108.5q0 -63 -40.5 -106.5t-118.5 -43.5
q-79 0 -118.5 43.5t-39.5 106.5zM1184 608v928h236v-1536h-236v216h-16q-57 -87 -169.5 -161.5t-286.5 -74.5q-112 0 -226.5 61t-192 189t-77.5 330v976h236v-976q0 -168 94.5 -260t241.5 -92q88 0 179.5 40t154 128t62.5 232z" />
    <glyph glyph-name="Udieresisacute" unicode="&#x1d7;" horiz-adv-x="2088" 
d="M940 2493l175 313h251l-251 -313h-175zM769 2247q-63 0 -111.5 48.5t-48.5 111.5q0 69 48.5 114.5t111.5 45.5q69 0 114.5 -45.5t45.5 -114.5q0 -63 -45.5 -111.5t-114.5 -48.5zM1337 2247q-63 0 -111.5 48.5t-48.5 111.5q0 69 48.5 114.5t111.5 45.5q69 0 114.5 -45.5
t45.5 -114.5q0 -63 -45.5 -111.5t-114.5 -48.5zM1592 2048h248v-1356q0 -230 -109 -393t-290 -249t-397 -86t-397 86t-290 249t-109 393v1356h248v-1356q0 -160 76 -270.5t201 -168t271 -57.5t271 57.5t201 168t76 270.5v1356z" />
    <glyph glyph-name="udieresisacute" unicode="&#x1d8;" horiz-adv-x="1636" 
d="M671 2122l266 407h332l-380 -407h-218zM371 1898q0 64 39.5 108t118.5 44q78 0 118.5 -44t40.5 -108q0 -63 -40.5 -106.5t-118.5 -43.5q-79 0 -118.5 43.5t-39.5 106.5zM961 1895q0 64 39.5 108.5t118.5 44.5q78 0 118.5 -44.5t40.5 -108.5q0 -63 -40.5 -106.5
t-118.5 -43.5q-79 0 -118.5 43.5t-39.5 106.5zM1184 608v928h236v-1536h-236v216h-16q-57 -87 -169.5 -161.5t-286.5 -74.5q-112 0 -226.5 61t-192 189t-77.5 330v976h236v-976q0 -168 94.5 -260t241.5 -92q88 0 179.5 40t154 128t62.5 232z" />
    <glyph glyph-name="Udieresiscaron" unicode="&#x1d9;" horiz-adv-x="2088" 
d="M841 2874l201 -173l200 173h237v-24l-355 -300h-165l-349 295v29h231zM565 2416q0 64 39.5 108.5t118.5 44.5q78 0 118.5 -44.5t40.5 -108.5q0 -62 -40.5 -105.5t-118.5 -43.5q-79 0 -118.5 43.5t-39.5 105.5zM1209 2414q0 64 40 108t119 44q78 0 118.5 -44t40.5 -108
q0 -63 -40.5 -106.5t-118.5 -43.5q-79 0 -119 43.5t-40 106.5zM1592 2048h248v-1356q0 -230 -109 -393t-290 -249t-397 -86t-397 86t-290 249t-109 393v1356h248v-1356q0 -160 76 -270.5t201 -168t271 -57.5t271 57.5t201 168t76 270.5v1356z" />
    <glyph glyph-name="udieresiscaron" unicode="&#x1da;" horiz-adv-x="1636" 
d="M618 2532l201 -229l201 229h236v-14l-354 -380h-165l-350 380v14h231zM371 1898q0 64 39.5 108t118.5 44q78 0 118.5 -44t40.5 -108q0 -63 -40.5 -106.5t-118.5 -43.5q-79 0 -118.5 43.5t-39.5 106.5zM961 1895q0 64 39.5 108.5t118.5 44.5q78 0 118.5 -44.5t40.5 -108.5
q0 -63 -40.5 -106.5t-118.5 -43.5q-79 0 -118.5 43.5t-39.5 106.5zM1184 608v928h236v-1536h-236v216h-16q-57 -87 -169.5 -161.5t-286.5 -74.5q-112 0 -226.5 61t-192 189t-77.5 330v976h236v-976q0 -168 94.5 -260t241.5 -92q88 0 179.5 40t154 128t62.5 232z" />
    <glyph glyph-name="Udieresisgrave" unicode="&#x1db;" horiz-adv-x="2088" 
d="M973 2806l175 -313h-175l-252 313h252zM565 2416q0 64 39.5 108.5t118.5 44.5q78 0 118.5 -44.5t40.5 -108.5q0 -62 -40.5 -105.5t-118.5 -43.5q-79 0 -118.5 43.5t-39.5 105.5zM1209 2414q0 64 40 108t119 44q78 0 118.5 -44t40.5 -108q0 -63 -40.5 -106.5t-118.5 -43.5
q-79 0 -119 43.5t-40 106.5zM1592 2048h248v-1356q0 -230 -109 -393t-290 -249t-397 -86t-397 86t-290 249t-109 393v1356h248v-1356q0 -160 76 -270.5t201 -168t271 -57.5t271 57.5t201 168t76 270.5v1356z" />
    <glyph glyph-name="udieresisgrave" unicode="&#x1dc;" horiz-adv-x="1636" 
d="M708 2529l266 -407h-233l-365 407h332zM371 1898q0 64 39.5 108t118.5 44q78 0 118.5 -44t40.5 -108q0 -63 -40.5 -106.5t-118.5 -43.5q-79 0 -118.5 43.5t-39.5 106.5zM961 1895q0 64 39.5 108.5t118.5 44.5q78 0 118.5 -44.5t40.5 -108.5q0 -63 -40.5 -106.5
t-118.5 -43.5q-79 0 -118.5 43.5t-39.5 106.5zM1184 608v928h236v-1536h-236v216h-16q-57 -87 -169.5 -161.5t-286.5 -74.5q-112 0 -226.5 61t-192 189t-77.5 330v976h236v-976q0 -168 94.5 -260t241.5 -92q88 0 179.5 40t154 128t62.5 232z" />
    <glyph glyph-name="eturn" unicode="&#x1dd;" horiz-adv-x="1520" 
d="M704 1520q210 0 362.5 -96t235 -265t82.5 -387v-56q0 -218 -90 -386t-235 -263t-311 -95q-210 0 -345.5 86.5t-201 238t-65.5 347.5v172h971q-6 136 -52.5 245.5t-134 174t-216.5 64.5q-147 0 -249 -44t-171 -104l-104 184q66 63 193 123.5t331 60.5zM748 196
q134 0 229 114t122 286h-687v-36q0 -96 35 -179t109 -134t192 -51z" />
    <glyph glyph-name="Adieresismacron" unicode="&#x1de;" horiz-adv-x="1904" 
d="M1423 2885v-206h-939v206h939zM473 2416q0 64 39.5 108.5t118.5 44.5q78 0 118.5 -44.5t40.5 -108.5q0 -62 -40.5 -105.5t-118.5 -43.5q-79 0 -118.5 43.5t-39.5 105.5zM1117 2414q0 64 40 108t119 44q78 0 118.5 -44t40.5 -108q0 -63 -40.5 -106.5t-118.5 -43.5
q-79 0 -119 43.5t-40 106.5zM332 0h-260l752 2048h256l752 -2048h-260l-193 548h-854zM940 1724l-337 -956h698l-337 956h-24z" />
    <glyph glyph-name="adieresismacron" unicode="&#x1df;" horiz-adv-x="1588" 
d="M1282 2416v-206h-940v206h940zM355 1898q0 64 39.5 108t118.5 44q78 0 118.5 -44t40.5 -108q0 -63 -40.5 -106.5t-118.5 -43.5q-79 0 -118.5 43.5t-39.5 106.5zM945 1895q0 64 39.5 108.5t118.5 44.5q78 0 118.5 -44.5t40.5 -108.5q0 -63 -40.5 -106.5t-118.5 -43.5
q-79 0 -118.5 43.5t-39.5 106.5zM1136 0v208h-12q-24 -50 -80 -107t-149 -97t-227 -40q-146 0 -265 55.5t-189 161t-70 255.5q0 130 52 213t138 130t192 71t214 38q106 14 196 22t145 28t55 70v4q0 192 -91 264t-229 72q-171 0 -268 -74t-136 -158l-224 80
q60 140 160.5 218.5t220 110t235.5 31.5q74 0 170.5 -17.5t187 -71.5t150.5 -163t60 -292v-1012h-236zM1136 556v216q-15 -18 -65.5 -32.5t-116 -25t-127 -18.5t-99.5 -12q-92 -12 -171.5 -38.5t-128 -79t-48.5 -142.5q0 -123 91.5 -185.5t232.5 -62.5q140 0 236.5 55
t146 142t49.5 183z" />
    <glyph glyph-name="Adotmacron" unicode="&#x1e0;" horiz-adv-x="1904" 
d="M1423 2885v-206h-939v206h939zM794 2414q0 64 40 108t118 44q79 0 119.5 -44t40.5 -108q0 -63 -40.5 -106.5t-119.5 -43.5q-78 0 -118 43.5t-40 106.5zM332 0h-260l752 2048h256l752 -2048h-260l-193 548h-854zM940 1724l-337 -956h698l-337 956h-24z" />
    <glyph glyph-name="adotmacron" unicode="&#x1e1;" horiz-adv-x="1588" 
d="M1282 2412v-206h-940v206h940zM646 1895q0 64 40 108.5t118 44.5q79 0 119.5 -44.5t40.5 -108.5q0 -63 -40.5 -106.5t-119.5 -43.5q-78 0 -118 43.5t-40 106.5zM1136 0v208h-12q-24 -50 -80 -107t-149 -97t-227 -40q-146 0 -265 55.5t-189 161t-70 255.5q0 130 52 213
t138 130t192 71t214 38q106 14 196 22t145 28t55 70v4q0 192 -91 264t-229 72q-171 0 -268 -74t-136 -158l-224 80q60 140 160.5 218.5t220 110t235.5 31.5q74 0 170.5 -17.5t187 -71.5t150.5 -163t60 -292v-1012h-236zM1136 556v216q-15 -18 -65.5 -32.5t-116 -25
t-127 -18.5t-99.5 -12q-92 -12 -171.5 -38.5t-128 -79t-48.5 -142.5q0 -123 91.5 -185.5t232.5 -62.5q140 0 236.5 55t146 142t49.5 183z" />
    <glyph glyph-name="AEmacron" unicode="&#x1e2;" horiz-adv-x="2848" 
d="M1956 2528v-204h-940v204h940zM2692 220v-220h-1204l-23 552h-792l-317 -552h-296l1212 2048h1336v-220h-951l28 -676h811v-220h-802l29 -712h969zM797 768h659l-43 1072z" />
    <glyph glyph-name="aemacron" unicode="&#x1e3;" horiz-adv-x="2604" 
d="M1764 2016v-204h-940v204h940zM188 1196q60 140 160.5 218.5t220 110t235.5 31.5q200 0 323 -76t168 -185q82 124 209 192.5t296 68.5q120 0 237 -40t213 -129.5t153 -237t57 -361.5v-80l-1106 -86q31 -217 153 -329.5t317 -112.5q141 0 240 60t144 180l228 -64
q-54 -174 -216 -281t-396 -107q-218 0 -365.5 95.5t-222.5 264.5h-8q-6 -40 -43.5 -101t-107.5 -121.5t-172 -101t-237 -40.5q-146 0 -265 55.5t-189 161t-70 255.5q0 130 52 213t138 130t192 71t214 38q106 14 196 22t145 28t55 70v4q0 192 -91 264t-229 72
q-171 0 -268 -74t-136 -158zM1800 1344q-190 0 -315 -136t-139 -383l874 67q0 195 -114 323.5t-306 128.5zM1136 556v216q-15 -18 -65.5 -32.5t-116 -25t-127 -18.5t-99.5 -12q-92 -12 -171.5 -38.5t-128 -79t-48.5 -142.5q0 -123 91.5 -185.5t232.5 -62.5q140 0 236.5 55
t146 142t49.5 183z" />
    <glyph glyph-name="Gbar" unicode="&#x1e4;" horiz-adv-x="2164" 
d="M1916 1016v-220q0 -85 -14 -164h222v-220h-291q-99 -208 -298.5 -324t-454.5 -116q-266 0 -472 128t-323 364t-117 560t116.5 560t319 364t460.5 128q306 0 526 -176.5t310 -491.5h-252q-72 213 -229 324.5t-355 111.5q-182 0 -331 -94t-237 -277t-88 -449t89 -449
t241 -277t342 -94q147 0 267 55t200 153h-371v220h480q20 78 20 164v4h-500v216h740z" />
    <glyph glyph-name="gbar" unicode="&#x1e5;" horiz-adv-x="1748" 
d="M1740 884v-184h-240v-712q0 -198 -94 -322.5t-247 -183t-331 -58.5q-246 0 -397 92.5t-223 215.5l188 132q30 -38 80.5 -92t135 -95t216.5 -41q118 0 218 40.5t160 124t58 211.5v272h-20q-26 -42 -73.5 -103.5t-136 -109t-238.5 -47.5q-186 0 -333.5 88t-233 256
t-85.5 408q0 236 83 411.5t231 272t342 96.5q150 0 238.5 -49.5t136 -112t73.5 -102.5h24v244h228v-652h240zM380 780q0 -240 113 -392t335 -152q196 0 308 122.5t129 341.5h-405v184h403q-22 207 -132 333.5t-303 126.5q-150 0 -249.5 -76t-149 -204t-49.5 -284z" />
    <glyph glyph-name="Gcaron" unicode="&#x1e6;" horiz-adv-x="2092" 
d="M824 2628l240 -240l244 240h192v-16l-368 -376h-136l-364 376v16h192zM1916 1016v-220q0 -252 -110 -437t-299 -286t-427 -101q-266 0 -472 128t-323 364t-117 560t116.5 560t319 364t460.5 128q306 0 526 -176.5t310 -491.5h-252q-72 213 -229 324.5t-355 111.5
q-182 0 -331 -94t-237 -277t-88 -449t89 -449t241 -277t342 -94q174 0 308.5 75.5t211 209t76.5 307.5h-500v220h740z" />
    <glyph glyph-name="gcaron" unicode="&#x1e7;" horiz-adv-x="1716" 
d="M648 2116l240 -240l244 240h192v-16l-368 -376h-136l-364 376v16h192zM1272 1536h228v-1548q0 -198 -94 -322.5t-247 -183t-331 -58.5q-246 0 -397 92.5t-223 215.5l188 132q30 -38 80.5 -92t135 -95t216.5 -41q118 0 218 40.5t160 124t58 211.5v272h-20
q-26 -42 -73.5 -103.5t-136 -109t-238.5 -47.5q-186 0 -333.5 88t-233 256t-85.5 408q0 236 83 411.5t231 272t342 96.5q150 0 238.5 -49.5t136 -112t73.5 -102.5h24v244zM380 780q0 -240 113 -392t335 -152q213 0 326.5 144.5t113.5 399.5q0 249 -112 406.5t-328 157.5
q-150 0 -249.5 -76t-149 -204t-49.5 -284z" />
    <glyph glyph-name="Kcaron" unicode="&#x1e8;" horiz-adv-x="1836" 
d="M600 2628l240 -240l244 240h192v-16l-368 -376h-136l-364 376v16h192zM1464 0l-711 953l-257 -287v-666h-248v2048h248v-1016h24l920 1016h324l-858 -924l858 -1124h-300z" />
    <glyph glyph-name="kcaron" unicode="&#x1e9;" horiz-adv-x="1500" 
d="M492 2628l240 -240l244 240h192v-16l-368 -376h-136l-364 376v16h192zM1184 0l-551 732l-181 -195v-537h-236v2048h236v-1204h28l624 692h292l-604 -654l668 -882h-276z" />
    <glyph glyph-name="Oogonek" unicode="&#x1ea;" horiz-adv-x="2144" 
d="M1976 1024q0 -308 -105.5 -536.5t-292 -361t-427.5 -151.5q-80 -61 -139.5 -129t-59.5 -150q0 -45 22 -70.5t82 -25.5q45 0 80 12t56 24l16 -176q-33 -21 -86.5 -40.5t-137.5 -19.5q-114 0 -193 67.5t-79 196.5q0 83 45 165.5t148 156.5q-218 39 -384 175t-259.5 355.5
t-93.5 507.5q0 324 117 560t321 364t466 128t466 -128t321 -364t117 -560zM1736 1024q0 266 -88.5 449t-239 277t-336.5 94t-336.5 -94t-239 -277t-88.5 -449t88.5 -449t239 -277t336.5 -94t336.5 94t239 277t88.5 449z" />
    <glyph glyph-name="oogonek" unicode="&#x1eb;" horiz-adv-x="1680" 
d="M976 -540q-33 -21 -86.5 -40.5t-137.5 -19.5q-114 0 -193 67.5t-79 196.5q0 83 45 165.5t148 156.5q-242 56 -385.5 261.5t-143.5 512.5q0 240 87.5 419t244 278t364.5 99t364.5 -99t244 -278t87.5 -419q0 -224 -77.5 -395t-217.5 -273.5t-327 -120.5
q-79 -60 -136.5 -127.5t-57.5 -147.5q0 -45 22 -70.5t82 -25.5q45 0 80 12t56 24zM840 180q158 0 260 81t151 213t49 286t-49 287t-151 215t-260 82t-260 -82t-151 -215t-49 -287t49 -286t151 -213t260 -81z" />
    <glyph glyph-name="Oogonekmacron" unicode="&#x1ec;" horiz-adv-x="2144" 
d="M1552 2528v-204h-940v204h940zM1976 1024q0 -308 -105.5 -536.5t-292 -361t-427.5 -151.5q-80 -61 -139.5 -129t-59.5 -150q0 -45 22 -70.5t82 -25.5q45 0 80 12t56 24l16 -176q-33 -21 -86.5 -40.5t-137.5 -19.5q-114 0 -193 67.5t-79 196.5q0 83 45 165.5t148 156.5
q-218 39 -384 175t-259.5 355.5t-93.5 507.5q0 324 117 560t321 364t466 128t466 -128t321 -364t117 -560zM1736 1024q0 266 -88.5 449t-239 277t-336.5 94t-336.5 -94t-239 -277t-88.5 -449t88.5 -449t239 -277t336.5 -94t336.5 94t239 277t88.5 449z" />
    <glyph glyph-name="oogonekmacron" unicode="&#x1ed;" horiz-adv-x="1680" 
d="M1320 2016v-204h-940v204h940zM976 -540q-33 -21 -86.5 -40.5t-137.5 -19.5q-114 0 -193 67.5t-79 196.5q0 83 45 165.5t148 156.5q-242 56 -385.5 261.5t-143.5 512.5q0 240 87.5 419t244 278t364.5 99t364.5 -99t244 -278t87.5 -419q0 -224 -77.5 -395t-217.5 -273.5
t-327 -120.5q-79 -60 -136.5 -127.5t-57.5 -147.5q0 -45 22 -70.5t82 -25.5q45 0 80 12t56 24zM840 180q158 0 260 81t151 213t49 286t-49 287t-151 215t-260 82t-260 -82t-151 -215t-49 -287t49 -286t151 -213t260 -81z" />
    <glyph glyph-name="Ezhcaron" unicode="&#x1ee;" horiz-adv-x="1776" 
d="M608 2452l240 -240l244 240h192v-16l-368 -376h-136l-364 376v16h192zM96 92h288q24 -138 70 -235.5t140 -149t262 -51.5q270 0 389 138t119 426q0 318 -132.5 447t-399.5 129h-308v208l685 768h-1061v232h1396v-204l-700 -784q247 -2 427.5 -84.5t278.5 -257t98 -454.5
t-99.5 -454.5t-278 -256t-414.5 -81.5q-244 0 -404.5 88.5t-247 239t-108.5 336.5z" />
    <glyph glyph-name="ezhcaron" unicode="&#x1ef;" horiz-adv-x="1520" 
d="M520 2088l204 -200l200 200h236v-24l-356 -340h-164l-348 336v28h228zM156 1488h1196v-168l-536 -672q290 -23 449 -178t159 -426q0 -186 -87.5 -317.5t-241 -201t-351.5 -69.5q-158 0 -307 61t-245 190t-96 333h276q0 -98 46.5 -181t130 -133t195.5 -50q192 0 300 104
t108 260q0 213 -113.5 306.5t-326.5 93.5h-208v216l496 612h-844v220z" />
    <glyph glyph-name="jcaron" unicode="&#x1f0;" horiz-adv-x="668" 
d="M96 2040l240 -240l244 240h192v-16l-368 -376h-136l-364 376v16h192zM216 1536h236v-1648q0 -213 -109 -340.5t-331 -127.5h-48v220h44q108 0 158 65.5t50 182.5v1648z" />
    <glyph glyph-name="DZ" unicode="&#x1f1;" horiz-adv-x="4040" 
d="M1136 0h-632v2048h660q298 0 510 -122.5t325 -351t113 -546.5q0 -320 -114 -550.5t-332 -354t-530 -123.5zM3872 220v-220h-1412v180l1105 1648h-1117v220h1412v-180l-1105 -1648h1117zM1148 1828h-396v-1608h368q381 0 566.5 216.5t185.5 591.5q0 372 -182 586t-542 214
z" />
    <glyph glyph-name="Dz" unicode="&#x1f2;" horiz-adv-x="3804" 
d="M1136 0h-632v2048h660q298 0 510 -122.5t325 -351t113 -546.5q0 -320 -114 -550.5t-332 -354t-530 -123.5zM1148 1828h-396v-1608h368q381 0 566.5 216.5t185.5 591.5q0 372 -182 586t-542 214zM3644 220v-220h-1188v200l862 1116h-878v220h1184v-188l-860 -1128h880z
" />
    <glyph glyph-name="Gacute" unicode="&#x1f4;" horiz-adv-x="2092" 
d="M940 2232l240 408h244l-308 -408h-176zM1916 1016v-220q0 -252 -110 -437t-299 -286t-427 -101q-266 0 -472 128t-323 364t-117 560t116.5 560t319 364t460.5 128q306 0 526 -176.5t310 -491.5h-252q-72 213 -229 324.5t-355 111.5q-182 0 -331 -94t-237 -277t-88 -449
t89 -449t241 -277t342 -94q174 0 308.5 75.5t211 209t76.5 307.5h-500v220h740z" />
    <glyph glyph-name="gacute" unicode="&#x1f5;" horiz-adv-x="1716" 
d="M764 1720l240 408h244l-308 -408h-176zM1272 1536h228v-1548q0 -198 -94 -322.5t-247 -183t-331 -58.5q-246 0 -397 92.5t-223 215.5l188 132q30 -38 80.5 -92t135 -95t216.5 -41q118 0 218 40.5t160 124t58 211.5v272h-20q-26 -42 -73.5 -103.5t-136 -109t-238.5 -47.5
q-186 0 -333.5 88t-233 256t-85.5 408q0 236 83 411.5t231 272t342 96.5q150 0 238.5 -49.5t136 -112t73.5 -102.5h24v244zM380 780q0 -240 113 -392t335 -152q213 0 326.5 144.5t113.5 399.5q0 249 -112 406.5t-328 157.5q-150 0 -249.5 -76t-149 -204t-49.5 -284z" />
    <glyph glyph-name="uni01F6" unicode="&#x1f6;" horiz-adv-x="3136" 
d="M496 2048v-912h1092v912h248v-1400q0 -231 111.5 -339.5t312.5 -108.5t306.5 108.5t105.5 339.5v888h248v-888q0 -226 -84 -376t-233 -225t-343 -75q-300 0 -486 171.5t-186 504.5v268h-1092v-916h-248v2048h248z" />
    <glyph glyph-name="uni01F7" unicode="&#x1f7;" horiz-adv-x="1776" 
d="M444 2004v-52q75 38 166 59t198 21q375 0 593.5 -208t218.5 -628v-72q0 -244 -88 -464t-247.5 -399.5t-374 -304.5t-466.5 -179v-349h-288v2576h288zM808 1800q-135 0 -223 -44.5t-141 -124.5v-1619q230 61 398.5 180t278 274t162.5 325t53 333v76q0 312 -130.5 456
t-397.5 144z" />
    <glyph glyph-name="uni01F8" unicode="&#x1f8;" horiz-adv-x="2080" 
d="M920 2640l268 -408h-236l-364 408h332zM1832 2048v-2048h-240l-1076 1604h-20v-1604h-248v2048h240l1080 -1612h20v1612h244z" />
    <glyph glyph-name="uni01F9" unicode="&#x1f9;" horiz-adv-x="1636" 
d="M712 2128l268 -408h-236l-364 408h332zM452 908v-908h-236v1536h236v-260h16q54 117 168 198.5t288 81.5q216 0 356 -143t140 -437v-976h-236v960q0 168 -94.5 268t-241.5 100q-88 0 -179.5 -45t-154 -138t-62.5 -237z" />
    <glyph glyph-name="Aringacute" unicode="&#x1fa;" horiz-adv-x="1904" 
d="M900 2524l196 252h276l-308 -252h-164zM332 0h-260l749 2039q-46 30 -73.5 77.5t-27.5 107.5q0 102 70.5 169t169.5 67q96 0 166 -67t70 -169q0 -64 -30.5 -113.5t-79.5 -77.5l746 -2033h-260l-193 548h-854zM840 2224q0 -48 36 -80t84 -32t80 32t32 80q0 54 -32 89
t-80 35t-84 -35t-36 -89zM940 1724l-337 -956h698l-337 956h-24z" />
    <glyph glyph-name="aringacute" unicode="&#x1fb;" horiz-adv-x="1588" 
d="M752 2012l196 252h276l-308 -252h-164zM1136 0v208h-12q-24 -50 -80 -107t-149 -97t-227 -40q-146 0 -265 55.5t-189 161t-70 255.5q0 130 52 213t138 130t192 71t214 38q106 14 196 22t145 28t55 70v4q0 192 -91 264t-229 72q-171 0 -268 -74t-136 -158l-224 80
q71 165 197 244.5t266 103.5q-79 64 -79 168q0 102 70.5 169t169.5 67q96 0 166 -67t70 -169q0 -106 -81 -171q95 -18 188.5 -71.5t155 -162.5t61.5 -295v-1012h-236zM692 1712q0 -48 36 -80t84 -32t80 32t32 80q0 54 -32 89t-80 35t-84 -35t-36 -89zM1136 556v216
q-15 -18 -65.5 -32.5t-116 -25t-127 -18.5t-99.5 -12q-92 -12 -171.5 -38.5t-128 -79t-48.5 -142.5q0 -123 91.5 -185.5t232.5 -62.5q140 0 236.5 55t146 142t49.5 183z" />
    <glyph glyph-name="AEacute" unicode="&#x1fc;" horiz-adv-x="2848" 
d="M1352 2232l240 408h244l-308 -408h-176zM2692 220v-220h-1204l-23 552h-792l-317 -552h-296l1212 2048h1336v-220h-951l28 -676h811v-220h-802l29 -712h969zM797 768h659l-43 1072z" />
    <glyph glyph-name="aeacute" unicode="&#x1fd;" horiz-adv-x="2604" 
d="M1160 1720l240 408h244l-308 -408h-176zM188 1196q60 140 160.5 218.5t220 110t235.5 31.5q200 0 323 -76t168 -185q82 124 209 192.5t296 68.5q120 0 237 -40t213 -129.5t153 -237t57 -361.5v-80l-1106 -86q31 -217 153 -329.5t317 -112.5q141 0 240 60t144 180l228 -64
q-54 -174 -216 -281t-396 -107q-218 0 -365.5 95.5t-222.5 264.5h-8q-6 -40 -43.5 -101t-107.5 -121.5t-172 -101t-237 -40.5q-146 0 -265 55.5t-189 161t-70 255.5q0 130 52 213t138 130t192 71t214 38q106 14 196 22t145 28t55 70v4q0 192 -91 264t-229 72
q-171 0 -268 -74t-136 -158zM1800 1344q-190 0 -315 -136t-139 -383l874 67q0 195 -114 323.5t-306 128.5zM1136 556v216q-15 -18 -65.5 -32.5t-116 -25t-127 -18.5t-99.5 -12q-92 -12 -171.5 -38.5t-128 -79t-48.5 -142.5q0 -123 91.5 -185.5t232.5 -62.5q140 0 236.5 55
t146 142t49.5 183z" />
    <glyph glyph-name="Oslashacute" unicode="&#x1fe;" horiz-adv-x="2144" 
d="M944 2232l240 408h244l-308 -408h-176zM432 -84l-152 104l152 225q-124 137 -194 334.5t-70 444.5q0 324 117 560t321 364t466 128q282 0 497 -148l135 200l152 -104l-147 -218q125 -137 196 -335t71 -447q0 -324 -117 -560t-321 -364t-466 -128q-284 0 -500 151z
M408 1024q0 -183 43.5 -326.5t119.5 -246.5l865 1281q-157 112 -364 112q-186 0 -336.5 -94t-239 -277t-88.5 -449zM1736 1024q0 184 -44 329t-122 248l-866 -1282q159 -115 368 -115q186 0 336.5 94t239 277t88.5 449z" />
    <glyph glyph-name="oslashacute" unicode="&#x1ff;" horiz-adv-x="1680" 
d="M728 1720l240 408h244l-308 -408h-176zM380 -84l-152 104l110 163q-92 104 -143 250.5t-51 326.5q0 240 87.5 419t244 278t364.5 99q203 0 360 -96l100 148l152 -104l-110 -163q92 -105 143 -252.5t51 -328.5q0 -238 -87.5 -416t-244 -277t-364.5 -99q-202 0 -360 96z
M380 760q0 -106 23 -203t70 -174l604 894q-101 67 -237 67q-158 0 -260 -82t-151 -215t-49 -287zM840 180q158 0 260 81t151 213t49 286q0 106 -23 204t-71 176l-603 -894q101 -66 237 -66z" />
    <glyph glyph-name="Adblgrave" unicode="&#x200;" horiz-adv-x="1904" 
d="M885 2245h-247l-421 365h331zM1249 2245h-218l-337 365h304zM332 0h-260l752 2048h256l752 -2048h-260l-193 548h-854zM940 1724l-337 -956h698l-337 956h-24z" />
    <glyph glyph-name="adblgrave" unicode="&#x201;" horiz-adv-x="1588" 
d="M737 1733h-247l-421 365h331zM1101 1733h-218l-337 365h304zM1136 0v208h-12q-24 -50 -80 -107t-149 -97t-227 -40q-146 0 -265 55.5t-189 161t-70 255.5q0 130 52 213t138 130t192 71t214 38q106 14 196 22t145 28t55 70v4q0 192 -91 264t-229 72q-171 0 -268 -74
t-136 -158l-224 80q60 140 160.5 218.5t220 110t235.5 31.5q74 0 170.5 -17.5t187 -71.5t150.5 -163t60 -292v-1012h-236zM1136 556v216q-15 -18 -65.5 -32.5t-116 -25t-127 -18.5t-99.5 -12q-92 -12 -171.5 -38.5t-128 -79t-48.5 -142.5q0 -123 91.5 -185.5t232.5 -62.5
q140 0 236.5 55t146 142t49.5 183z" />
    <glyph glyph-name="Ainvertedbreve" unicode="&#x202;" horiz-adv-x="1904" 
d="M1368 2290h-222q0 80 -44 140t-148 60q-106 0 -150 -60t-44 -140h-221q0 163 111.5 266.5t303.5 103.5t303 -103.5t111 -266.5zM332 0h-260l752 2048h256l752 -2048h-260l-193 548h-854zM940 1724l-337 -956h698l-337 956h-24z" />
    <glyph glyph-name="ainvertedbreve" unicode="&#x203;" horiz-adv-x="1588" 
d="M1220 1778h-222q0 80 -44 140t-148 60q-106 0 -150 -60t-44 -140h-221q0 163 111.5 266.5t303.5 103.5t303 -103.5t111 -266.5zM1136 0v208h-12q-24 -50 -80 -107t-149 -97t-227 -40q-146 0 -265 55.5t-189 161t-70 255.5q0 130 52 213t138 130t192 71t214 38
q106 14 196 22t145 28t55 70v4q0 192 -91 264t-229 72q-171 0 -268 -74t-136 -158l-224 80q60 140 160.5 218.5t220 110t235.5 31.5q74 0 170.5 -17.5t187 -71.5t150.5 -163t60 -292v-1012h-236zM1136 556v216q-15 -18 -65.5 -32.5t-116 -25t-127 -18.5t-99.5 -12
q-92 -12 -171.5 -38.5t-128 -79t-48.5 -142.5q0 -123 91.5 -185.5t232.5 -62.5q140 0 236.5 55t146 142t49.5 183z" />
    <glyph glyph-name="Edblgrave" unicode="&#x204;" horiz-adv-x="1684" 
d="M821 2245h-247l-421 365h331zM1185 2245h-218l-337 365h304zM1500 220v-220h-1252v2048h1236v-220h-988v-692h884v-220h-884v-696h1004z" />
    <glyph glyph-name="edblgrave" unicode="&#x205;" horiz-adv-x="1644" 
d="M769 1733h-247l-421 365h331zM1133 1733h-218l-337 365h304zM860 -32q-222 0 -382.5 98.5t-247 276t-86.5 413.5t86.5 416.5t242 282t363.5 101.5q120 0 237 -40t213 -129.5t153 -237t57 -361.5v-100h-1113q18 -249 143 -378.5t334 -129.5q141 0 240 60t144 180l228 -64
q-54 -174 -216 -281t-396 -107zM836 1344q-177 0 -298 -118t-150 -334h868q0 195 -114 323.5t-306 128.5z" />
    <glyph glyph-name="Einvertedbreve" unicode="&#x206;" horiz-adv-x="1684" 
d="M1304 2290h-222q0 80 -44 140t-148 60q-106 0 -150 -60t-44 -140h-221q0 163 111.5 266.5t303.5 103.5t303 -103.5t111 -266.5zM1500 220v-220h-1252v2048h1236v-220h-988v-692h884v-220h-884v-696h1004z" />
    <glyph glyph-name="einvertedbreve" unicode="&#x207;" horiz-adv-x="1644" 
d="M1252 1778h-222q0 80 -44 140t-148 60q-106 0 -150 -60t-44 -140h-221q0 163 111.5 266.5t303.5 103.5t303 -103.5t111 -266.5zM860 -32q-222 0 -382.5 98.5t-247 276t-86.5 413.5t86.5 416.5t242 282t363.5 101.5q120 0 237 -40t213 -129.5t153 -237t57 -361.5v-100
h-1113q18 -249 143 -378.5t334 -129.5q141 0 240 60t144 180l228 -64q-54 -174 -216 -281t-396 -107zM836 1344q-177 0 -298 -118t-150 -334h868q0 195 -114 323.5t-306 128.5z" />
    <glyph glyph-name="Idblgrave" unicode="&#x208;" horiz-adv-x="744" 
d="M289 2245h-247l-421 365h331zM653 2245h-218l-337 365h304zM496 2048v-2048h-248v2048h248z" />
    <glyph glyph-name="idblgrave" unicode="&#x209;" horiz-adv-x="668" 
d="M277 1737h-247l-421 365h331zM641 1737h-218l-337 365h304zM452 1536v-1536h-236v1536h236z" />
    <glyph glyph-name="Iinvertedbreve" unicode="&#x20a;" horiz-adv-x="744" 
d="M772 2290h-222q0 80 -44 140t-148 60q-106 0 -150 -60t-44 -140h-221q0 163 111.5 266.5t303.5 103.5t303 -103.5t111 -266.5zM496 2048v-2048h-248v2048h248z" />
    <glyph glyph-name="iinvertedbreve" unicode="&#x20b;" horiz-adv-x="668" 
d="M760 1782h-222q0 80 -44 140t-148 60q-106 0 -150 -60t-44 -140h-221q0 163 111.5 266.5t303.5 103.5t303 -103.5t111 -266.5zM452 1536v-1536h-236v1536h236z" />
    <glyph glyph-name="Odblgrave" unicode="&#x20c;" horiz-adv-x="2144" 
d="M1005 2245h-247l-421 365h331zM1369 2245h-218l-337 365h304zM1976 1024q0 -324 -117 -560t-321 -364t-466 -128t-466 128t-321 364t-117 560t117 560t321 364t466 128t466 -128t321 -364t117 -560zM1736 1024q0 266 -88.5 449t-239 277t-336.5 94t-336.5 -94t-239 -277
t-88.5 -449t88.5 -449t239 -277t336.5 -94t336.5 94t239 277t88.5 449z" />
    <glyph glyph-name="odblgrave" unicode="&#x20d;" horiz-adv-x="1680" 
d="M773 1733h-247l-421 365h331zM1137 1733h-218l-337 365h304zM840 -32q-208 0 -364.5 99t-244 277t-87.5 416q0 240 87.5 419t244 278t364.5 99t364.5 -99t244 -278t87.5 -419q0 -238 -87.5 -416t-244 -277t-364.5 -99zM840 180q158 0 260 81t151 213t49 286t-49 287
t-151 215t-260 82t-260 -82t-151 -215t-49 -287t49 -286t151 -213t260 -81z" />
    <glyph glyph-name="Oinvertedbreve" unicode="&#x20e;" horiz-adv-x="2144" 
d="M1488 2290h-222q0 80 -44 140t-148 60q-106 0 -150 -60t-44 -140h-221q0 163 111.5 266.5t303.5 103.5t303 -103.5t111 -266.5zM1976 1024q0 -324 -117 -560t-321 -364t-466 -128t-466 128t-321 364t-117 560t117 560t321 364t466 128t466 -128t321 -364t117 -560z
M1736 1024q0 266 -88.5 449t-239 277t-336.5 94t-336.5 -94t-239 -277t-88.5 -449t88.5 -449t239 -277t336.5 -94t336.5 94t239 277t88.5 449z" />
    <glyph glyph-name="oinvertedbreve" unicode="&#x20f;" horiz-adv-x="1680" 
d="M1256 1778h-222q0 80 -44 140t-148 60q-106 0 -150 -60t-44 -140h-221q0 163 111.5 266.5t303.5 103.5t303 -103.5t111 -266.5zM840 -32q-208 0 -364.5 99t-244 277t-87.5 416q0 240 87.5 419t244 278t364.5 99t364.5 -99t244 -278t87.5 -419q0 -238 -87.5 -416
t-244 -277t-364.5 -99zM840 180q158 0 260 81t151 213t49 286t-49 287t-151 215t-260 82t-260 -82t-151 -215t-49 -287t49 -286t151 -213t260 -81z" />
    <glyph glyph-name="Rdblgrave" unicode="&#x210;" horiz-adv-x="1784" 
d="M837 2245h-247l-421 365h331zM1201 2245h-218l-337 365h304zM1404 0l-407 796h-501v-796h-248v2048h684q244 0 395.5 -86t222 -229t70.5 -313q0 -211 -96 -354t-274 -215l442 -851h-288zM496 1828v-804h408q180 0 283 51.5t146 141t43 203.5q0 96 -35 190t-131 156
t-278 62h-436z" />
    <glyph glyph-name="rdblgrave" unicode="&#x211;" horiz-adv-x="1088" 
d="M485 1733h-247l-421 365h331zM849 1733h-218l-337 365h304zM1064 1504l-80 -220q-18 9 -49.5 20.5t-82.5 11.5q-126 0 -214.5 -68.5t-136 -172t-49.5 -207.5v-868h-236v1536h236v-264h16q22 74 80.5 140t140 107t171.5 41q60 0 114 -17.5t90 -38.5z" />
    <glyph glyph-name="Rinvertedbreve" unicode="&#x212;" horiz-adv-x="1784" 
d="M1320 2290h-222q0 80 -44 140t-148 60q-106 0 -150 -60t-44 -140h-221q0 163 111.5 266.5t303.5 103.5t303 -103.5t111 -266.5zM1404 0l-407 796h-501v-796h-248v2048h684q244 0 395.5 -86t222 -229t70.5 -313q0 -211 -96 -354t-274 -215l442 -851h-288zM496 1828v-804
h408q180 0 283 51.5t146 141t43 203.5q0 96 -35 190t-131 156t-278 62h-436z" />
    <glyph glyph-name="rinvertedbreve" unicode="&#x213;" horiz-adv-x="1088" 
d="M968 1778h-222q0 80 -44 140t-148 60q-106 0 -150 -60t-44 -140h-221q0 163 111.5 266.5t303.5 103.5t303 -103.5t111 -266.5zM1064 1504l-80 -220q-18 9 -49.5 20.5t-82.5 11.5q-126 0 -214.5 -68.5t-136 -172t-49.5 -207.5v-868h-236v1536h236v-264h16q22 74 80.5 140
t140 107t171.5 41q60 0 114 -17.5t90 -38.5z" />
    <glyph glyph-name="Udblgrave" unicode="&#x214;" horiz-adv-x="2088" 
d="M977 2245h-247l-421 365h331zM1341 2245h-218l-337 365h304zM1592 2048h248v-1356q0 -230 -109 -393t-290 -249t-397 -86t-397 86t-290 249t-109 393v1356h248v-1356q0 -160 76 -270.5t201 -168t271 -57.5t271 57.5t201 168t76 270.5v1356z" />
    <glyph glyph-name="udblgrave" unicode="&#x215;" horiz-adv-x="1636" 
d="M753 1733h-247l-421 365h331zM1117 1733h-218l-337 365h304zM1184 608v928h236v-1536h-236v216h-16q-57 -87 -169.5 -161.5t-286.5 -74.5q-112 0 -226.5 61t-192 189t-77.5 330v976h236v-976q0 -168 94.5 -260t241.5 -92q88 0 179.5 40t154 128t62.5 232z" />
    <glyph glyph-name="Uinvertedbreve" unicode="&#x216;" horiz-adv-x="2088" 
d="M1460 2290h-222q0 80 -44 140t-148 60q-106 0 -150 -60t-44 -140h-221q0 163 111.5 266.5t303.5 103.5t303 -103.5t111 -266.5zM1592 2048h248v-1356q0 -230 -109 -393t-290 -249t-397 -86t-397 86t-290 249t-109 393v1356h248v-1356q0 -160 76 -270.5t201 -168
t271 -57.5t271 57.5t201 168t76 270.5v1356z" />
    <glyph glyph-name="uinvertedbreve" unicode="&#x217;" horiz-adv-x="1636" 
d="M1236 1778h-222q0 80 -44 140t-148 60q-106 0 -150 -60t-44 -140h-221q0 163 111.5 266.5t303.5 103.5t303 -103.5t111 -266.5zM1184 608v928h236v-1536h-236v216h-16q-57 -87 -169.5 -161.5t-286.5 -74.5q-112 0 -226.5 61t-192 189t-77.5 330v976h236v-976
q0 -168 94.5 -260t241.5 -92q88 0 179.5 40t154 128t62.5 232z" />
    <glyph glyph-name="Scommaaccent" unicode="&#x218;" horiz-adv-x="1788" 
d="M1360 1520q-27 165 -150.5 250.5t-309.5 85.5q-204 0 -328 -97t-124 -247q0 -123 96 -202.5t300 -133.5l208 -56q291 -78 433.5 -212.5t142.5 -347.5q0 -168 -86.5 -303t-252 -214t-401.5 -79q-330 0 -524 156t-212 408h256q10 -116 78.5 -191.5t174 -112t227.5 -36.5
q142 0 255 46.5t179 130t66 195.5q0 138 -100.5 209t-307.5 131l-252 72q-240 69 -380 197t-140 335q0 172 93.5 300.5t252 200t354.5 71.5q198 0 350.5 -71.5t242 -197t99.5 -287.5h-240zM1008 -164v-124q-3 -132 -42.5 -287.5t-117.5 -272.5l-200 40q51 120 85.5 261
t34.5 255v128h240z" />
    <glyph glyph-name="scommaaccent" unicode="&#x219;" horiz-adv-x="1460" 
d="M1276 1192l-212 -60q-14 34 -44.5 87t-96 95t-183.5 42q-141 0 -234.5 -66.5t-93.5 -165.5q0 -78 64 -142.5t196 -97.5l228 -56q210 -51 303 -161.5t93 -242.5q0 -118 -67 -222t-197 -169t-320 -65q-184 0 -306 57t-195 146t-111 185l216 80q42 -105 131.5 -184.5
t260.5 -79.5q165 0 256.5 74t91.5 170q0 152 -220 204l-256 64q-210 54 -307 170.5t-97 257.5q0 130 73.5 230t201 157t289.5 57q213 0 344.5 -98t191.5 -266zM860 -128v-124q-3 -132 -42.5 -287.5t-117.5 -272.5l-200 40q51 120 85.5 261t34.5 255v128h240z" />
    <glyph glyph-name="uni021A" unicode="&#x21a;" horiz-adv-x="1808" 
d="M1672 2048v-220h-644v-1828h-248v1828h-644v220h1536zM1024 -128v-124q-3 -132 -42.5 -287.5t-117.5 -272.5l-200 40q51 120 85.5 261t34.5 255v128h240z" />
    <glyph glyph-name="uni021B" unicode="&#x21b;" horiz-adv-x="1000" 
d="M860 1536v-220h-328v-876q0 -100 29.5 -149.5t76 -66t98.5 -16.5q39 0 64 4.5t40 7.5l48 -212q-24 -9 -67 -18.5t-109 -9.5q-100 0 -195.5 43t-158 131t-62.5 222v940h-232v220h232v328h236v-328h328zM716 -128v-124q-3 -132 -42.5 -287.5t-117.5 -272.5l-200 40
q51 120 85.5 261t34.5 255v128h240z" />
    <glyph glyph-name="uni021C" unicode="&#x21c;" horiz-adv-x="1776" 
d="M304 444v208q314 94 533 201t333 253t114 358q0 135 -101.5 235.5t-326.5 100.5q-106 0 -195 -41t-143 -114t-54 -169h-284q0 170 92.5 295t246 193t337.5 68q327 0 519.5 -146.5t192.5 -425.5q0 -136 -55.5 -258.5t-156.5 -229.5q117 -75 180.5 -204t63.5 -320
q0 -244 -96.5 -418t-271 -293.5t-411.5 -199.5t-517 -137v228q318 64 543.5 163t345 258t119.5 403q0 273 -125 372q-169 -124 -395 -220t-488 -160z" />
    <glyph glyph-name="uni021D" unicode="&#x21d;" horiz-adv-x="1520" 
d="M300 288v204q126 30 255.5 77t238.5 116.5t175.5 167t66.5 227.5q0 81 -63.5 148.5t-216.5 67.5q-126 0 -213 -65.5t-87 -158.5h-272q0 136 78 235.5t208 154t286 54.5q258 0 407 -111.5t149 -324.5q0 -107 -43.5 -202.5t-119.5 -178.5q94 -75 142.5 -189t48.5 -250
q0 -390 -268 -592t-772 -268v216q228 50 400 124.5t268 198t96 321.5q0 188 -86 293q-140 -96 -316.5 -163t-361.5 -102z" />
    <glyph glyph-name="uni021E" unicode="&#x21e;" horiz-adv-x="2084" 
d="M800 2628l240 -240l244 240h192v-16l-368 -376h-136l-364 376v16h192zM496 2048v-912h1092v912h248v-2048h-248v916h-1092v-916h-248v2048h248z" />
    <glyph glyph-name="uni021F" unicode="&#x21f;" horiz-adv-x="1636" 
d="M644 2628l240 -240l244 240h192v-16l-368 -376h-136l-364 376v16h192zM452 928v-928h-236v2048h236v-728h16q57 87 169.5 161.5t286.5 74.5q216 0 356 -147.5t140 -432.5v-976h-236v976q0 168 -91.5 260t-244.5 92q-94 0 -185 -40t-151 -128t-60 -232z" />
    <glyph glyph-name="uni0220" unicode="&#x220;" horiz-adv-x="1776" 
d="M1616 -572h-276v1928q0 234 -124 341t-328 107q-142 0 -253 -27.5t-199 -74.5v-1702h-272v2004h272v-83q89 48 204.5 79.5t247.5 31.5q190 0 356 -75t269 -225t103 -376v-1928z" />
    <glyph glyph-name="uni0221" unicode="&#x221;" horiz-adv-x="2024" 
d="M1264 2048h236v-1937q104 41 208 41q165 0 274.5 -99.5t109.5 -264.5q0 -162 -109 -263t-295 -101q-163 0 -257.5 74t-134.5 178l-192 -200l-152 156l312 320v284h-16q-26 -42 -75 -105.5t-139 -113t-238 -49.5q-192 0 -339 97.5t-230 276t-83 422.5q0 242 83 420
t231 275t342 97q150 0 238.5 -49.5t136 -112t73.5 -102.5h16v756zM380 768q0 -164 50.5 -297.5t150 -212t247.5 -78.5q213 0 326.5 163.5t113.5 424.5q0 258 -112 417t-328 159q-150 0 -249.5 -76.5t-149 -207t-49.5 -292.5zM1500 -204q0 -69 56.5 -118.5t131.5 -49.5
q72 0 116 45.5t44 114.5q0 72 -47 112t-125 40q-53 0 -96 -17.5t-80 -45.5v-81z" />
    <glyph glyph-name="uni0222" unicode="&#x222;" horiz-adv-x="1776" 
d="M860 1232h56q126 0 231.5 25t169 90t63.5 185q0 129 -65.5 190t-194.5 94v216q152 -8 275.5 -63t196 -163t72.5 -274q0 -163 -78 -268.5t-206 -163.5q131 -76 207.5 -201t76.5 -299q0 -212 -101 -351.5t-273 -208t-386 -68.5h-32q-214 0 -386 68.5t-273 207t-101 348.5
q0 176 76.5 302t207.5 202q-128 58 -206 163t-78 269q0 166 73.5 274t197 163t273.5 63v-216q-129 -33 -194.5 -94t-65.5 -190q0 -120 64.5 -185t170 -90t229.5 -25zM904 996h-32q-216 0 -346 -98t-130 -302t130 -296t346 -92h32q216 0 346 92.5t130 299.5q0 201 -130 298.5
t-346 97.5z" />
    <glyph glyph-name="uni0223" unicode="&#x223;" horiz-adv-x="1776" 
d="M916 1220q126 0 232.5 29.5t171 106t64.5 216.5q0 150 -67.5 231.5t-196.5 132.5v204q150 -6 272.5 -73.5t195 -192t72.5 -302.5t-80 -292.5t-210 -177.5q133 -74 211.5 -199.5t78.5 -302.5q0 -212 -100 -351.5t-271 -208t-385 -68.5h-32q-214 0 -385 68.5t-271 207
t-100 348.5q0 179 78.5 305.5t212.5 200.5q-131 63 -211 177t-80 293q0 178 72.5 302.5t195 192t272.5 73.5v-204q-129 -51 -196.5 -132.5t-67.5 -231.5q0 -140 65.5 -216.5t172 -106t230.5 -29.5h56zM904 1000h-32q-216 0 -348 -100t-132 -304t132 -304t348 -100h32
q213 0 346.5 100.5t133.5 307.5q0 201 -133.5 300.5t-346.5 99.5z" />
    <glyph glyph-name="uni0224" unicode="&#x224;" horiz-adv-x="1760" 
d="M1580 1868l-1104 -1648h724q189 0 298.5 -112t109.5 -292v-120h-224v76q0 87 -39.5 157.5t-144.5 70.5h-1020v180l1104 1648h-1116v220h1412v-180z" />
    <glyph glyph-name="zhook" unicode="&#x225;" horiz-adv-x="1520" 
d="M1344 1348l-860 -1128h512q195 0 301.5 -116.5t106.5 -287.5v-136h-212v76q0 96 -38 170t-158 74h-820v200l864 1116h-880v220h1184v-188z" />
    <glyph glyph-name="uni0226" unicode="&#x226;" horiz-adv-x="1904" 
d="M796 2428q0 66 39 111t117 45t119 -45t41 -111q0 -63 -41 -105.5t-119 -42.5t-117 42.5t-39 105.5zM332 0h-260l752 2048h256l752 -2048h-260l-193 548h-854zM940 1724l-337 -956h698l-337 956h-24z" />
    <glyph glyph-name="uni0227" unicode="&#x227;" horiz-adv-x="1588" 
d="M648 1916q0 66 39 111t117 45t119 -45t41 -111q0 -63 -41 -105.5t-119 -42.5t-117 42.5t-39 105.5zM1136 0v208h-12q-24 -50 -80 -107t-149 -97t-227 -40q-146 0 -265 55.5t-189 161t-70 255.5q0 130 52 213t138 130t192 71t214 38q106 14 196 22t145 28t55 70v4
q0 192 -91 264t-229 72q-171 0 -268 -74t-136 -158l-224 80q60 140 160.5 218.5t220 110t235.5 31.5q74 0 170.5 -17.5t187 -71.5t150.5 -163t60 -292v-1012h-236zM1136 556v216q-15 -18 -65.5 -32.5t-116 -25t-127 -18.5t-99.5 -12q-92 -12 -171.5 -38.5t-128 -79
t-48.5 -142.5q0 -123 91.5 -185.5t232.5 -62.5q140 0 236.5 55t146 142t49.5 183z" />
    <glyph glyph-name="uni0228" unicode="&#x228;" horiz-adv-x="1684" 
d="M1500 220v-220h-516l-12 -56q78 -12 143 -65.5t65 -170.5q0 -129 -106.5 -210.5t-313.5 -81.5l-8 156q93 0 154.5 29.5t61.5 98.5t-51 94t-165 34l40 172h-544v2048h1236v-220h-988v-692h884v-220h-884v-696h1004z" />
    <glyph glyph-name="uni0229" unicode="&#x229;" horiz-adv-x="1644" 
d="M1132 -308q0 -129 -106.5 -210.5t-313.5 -81.5l-8 156q93 0 154.5 29.5t61.5 98.5t-51 94t-165 34l38 164q-280 38 -439 248t-159 532q0 236 86.5 416.5t242 282t363.5 101.5q120 0 237 -40t213 -129.5t153 -237t57 -361.5v-100h-1113q18 -249 143 -378.5t334 -129.5
q141 0 240 60t144 180l228 -64q-50 -160 -191.5 -264t-346.5 -121l-10 -43q78 -12 143 -65.5t65 -170.5zM836 1344q-177 0 -298 -118t-150 -334h868q0 195 -114 323.5t-306 128.5z" />
    <glyph glyph-name="uni022A" unicode="&#x22a;" horiz-adv-x="2144" 
d="M1543 2885v-206h-939v206h939zM593 2416q0 64 39.5 108.5t118.5 44.5q78 0 118.5 -44.5t40.5 -108.5q0 -62 -40.5 -105.5t-118.5 -43.5q-79 0 -118.5 43.5t-39.5 105.5zM1237 2414q0 64 40 108t119 44q78 0 118.5 -44t40.5 -108q0 -63 -40.5 -106.5t-118.5 -43.5
q-79 0 -119 43.5t-40 106.5zM1976 1024q0 -324 -117 -560t-321 -364t-466 -128t-466 128t-321 364t-117 560t117 560t321 364t466 128t466 -128t321 -364t117 -560zM1736 1024q0 266 -88.5 449t-239 277t-336.5 94t-336.5 -94t-239 -277t-88.5 -449t88.5 -449t239 -277
t336.5 -94t336.5 94t239 277t88.5 449z" />
    <glyph glyph-name="uni022B" unicode="&#x22b;" horiz-adv-x="1680" 
d="M1318 2416v-206h-940v206h940zM391 1898q0 64 39.5 108t118.5 44q78 0 118.5 -44t40.5 -108q0 -63 -40.5 -106.5t-118.5 -43.5q-79 0 -118.5 43.5t-39.5 106.5zM981 1895q0 64 39.5 108.5t118.5 44.5q78 0 118.5 -44.5t40.5 -108.5q0 -63 -40.5 -106.5t-118.5 -43.5
q-79 0 -118.5 43.5t-39.5 106.5zM840 -32q-208 0 -364.5 99t-244 277t-87.5 416q0 240 87.5 419t244 278t364.5 99t364.5 -99t244 -278t87.5 -419q0 -238 -87.5 -416t-244 -277t-364.5 -99zM840 180q158 0 260 81t151 213t49 286t-49 287t-151 215t-260 82t-260 -82
t-151 -215t-49 -287t49 -286t151 -213t260 -81z" />
    <glyph glyph-name="uni022C" unicode="&#x22c;" horiz-adv-x="2144" 
d="M1543 2885v-206h-939v206h939zM1336 2540l120 -34q0 -101 -64.5 -175.5t-165.5 -74.5q-74 0 -119 25t-85 50.5t-101 25.5q-45 0 -76.5 -35t-31.5 -86l-121 31q0 99 63.5 177t165.5 78q61 0 108 -25t93 -50.5t104 -25.5q45 0 77.5 34.5t32.5 84.5zM1976 1024
q0 -324 -117 -560t-321 -364t-466 -128t-466 128t-321 364t-117 560t117 560t321 364t466 128t466 -128t321 -364t117 -560zM1736 1024q0 266 -88.5 449t-239 277t-336.5 94t-336.5 -94t-239 -277t-88.5 -449t88.5 -449t239 -277t336.5 -94t336.5 94t239 277t88.5 449z" />
    <glyph glyph-name="uni022D" unicode="&#x22d;" horiz-adv-x="1680" 
d="M1318 2456v-206h-940v206h940zM1151 2107l182 -18q0 -155 -88 -247.5t-215 -92.5q-69 0 -114.5 19t-81 44.5t-74.5 44.5t-96 19q-56 0 -94.5 -44.5t-38.5 -107.5l-181 10q0 154 86.5 251t214.5 97q76 0 131 -32t108.5 -64t125.5 -32q57 0 96 44t39 109zM840 -32
q-208 0 -364.5 99t-244 277t-87.5 416q0 240 87.5 419t244 278t364.5 99t364.5 -99t244 -278t87.5 -419q0 -238 -87.5 -416t-244 -277t-364.5 -99zM840 180q158 0 260 81t151 213t49 286t-49 287t-151 215t-260 82t-260 -82t-151 -215t-49 -287t49 -286t151 -213t260 -81z
" />
    <glyph glyph-name="uni022E" unicode="&#x22e;" horiz-adv-x="2144" 
d="M916 2428q0 66 39 111t117 45t119 -45t41 -111q0 -63 -41 -105.5t-119 -42.5t-117 42.5t-39 105.5zM1976 1024q0 -324 -117 -560t-321 -364t-466 -128t-466 128t-321 364t-117 560t117 560t321 364t466 128t466 -128t321 -364t117 -560zM1736 1024q0 266 -88.5 449
t-239 277t-336.5 94t-336.5 -94t-239 -277t-88.5 -449t88.5 -449t239 -277t336.5 -94t336.5 94t239 277t88.5 449z" />
    <glyph glyph-name="uni022F" unicode="&#x22f;" horiz-adv-x="1680" 
d="M684 1916q0 66 39 111t117 45t119 -45t41 -111q0 -63 -41 -105.5t-119 -42.5t-117 42.5t-39 105.5zM840 -32q-208 0 -364.5 99t-244 277t-87.5 416q0 240 87.5 419t244 278t364.5 99t364.5 -99t244 -278t87.5 -419q0 -238 -87.5 -416t-244 -277t-364.5 -99zM840 180
q158 0 260 81t151 213t49 286t-49 287t-151 215t-260 82t-260 -82t-151 -215t-49 -287t49 -286t151 -213t260 -81z" />
    <glyph glyph-name="uni0230" unicode="&#x230;" horiz-adv-x="2144" 
d="M1543 2885v-206h-939v206h939zM914 2414q0 64 40 108t118 44q79 0 119.5 -44t40.5 -108q0 -63 -40.5 -106.5t-119.5 -43.5q-78 0 -118 43.5t-40 106.5zM1976 1024q0 -324 -117 -560t-321 -364t-466 -128t-466 128t-321 364t-117 560t117 560t321 364t466 128t466 -128
t321 -364t117 -560zM1736 1024q0 266 -88.5 449t-239 277t-336.5 94t-336.5 -94t-239 -277t-88.5 -449t88.5 -449t239 -277t336.5 -94t336.5 94t239 277t88.5 449z" />
    <glyph glyph-name="uni0231" unicode="&#x231;" horiz-adv-x="1680" 
d="M1318 2412v-206h-940v206h940zM682 1895q0 64 40 108.5t118 44.5q79 0 119.5 -44.5t40.5 -108.5q0 -63 -40.5 -106.5t-119.5 -43.5q-78 0 -118 43.5t-40 106.5zM840 -32q-208 0 -364.5 99t-244 277t-87.5 416q0 240 87.5 419t244 278t364.5 99t364.5 -99t244 -278
t87.5 -419q0 -238 -87.5 -416t-244 -277t-364.5 -99zM840 180q158 0 260 81t151 213t49 286t-49 287t-151 215t-260 82t-260 -82t-151 -215t-49 -287t49 -286t151 -213t260 -81z" />
    <glyph glyph-name="uni0232" unicode="&#x232;" horiz-adv-x="1880" 
d="M1420 2528v-204h-940v204h940zM360 2048l568 -956h24l568 956h284l-740 -1204v-844h-248v844l-740 1204h284z" />
    <glyph glyph-name="uni0233" unicode="&#x233;" horiz-adv-x="1568" 
d="M1260 2016v-204h-940v204h940zM612 -152l54 142l-570 1546h256l423 -1224h17l424 1224h256l-660 -1784q-130 -348 -452 -348q-60 0 -107 9.5t-65 18.5l60 208q84 -20 149.5 -14t118 57t96.5 165z" />
    <glyph glyph-name="lcurl" unicode="&#x234;" horiz-adv-x="964" 
d="M452 2048v-1937q104 41 208 41q165 0 274.5 -99.5t109.5 -264.5q0 -162 -109 -263t-295 -101q-163 0 -257.5 74t-134.5 178l-192 -200l-152 156l312 320v2096h236zM452 -204q0 -69 56.5 -118.5t131.5 -49.5q72 0 116 45.5t44 114.5q0 72 -47 112t-125 40q-53 0 -96 -17.5
t-80 -45.5v-81z" />
    <glyph glyph-name="ncurl" unicode="&#x235;" horiz-adv-x="1976" 
d="M452 908v-908h-236v1536h236v-260h16q54 117 168 198.5t288 81.5q216 0 356 -143t140 -437v-633q104 41 208 41q165 0 274.5 -99.5t109.5 -264.5q0 -162 -109 -263t-295 -101q-163 0 -257.5 74t-134.5 178l-192 -200l-152 156l312 320v776q0 168 -94.5 268t-241.5 100
q-88 0 -179.5 -45t-154 -138t-62.5 -237zM1420 28q0 -69 56.5 -118.5t131.5 -49.5q72 0 116 45.5t44 114.5q0 72 -47 112t-125 40q-53 0 -96 -17.5t-80 -45.5v-81z" />
    <glyph glyph-name="tcurl" unicode="&#x236;" horiz-adv-x="1140" 
d="M872 1536v-220h-328v-661q104 41 208 41q165 0 278.5 -99.5t113.5 -264.5q0 -162 -113 -263t-299 -101q-163 0 -257.5 74t-134.5 178l-192 -200l-152 156l312 320v820h-248v220h248v328h236v-328h328zM544 340q0 -69 56.5 -118.5t131.5 -49.5q72 0 120 45.5t48 114.5
q0 72 -51 112t-129 40q-53 0 -96 -17.5t-80 -45.5v-81z" />
    <glyph glyph-name="dotlessj" unicode="&#x237;" horiz-adv-x="668" 
d="M216 1536h236v-1648q0 -213 -109 -340.5t-331 -127.5h-48v220h44q108 0 158 65.5t50 182.5v1648z" />
    <glyph glyph-name="uni0238" unicode="&#x238;" horiz-adv-x="2544" 
d="M140 728v28q0 226 74 397t207 267t311 96q129 0 228.5 -42t171.5 -122v760h276v-774q73 86 176.5 132t239.5 46q188 0 318.5 -96t198 -267t67.5 -397v-28q0 -216 -68.5 -387t-198 -270t-313.5 -99q-138 0 -242 46t-178 133v-151h-252l-12 149q-74 -86 -177 -131.5
t-239 -45.5q-174 0 -306.5 99t-207 270t-74.5 387zM2132 728v28q0 144 -36 265t-119 194t-225 73q-129 0 -213 -62t-131 -156v-643q47 -95 131 -161t217 -66q134 0 217 72t121 192t38 264zM416 756v-28q0 -144 39 -264t123 -192t218 -72q128 0 208 58t128 149v686
q-48 85 -129 140t-203 55q-136 0 -220.5 -73t-124 -194t-39.5 -265z" />
    <glyph glyph-name="uni0239" unicode="&#x239;" horiz-adv-x="2544" 
d="M140 728v28q0 226 70.5 397t204 267t321.5 96q131 0 232.5 -42.5t175.5 -122.5l12 137h228l13 -153q75 88 180.5 134.5t242.5 46.5q190 0 320 -96t197 -267t67 -397v-28q0 -216 -67.5 -387t-197 -270t-315.5 -99q-134 0 -237.5 42.5t-178.5 121.5v-708h-276v696
q-151 -152 -396 -152q-186 0 -319.5 99t-205 270t-71.5 387zM416 756v-28q0 -144 41 -266t127 -196t220 -74q120 0 199 52.5t129 135.5v738q-51 78 -131 128t-193 50q-136 0 -222.5 -75t-128 -198t-41.5 -267zM2128 728v28q0 144 -40.5 265t-127 194t-224.5 73
q-119 0 -199 -54t-129 -139v-710q49 -84 128.5 -138.5t203.5 -54.5q136 0 221.5 74t126 196t40.5 266z" />
    <glyph glyph-name="uni023A" unicode="&#x23a;" horiz-adv-x="1904" 
d="M1696 2176l-403 -709l539 -1467h-260l-193 548h-607l-420 -740h-232l109 192h-157l752 2048h256l122 -333l262 461h232zM940 1724l-337 -956h62l392 691l-93 265h-24zM897 768h404l-155 439zM525 548l-24 -69l39 69h-15z" />
    <glyph glyph-name="uni023B" unicode="&#x23b;" horiz-adv-x="2048" 
d="M636 -192l-172 72l100 244q-183 131 -289.5 360t-106.5 536q0 324 117 560t321 364t466 128q143 0 273 -39l83 203l172 -72l-84 -205q146 -84 246 -224.5t134 -330.5h-248q-23 111 -81.5 195t-140.5 139l-609 -1487q118 -51 255 -51q136 0 256 50t205 147t115 239h248
q-38 -210 -155 -359.5t-290 -229t-379 -79.5q-184 0 -344 65zM408 1020q0 -229 67.5 -397t181.5 -270l599 1462q-88 25 -184 25q-186 0 -336.5 -94t-239 -277t-88.5 -449z" />
    <glyph glyph-name="uni023C" unicode="&#x23c;" horiz-adv-x="1520" 
d="M1376 1076h-236q-25 96 -95 164l-421 -1036q69 -24 148 -24q138 0 236.5 71t131.5 197h236q-20 -136 -98.5 -244.5t-207 -172t-298.5 -63.5q-123 0 -230 36l-234 -576h-192l267 655q-146 101 -226.5 278.5t-80.5 406.5q0 230 86.5 408t242 279t363.5 101q108 0 206 -28
l194 476h188l-223 -548q99 -63 162.5 -160t80.5 -220zM312 768q0 -152 42 -271.5t118 -196.5l420 1028q-56 16 -120 16q-207 0 -333.5 -157.5t-126.5 -418.5z" />
    <glyph glyph-name="L_bar" unicode="&#x23d;" horiz-adv-x="1584" 
d="M1448 220v-220h-1200v1008h-240v184h240v856h248v-856h392v-184h-392v-788h952z" />
    <glyph glyph-name="uni023E" unicode="&#x23e;" horiz-adv-x="1808" 
d="M540 -192l-172 72l412 1007v941h-644v220h1119l77 188l172 -72l-47 -116h215v-220h-305l-339 -827v-1001h-248v395zM1028 1828v-335l137 335h-137z" />
    <glyph glyph-name="uni023F" unicode="&#x23f;" horiz-adv-x="1460" 
d="M1276 1192l-212 -60q-14 34 -44.5 87t-96 95t-183.5 42q-141 0 -234.5 -66.5t-93.5 -165.5q0 -78 64 -142.5t196 -97.5l228 -56q210 -51 303 -161.5t93 -242.5q0 -118 -67 -222t-197 -169t-320 -65q-79 0 -149 12q81 -142 130 -216.5t84 -101t75 -26.5q54 0 102.5 27
t81.5 57l92 -160q-45 -45 -122 -90.5t-158 -45.5q-132 0 -224.5 83.5t-179.5 236.5l-279 487q-38 57 -65 125l216 80q42 -105 131.5 -184.5t260.5 -79.5q165 0 256.5 74t91.5 170q0 152 -220 204l-256 64q-210 54 -307 170.5t-97 257.5q0 130 73.5 230t201 157t289.5 57
q213 0 344.5 -98t191.5 -266z" />
    <glyph glyph-name="uni0240" unicode="&#x240;" horiz-adv-x="1516" 
d="M484 220h60q151 0 255.5 -58t177.5 -144t129 -172t108.5 -144t117.5 -58q57 0 102.5 21.5t81.5 54.5l92 -160q-45 -45 -119 -90.5t-173 -45.5q-108 0 -180.5 58t-130.5 144t-120.5 172t-149.5 144t-219 58h-340v200l864 1116h-880v220h1184v-188z" />
    <glyph glyph-name="uni0241" unicode="&#x241;" horiz-adv-x="1520" 
d="M592 0v624h132q156 0 241 73.5t118 189t33 241.5v160q0 124 -34 239.5t-119 190t-239 74.5q-150 0 -238.5 -88t-97.5 -232h-268q6 160 82.5 286.5t210 200t311.5 73.5q228 0 378 -103.5t224 -273t74 -367.5v-160q0 -174 -57 -327t-172.5 -260t-290.5 -142v-399h-288z" />
    <glyph glyph-name="uni0242" unicode="&#x242;" horiz-adv-x="1520" 
d="M640 616h128q159 0 223.5 94t64.5 238q0 141 -69 244.5t-243 103.5q-126 0 -201 -95.5t-75 -236.5h-276q0 170 74 294t199 191t279 67q282 0 433 -146.5t151 -425.5q0 -181 -93.5 -317.5t-318.5 -171.5v-455h-276v616z" />
    <glyph glyph-name="uni0243" unicode="&#x243;" horiz-adv-x="1832" 
d="M988 0h-740v480h-240v184h240v1384h716q214 0 353 -73.5t207 -197t68 -273.5q0 -133 -46.5 -219t-122.5 -136t-163 -74v-19q94 -6 189 -66t159 -172t64 -274q0 -154 -70 -277t-221 -195t-393 -72zM496 1828v-680h460q168 0 284 97t116 259q0 135 -94 229.5t-298 94.5
h-468zM888 664v-184h-392v-260h492q243 0 345.5 94.5t102.5 229.5q0 104 -53 192.5t-151 142t-232 53.5h-504v-268h392z" />
    <glyph glyph-name="uni0244" unicode="&#x244;" horiz-adv-x="2088" 
d="M2096 1188v-164h-256v-332q0 -230 -109 -393t-290 -249t-397 -86t-397 86t-290 249t-109 393v332h-256v164h256v860h248v-860h1096v860h248v-860h256zM496 692q0 -160 76 -270.5t201 -168t271 -57.5t271 57.5t201 168t76 270.5v332h-1096v-332z" />
    <glyph glyph-name="uni0245" unicode="&#x245;" horiz-adv-x="2032" 
d="M1572 0l-558 1624l-550 -1624h-312l740 2004h248l744 -2004h-312z" />
    <glyph glyph-name="uni0246" unicode="&#x246;" horiz-adv-x="1668" 
d="M584 -220l-176 56l52 164h-212v2048h860l68 216l176 -56l-51 -160h183v-220h-252l-219 -692h367v-220h-437l-220 -696h777v-220h-846zM496 1136h323l219 692h-542v-692zM496 220h33l221 696h-254v-696z" />
    <glyph glyph-name="uni0247" unicode="&#x247;" horiz-adv-x="1640" 
d="M860 -32q-135 0 -251 39l-233 -583h-192l265 661q-146 100 -225.5 273t-79.5 398q0 236 86.5 416.5t242 282t363.5 101.5q101 0 193 -25l207 517h188l-234 -587q131 -81 218.5 -244t87.5 -429v-100h-615l-193 -482q78 -26 172 -26q141 0 240 60t144 180l228 -64
q-54 -174 -216 -281t-396 -107zM836 1344q-177 0 -298 -118t-150 -334h385l175 439q-53 13 -112 13zM1256 892q0 231 -150 359l-144 -359h294zM383 688q18 -256 152 -388l156 388h-308z" />
    <glyph glyph-name="uni0248" unicode="&#x248;" horiz-adv-x="1464" 
d="M952 584v424h-392v184h392v856h248v-856h240v-184h-240v-424q0 -297 -164 -454.5t-440 -157.5q-162 0 -295.5 66t-213 187t-79.5 287h240q0 -153 108.5 -236.5t255.5 -83.5q80 0 158.5 33t130 118t51.5 241z" />
    <glyph glyph-name="uni0249" unicode="&#x249;" horiz-adv-x="872" 
d="M432 1756q-78 0 -123 47t-45 113q0 60 45 110t123 50t123 -50t45 -110q0 -66 -45 -113t-123 -47zM876 932v-184h-324v-860q0 -213 -109 -340.5t-331 -127.5h-48v220h44q108 0 158 65.5t50 182.5v860h-320v184h320v604h236v-604h324z" />
    <glyph glyph-name="Q_rthook" unicode="&#x24a;" horiz-adv-x="2128" 
d="M1912 2048v-2212q0 -120 64 -164t160 -44q21 0 41 2.5t35 5.5v-200q-27 -9 -63.5 -10.5t-72.5 -1.5q-168 0 -284 107t-116 305v488h-16q-78 -171 -239.5 -263.5t-368.5 -92.5q-256 0 -451.5 135t-306 375t-110.5 554q0 304 109.5 539.5t305 370t453.5 134.5
q210 0 371.5 -91t236.5 -253h24v316h228zM428 1028q0 -254 80 -439t221 -285t323 -100q134 0 255.5 55t210 158t122.5 247q16 68 24.5 141.5t12 134t3.5 88.5q0 36 -8.5 144t-35.5 216q-60 204 -213.5 334t-366.5 130q-190 0 -331 -107t-219 -293t-78 -424z" />
    <glyph glyph-name="qrthook" unicode="&#x24b;" horiz-adv-x="1716" 
d="M1500 1536v-1700q0 -120 64 -164t160 -44q21 0 41 2.5t35 5.5v-200q-27 -9 -63.5 -10.5t-72.5 -1.5q-168 0 -284 107t-116 305v400h-16q-26 -42 -75 -105.5t-139 -113t-238 -49.5q-192 0 -339 97.5t-230 276t-83 422.5q0 242 83 420t231 275t342 97q150 0 238.5 -49.5
t136 -112t73.5 -102.5h24v244h228zM380 768q0 -164 50.5 -297.5t150 -212t247.5 -78.5q213 0 326.5 163.5t113.5 424.5q0 258 -112 417t-328 159q-150 0 -249.5 -76.5t-149 -207t-49.5 -292.5z" />
    <glyph glyph-name="uni024C" unicode="&#x24c;" horiz-adv-x="1792" 
d="M1412 0l-407 796h-501v-796h-248v796h-248v228h248v1024h684q244 0 395.5 -86t222 -229t70.5 -313q0 -211 -96 -354t-274 -215l442 -851h-288zM504 1828v-804h408q180 0 283 51.5t146 141t43 203.5q0 96 -35 190t-131 156t-278 62h-436z" />
    <glyph glyph-name="uni024D" unicode="&#x24d;" horiz-adv-x="1144" 
d="M824 828v-184h-316v-644h-236v644h-328v184h328v708h236v-264h16q22 74 80.5 140t140 107t171.5 41q60 0 114 -17.5t90 -38.5l-80 -220q-18 9 -49.5 20.5t-82.5 11.5q-126 0 -214.5 -68.5t-136 -172t-49.5 -207.5v-40h316z" />
    <glyph glyph-name="uni024E" unicode="&#x24e;" horiz-adv-x="1856" 
d="M348 2048l250 -420h660l250 420h284l-258 -420h326v-164h-427l-381 -620v-844h-248v844l-381 620h-427v164h326l-258 420h284zM916 1092h24l221 372h-466z" />
    <glyph glyph-name="uni024F" unicode="&#x24f;" horiz-adv-x="1520" 
d="M612 -152l54 142l-340 922h-234v184h166l-162 440h256l152 -440h560l152 440h256l-163 -440h127v-184h-195l-429 -1160q-130 -348 -452 -348q-60 0 -107 9.5t-65 18.5l60 208q84 -20 149.5 -14t118 57t96.5 165zM775 312h17l208 600h-432z" />
    <glyph glyph-name="aturn" unicode="&#x250;" horiz-adv-x="1588" 
d="M460 1524v-208h12q24 50 80 107t149 97t227 40q146 0 265 -55.5t189 -161t70 -255.5q0 -130 -52 -213t-138 -130t-192 -71t-214 -38q-106 -14 -196 -22t-145 -28t-55 -70v-4q0 -192 91 -264t229 -72q171 0 268 74t136 158l224 -80q-60 -140 -160.5 -218.5t-220 -110
t-235.5 -31.5q-74 0 -170.5 17.5t-187 71.5t-150.5 163t-60 292v1012h236zM460 968v-216q15 18 65.5 32.5t116 25t127 18.5t99.5 12q92 12 171.5 38.5t128 79t48.5 142.5q0 123 -91.5 185.5t-232.5 62.5q-140 0 -236.5 -55t-146 -142t-49.5 -183z" />
    <glyph glyph-name="ascript" unicode="&#x251;" horiz-adv-x="1624" 
d="M144 688v28q0 234 66.5 414.5t196 283t317.5 102.5q156 0 267 -65.5t181 -187.5v225h228v-1140q0 -123 31 -161.5t73 -38.5q20 0 44 8l32 -136q-45 -33 -88 -40.5t-88 -7.5q-104 0 -157 61.5t-70 200.5q-70 -126 -182 -194t-271 -68q-186 0 -315.5 92.5t-197 254
t-67.5 369.5zM376 716v-28q0 -213 110.5 -354.5t305.5 -141.5q110 0 182.5 47t115 122.5t60.5 164t18 170.5v68q0 84 -17.5 176.5t-59 173.5t-113.5 131.5t-182 50.5q-136 0 -229.5 -77.5t-142 -209t-48.5 -293.5z" />
    <glyph glyph-name="ascriptturn" unicode="&#x252;" horiz-adv-x="1776" 
d="M580 0h-232v1076q0 123 -31 159.5t-73 36.5q-12 0 -23 -2t-17 -2l-32 200q42 30 85 39t91 9q92 0 157 -51t95 -165q71 104 176.5 160t251.5 56q184 0 313.5 -92.5t198 -254t68.5 -369.5v-28q0 -234 -67.5 -414.5t-198 -283t-318.5 -102.5q-141 0 -245 54t-175 154z
M1332 772v28q0 136 -37.5 248.5t-120 180t-218.5 67.5q-127 0 -205 -67.5t-127 -172.5v-626q49 -105 128.5 -171.5t199.5 -66.5q138 0 221.5 80t121 212t37.5 288z" />
    <glyph glyph-name="bhook" unicode="&#x253;" horiz-adv-x="1716" 
d="M676 1872q-96 0 -160 -44t-64 -164v-372h20q26 40 72.5 102.5t134 112t237.5 49.5q194 0 342 -97t231 -275t83 -420q0 -244 -83 -422.5t-230 -276t-339 -97.5q-148 0 -237 49.5t-137 113t-74 105.5h-28v-236h-228v1664q0 198 116 305t284 107q36 0 72.5 -1.5t63.5 -10.5
v-200q-15 3 -35 5.5t-41 2.5zM1336 768q0 162 -49.5 292.5t-149 207t-249.5 76.5q-216 0 -328 -159t-112 -417q0 -261 113.5 -424.5t326.5 -163.5q148 0 247.5 78.5t150 212t50.5 297.5z" />
    <glyph glyph-name="oopen" unicode="&#x254;" horiz-adv-x="1520" 
d="M128 472h260q12 -117 108 -198.5t228 -81.5q156 0 242 78.5t120 199t34 246.5v56q0 126 -35 246.5t-121 199t-240 78.5q-150 0 -237 -95.5t-99 -224.5h-260q8 150 83 272.5t206 195t307 72.5q228 0 376 -103.5t220 -273t72 -367.5v-56q0 -198 -72 -367.5t-220 -273
t-376 -103.5q-158 0 -290.5 71t-215 185t-90.5 244z" />
    <glyph glyph-name="ccurl" unicode="&#x255;" horiz-adv-x="1560" 
d="M840 180q138 0 233 64.5t95 163.5q0 75 -54.5 109.5t-105.5 34.5q-113 0 -239 -70.5t-243 -166.5q123 -135 314 -135zM1444 1076h-236q-27 105 -119.5 186.5t-248.5 81.5q-207 0 -333.5 -157.5t-126.5 -418.5q0 -134 33 -245q126 98 277 167.5t322 69.5q201 0 298.5 -97
t97.5 -247q0 -138 -76 -238.5t-205 -155t-287 -54.5q-150 0 -272 51t-211 144q-71 -68 -126.5 -126t-86.5 -89l-164 144q42 43 104 114t142 151q-82 180 -82 411q0 230 86.5 408t242 279t363.5 101q162 0 292 -60t213 -168t103 -252z" />
    <glyph glyph-name="drthook" unicode="&#x256;" horiz-adv-x="1724" 
d="M1264 2048h236v-2212q0 -120 64 -164t160 -44q21 0 41 2.5t35 5.5v-200q-27 -9 -63.5 -10.5t-72.5 -1.5q-168 0 -284 107t-116 305v400h-16q-26 -42 -75 -105.5t-139 -113t-238 -49.5q-192 0 -339 97.5t-230 276t-83 422.5q0 242 83 420t231 275t342 97
q150 0 238.5 -49.5t136 -112t73.5 -102.5h16v756zM380 768q0 -164 50.5 -297.5t150 -212t247.5 -78.5q213 0 326.5 163.5t113.5 424.5q0 258 -112 417t-328 159q-150 0 -249.5 -76.5t-149 -207t-49.5 -292.5z" />
    <glyph glyph-name="dhook" unicode="&#x257;" horiz-adv-x="1732" 
d="M1500 0h-228v236h-28q-26 -42 -74 -105.5t-137 -113t-237 -49.5q-192 0 -339 97.5t-230 276t-83 422.5q0 242 83 420t231 275t342 97q150 0 237.5 -49.5t134 -112t72.5 -102.5h20v380q0 198 116.5 303t287.5 105q33 0 71 -3.5t65 -12.5v-204q-15 6 -38 7t-38 1
q-96 0 -162 -38t-66 -158v-1672zM380 768q0 -164 50.5 -297.5t150 -212t247.5 -78.5q213 0 326.5 163.5t113.5 424.5q0 258 -112 417t-328 159q-150 0 -249.5 -76.5t-149 -207t-49.5 -292.5z" />
    <glyph glyph-name="erev" unicode="&#x258;" horiz-adv-x="1520" 
d="M708 -28q-150 0 -258.5 42t-184 109t-125.5 141l168 128q66 -87 159.5 -143.5t228.5 -56.5q131 0 223.5 62.5t143.5 168.5t56 237h-995v120q0 210 63.5 376.5t200 263t356.5 96.5q166 0 315 -89.5t243 -261t94 -417.5v-56q0 -210 -83.5 -372.5t-238 -255t-366.5 -92.5z
M400 880h712q-26 203 -125.5 309.5t-242.5 106.5q-128 0 -200 -60t-104 -151t-40 -185v-20z" />
    <glyph glyph-name="schwa" unicode="&#x259;" horiz-adv-x="1520" 
d="M704 1520q210 0 362.5 -96t235 -265t82.5 -387v-56q0 -218 -90 -386t-235 -263t-311 -95q-210 0 -345.5 86.5t-201 238t-65.5 347.5v172h971q-6 136 -52.5 245.5t-134 174t-216.5 64.5q-147 0 -249 -44t-171 -104l-104 184q66 63 193 123.5t331 60.5zM748 196
q134 0 229 114t122 286h-687v-36q0 -96 35 -179t109 -134t192 -51z" />
    <glyph glyph-name="schwahook" unicode="&#x25a;" horiz-adv-x="2032" 
d="M676 1516q253 0 423.5 -131t232.5 -347l268 50q27 -177 68 -286.5t152 -109.5q68 0 84 4l36 -168q-39 -18 -83.5 -31t-92.5 -13q-114 0 -181 48t-103 127t-56 173l-60 -13v-19v-60q0 -244 -94 -415.5t-243 -262t-315 -90.5q-220 0 -356.5 97.5t-200 265t-63.5 377.5v88
l970 187q-41 135 -142.5 222t-255.5 87q-135 0 -228.5 -56.5t-159.5 -143.5l-168 128q50 74 125.5 141t184 109t258.5 42zM368 588q0 -94 32.5 -185t108 -151t203.5 -60q165 0 270.5 140.5t105.5 407.5v24l-720 -136v-40z" />
    <glyph glyph-name="epsilon1" unicode="&#x25b;" horiz-adv-x="1520" 
d="M739 868h288v-216h-288q-162 0 -247 -56t-85 -176q0 -90 91.5 -159t256.5 -69q159 0 255.5 76.5t96.5 175.5h272q0 -164 -92 -268.5t-235 -154t-297 -49.5q-180 0 -321 53.5t-222 154t-81 240.5q0 129 72.5 216.5t207.5 130.5q-118 49 -185 131.5t-67 181.5
q0 213 163 324.5t433 111.5q164 0 300.5 -54.5t218 -154t81.5 -235.5h-272q0 93 -95 158.5t-233 65.5q-165 0 -242.5 -67.5t-77.5 -148.5q0 -93 69.5 -152.5t234.5 -59.5z" />
    <glyph glyph-name="epsilon1rev" unicode="&#x25c;" horiz-adv-x="1520" 
d="M780 652h-288v216h288q162 0 233 59.5t71 152.5q0 81 -78 148.5t-246 67.5q-135 0 -229.5 -65.5t-94.5 -158.5h-272q0 136 81.5 235.5t217 154t297.5 54.5q270 0 435 -111.5t165 -324.5q0 -100 -67.5 -182.5t-186.5 -131.5q134 -43 206 -130.5t72 -215.5
q0 -140 -81 -240.5t-222 -154t-321 -53.5q-152 0 -295.5 49.5t-236 154t-92.5 268.5h276q0 -99 94.5 -175.5t253.5 -76.5q165 0 256.5 69t91.5 159q0 232 -328 232z" />
    <glyph glyph-name="epsilon1revhook" unicode="&#x25d;" horiz-adv-x="2032" 
d="M732 652h-288v216h288q162 0 233 59.5t71 152.5q0 81 -78 148.5t-246 67.5q-135 0 -229.5 -65.5t-94.5 -158.5h-272q0 136 81.5 235.5t217 154t297.5 54.5q217 0 367.5 -72t205.5 -211l319 63q27 -177 68 -288.5t152 -111.5q36 0 54 2.5t30 5.5l36 -168q-82 -44 -176 -44
q-114 0 -181 47.5t-103 126t-56 170.5l-125 -24q-41 -163 -245 -246q134 -43 206 -130.5t72 -215.5q0 -140 -81 -240.5t-222 -154t-321 -53.5q-152 0 -295.5 49.5t-236 154t-92.5 268.5h276q0 -99 94.5 -175.5t253.5 -76.5q165 0 256.5 69t91.5 159q0 232 -328 232z" />
    <glyph glyph-name="epsilon1revclosed" unicode="&#x25e;" horiz-adv-x="1520" 
d="M1364 420q0 -210 -161.5 -329t-422.5 -119q-110 0 -220 34.5t-201.5 121.5t-147 241.5t-55.5 394.5v0v2v2v0q1 219 54 364t142 229t200 119.5t228 35.5q261 0 408.5 -111.5t147.5 -324.5q0 -99 -59.5 -181.5t-169.5 -131.5q257 -88 257 -347zM800 648h-152v224h152
q147 0 205.5 57.5t58.5 150.5q0 81 -65.5 148.5t-218.5 67.5q-96 0 -176 -49.5t-128 -165.5t-48 -316q1 -304 94.5 -440.5t257.5 -136.5q153 0 230.5 71t77.5 161q0 120 -70.5 174t-217.5 54z" />
    <glyph glyph-name="jdotlessbar" unicode="&#x25f;" horiz-adv-x="840" 
d="M860 184v-184h-324v-112q0 -213 -109 -340.5t-331 -127.5h-48v220h44q108 0 158 65.5t50 182.5v112h-320v184h320v1352h236v-1352h324z" />
    <glyph glyph-name="ghook" unicode="&#x260;" horiz-adv-x="1728" 
d="M1724 1872q-96 0 -160 -44t-64 -164v-1676q0 -198 -94 -322.5t-247 -183t-331 -58.5q-246 0 -397 92.5t-223 215.5l188 132q30 -38 80.5 -92t135 -95t216.5 -41q118 0 218 40.5t160 124t58 211.5v272h-20q-26 -42 -73.5 -103.5t-136 -109t-238.5 -47.5q-186 0 -333.5 88
t-233 256t-85.5 408q0 236 83 411.5t231 272t342 96.5q150 0 238.5 -49.5t136 -112t73.5 -102.5h24v372q0 198 112 305t280 107q36 0 72.5 -1.5t63.5 -10.5v-200q-15 3 -35 5.5t-41 2.5zM380 780q0 -240 113 -392t335 -152q213 0 326.5 144.5t113.5 399.5q0 249 -112 406.5
t-328 157.5q-150 0 -249.5 -76t-149 -204t-49.5 -284z" />
    <glyph glyph-name="gcursive" unicode="&#x261;" horiz-adv-x="1776" 
d="M1256 1536h228v-1548q0 -198 -94 -322.5t-247 -183t-331 -58.5q-246 0 -397 92.5t-223 215.5l188 132q30 -38 80.5 -92t135 -95t216.5 -41q118 0 218 40.5t160 124t58 211.5v272h-20q-26 -42 -73.5 -103.5t-136 -109t-238.5 -47.5q-186 0 -333.5 88t-233 256t-85.5 408
q0 236 83 411.5t231 272t342 96.5q150 0 238.5 -49.5t136 -112t73.5 -102.5h24v244zM364 780q0 -240 113 -392t335 -152q213 0 326.5 144.5t113.5 399.5q0 249 -112 406.5t-328 157.5q-150 0 -249.5 -76t-149 -204t-49.5 -284z" />
    <glyph glyph-name="Gsmallcap" unicode="&#x262;" horiz-adv-x="1776" 
d="M1552 760v-544q-34 -46 -114.5 -103t-211 -99t-314.5 -42q-212 0 -373.5 84.5t-252 234t-90.5 345.5v224q0 194 91 342t251 231t366 83q210 0 347.5 -66t210 -180t86.5 -258h-248q-18 141 -121.5 214.5t-274.5 73.5q-128 0 -233.5 -58.5t-168 -158t-62.5 -223.5v-224
q0 -126 61.5 -226.5t168 -159t242.5 -58.5q162 0 266.5 44.5t137.5 71.5v232h-388v220h624z" />
    <glyph glyph-name="gamma1" unicode="&#x263;" horiz-adv-x="1676" 
d="M836 -600q-174 0 -275 86t-101 242q0 48 21 108t51 120l172 346l-608 1234h260l483 -964l481 964h260l-604 -1236l172 -344q33 -69 44.5 -129t11.5 -99q0 -156 -97 -242t-271 -86zM716 -272q0 -42 33 -71t87 -29t87 30.5t33 69.5q0 49 -29.5 115.5t-85.5 180.5
q-57 -111 -91 -178.5t-34 -117.5z" />
    <glyph glyph-name="babygamma" unicode="&#x264;" horiz-adv-x="2032" 
d="M920 304q0 -42 21 -73t75 -31t75 31t21 73q0 45 -25.5 104.5t-70.5 139.5q-45 -80 -70.5 -139.5t-25.5 -104.5zM328 1136l-172 172q69 81 157 144.5t223 63.5q102 0 186 -57t156 -152t138 -209q66 114 138.5 209t157.5 152t188 57q132 0 221.5 -63.5t158.5 -144.5
l-172 -172q-36 48 -77.5 80t-86.5 32q-61 0 -108.5 -36t-107.5 -129t-157 -263q90 -158 153.5 -284t63.5 -232q0 -156 -97.5 -244t-274.5 -88q-174 0 -273 88t-99 244q0 106 63.5 232.5t153.5 284.5q-97 171 -156 263.5t-105.5 128t-107.5 35.5q-48 0 -88 -32t-76 -80z" />
    <glyph glyph-name="hturn" unicode="&#x265;" horiz-adv-x="1636" 
d="M1192 608v928h236v-2048h-236v728h-16q-57 -87 -169.5 -161.5t-286.5 -74.5q-216 0 -356 147.5t-140 432.5v976h236v-976q0 -168 91.5 -260t244.5 -92q94 0 185 40t151 128t60 232z" />
    <glyph glyph-name="hhook" unicode="&#x266;" horiz-adv-x="1636" 
d="M452 928v-928h-236v1664q0 198 116 305t284 107q36 0 72.5 -1.5t63.5 -10.5v-200q-15 3 -35 5.5t-41 2.5q-96 0 -160 -44t-64 -164v-344h16q57 87 169.5 161.5t286.5 74.5q216 0 356 -147.5t140 -432.5v-976h-236v976q0 168 -91.5 260t-244.5 92q-94 0 -185 -40
t-151 -128t-60 -232z" />
    <glyph glyph-name="henghook" unicode="&#x267;" horiz-adv-x="1636" 
d="M452 928v-928h-236v1664q0 198 116 305t284 107q36 0 72.5 -1.5t63.5 -10.5v-200q-15 3 -35 5.5t-41 2.5q-96 0 -160 -44t-64 -164v-344h16q57 87 169.5 161.5t286.5 74.5q216 0 356 -147.5t140 -432.5v-1140q0 -198 -116 -305t-284 -107q-36 0 -72.5 1.5t-63.5 10.5v200
q15 -3 35 -5.5t41 -2.5q96 0 160 44t64 164v1140q0 168 -91.5 260t-244.5 92q-94 0 -185 -40t-151 -128t-60 -232z" />
    <glyph glyph-name="ibar" unicode="&#x268;" horiz-adv-x="840" 
d="M420 1756q-78 0 -123 47t-45 113q0 60 45 110t123 50t123 -50t45 -110q0 -66 -45 -113t-123 -47zM860 932v-184h-320v-748h-236v748h-324v184h324v604h236v-604h320z" />
    <glyph glyph-name="iota1" unicode="&#x269;" horiz-adv-x="1008" 
d="M228 1488h272v-1104q0 -120 56 -170t152 -50q36 0 76 8v-184q-27 -6 -65 -11t-71 -5q-114 0 -209.5 48t-153 140t-57.5 224v1104z" />
    <glyph glyph-name="Ismallcap" unicode="&#x26a;" horiz-adv-x="1008" 
d="M848 220v-220h-684v220h200v1048h-200v220h684v-220h-208v-1048h208z" />
    <glyph glyph-name="lmidtilde" unicode="&#x26b;" horiz-adv-x="952" 
d="M788 1276l180 -16q0 -156 -87.5 -248t-216.5 -92q-36 0 -68 7v-927h-236v1040q-28 8 -60 8q-57 0 -94.5 -44.5t-37.5 -107.5l-184 8q0 153 87.5 250.5t216.5 97.5q37 0 72 -10v806h236v-917q28 -7 56 -7q57 0 96.5 44.5t39.5 107.5z" />
    <glyph glyph-name="lbelt" unicode="&#x26c;" horiz-adv-x="1180" 
d="M1156 824h-296v-824h-236v824h-152q-110 0 -203 44.5t-149 127t-56 196.5q0 153 107 258.5t293 105.5q88 0 160 -26v518h236v-1004h296v-220zM476 1044h148v140q0 66 -40 115t-124 49q-63 0 -105.5 -46.5t-42.5 -109.5q0 -60 46 -104t118 -44z" />
    <glyph glyph-name="lrthook" unicode="&#x26d;" horiz-adv-x="668" 
d="M452 2048v-2212q0 -120 64 -164t160 -44q21 0 41 2.5t35 5.5v-200q-27 -9 -63.5 -10.5t-72.5 -1.5q-168 0 -284 107t-116 305v2212h236z" />
    <glyph glyph-name="lyogh" unicode="&#x26e;" horiz-adv-x="1776" 
d="M456 2048v-560h1024l4 -168l-566 -726q302 -17 468 -172.5t166 -433.5q0 -188 -87.5 -319.5t-241 -200t-351.5 -68.5q-158 0 -296 46.5t-232 150t-120 275.5h276q21 -114 112.5 -183t259.5 -69q195 0 301.5 102.5t106.5 261.5q0 210 -113.5 305t-326.5 95h-204v216
l520 668h-700v-1268h-236v2048h236z" />
    <glyph glyph-name="mturn" unicode="&#x26f;" horiz-adv-x="2404" 
d="M1064 572v964h240v-1004q0 -174 75.5 -249t204.5 -75q90 0 170.5 50.5t131 143t50.5 218.5v916h236v-1536h-236v260h-16q-22 -66 -79.5 -130.5t-140 -107t-180.5 -42.5q-144 0 -244.5 81t-151.5 195h-16q-22 -64 -84.5 -127.5t-155 -106t-204.5 -42.5q-128 0 -233.5 59.5
t-168 182t-62.5 310.5v1004h236v-1012q0 -120 48.5 -189t118 -98t133.5 -29q156 0 242 101t86 263z" />
    <glyph glyph-name="mturndescend" unicode="&#x270;" horiz-adv-x="2404" 
d="M1064 572v964h240v-1004q0 -174 75.5 -249t204.5 -75q90 0 170.5 50.5t131 143t50.5 218.5v916h236v-1512h16v-600h-236v576h-16v260h-16q-22 -66 -79.5 -130.5t-140 -107t-180.5 -42.5q-144 0 -244.5 81t-151.5 195h-16q-22 -64 -84.5 -127.5t-155 -106t-204.5 -42.5
q-128 0 -233.5 59.5t-168 182t-62.5 310.5v1004h236v-1012q0 -120 48.5 -189t118 -98t133.5 -29q156 0 242 101t86 263z" />
    <glyph glyph-name="mhook" unicode="&#x271;" horiz-adv-x="2404" 
d="M1324 964v-964h-240v1004q0 174 -75.5 249t-204.5 75q-90 0 -170.5 -50.5t-131 -143t-50.5 -218.5v-916h-236v1536h236v-260h16q22 66 79.5 130.5t140 107t180.5 42.5q144 0 244.5 -81t151.5 -195h16q22 64 84.5 127.5t155 106t204.5 42.5q128 0 233.5 -59.5t168 -182
t62.5 -310.5v-1168q0 -198 -116 -305t-284 -107q-36 0 -72.5 1.5t-63.5 10.5v200q15 -3 35 -5.5t41 -2.5q96 0 160 44t64 164v1176q0 120 -48.5 189t-118 98t-133.5 29q-156 0 -242 -101t-86 -263z" />
    <glyph glyph-name="nlfthook" unicode="&#x272;" horiz-adv-x="1636" 
d="M452 908v-1072q0 -198 -116 -305t-284 -107q-36 0 -72.5 1.5t-63.5 10.5v200q15 -3 35 -5.5t41 -2.5q96 0 160 44t64 164v1700h236v-260h16q54 117 168 198.5t288 81.5q216 0 356 -143t140 -437v-976h-236v960q0 168 -94.5 268t-241.5 100q-88 0 -179.5 -45t-154 -138
t-62.5 -237z" />
    <glyph glyph-name="nrthook" unicode="&#x273;" horiz-adv-x="1636" 
d="M452 908v-908h-236v1536h236v-260h16q54 117 168 198.5t288 81.5q216 0 356 -143t140 -437v-1140q0 -120 64 -164t160 -44q21 0 41 2.5t35 5.5v-200q-27 -9 -63.5 -10.5t-72.5 -1.5q-168 0 -284 107t-116 305v1124q0 168 -94.5 268t-241.5 100q-88 0 -179.5 -45
t-154 -138t-62.5 -237z" />
    <glyph glyph-name="Nsmallcap" unicode="&#x274;" horiz-adv-x="1520" 
d="M432 0h-276v1488h276l660 -1060v1060h272v-1488h-272l-660 1065v-1065z" />
    <glyph glyph-name="obar" unicode="&#x275;" horiz-adv-x="1680" 
d="M840 -32q-208 0 -364.5 99t-244 277t-87.5 416q0 240 87.5 419t244 278t364.5 99t364.5 -99t244 -278t87.5 -419q0 -238 -87.5 -416t-244 -277t-364.5 -99zM840 1344q-138 0 -233 -63t-149.5 -169.5t-70.5 -235.5h906q-16 129 -70.5 235.5t-149.5 169.5t-233 63zM840 180
q140 0 235.5 64.5t150 172.5t68.5 239h-908q14 -131 68.5 -239t150 -172.5t235.5 -64.5z" />
    </font>
</defs>
</svg>
